<svg width="22" height="21" viewBox="0 0 22 21" fill="none" xmlns="http://www.w3.org/2000/svg">
<g clip-path="url(#clip0_158_709)">
<path d="M17.8897 10.5001C17.3529 10.5 16.8233 10.6235 16.342 10.8612C15.8607 11.0988 15.4406 11.4441 15.1142 11.8703L15.053 11.8441C15.2936 11.0986 15.3297 10.3022 15.1574 9.53798C14.9852 8.7738 14.6109 8.06988 14.0736 7.49975C13.5364 6.92962 12.856 6.5142 12.1033 6.29686C11.3507 6.07952 10.5536 6.06824 9.79511 6.2642L9.71549 6.1137C10.3511 5.54821 10.7586 4.77035 10.8617 3.92589C10.9649 3.08143 10.7565 2.22835 10.2757 1.52652C9.7949 0.824686 9.07466 0.322279 8.24995 0.113453C7.42525 -0.0953723 6.5527 0.0037179 5.79582 0.392154C5.03895 0.780589 4.4497 1.43171 4.13852 2.22348C3.82733 3.01525 3.81557 3.89334 4.10543 4.69316C4.39529 5.49299 4.96688 6.15966 5.71308 6.56823C6.45928 6.97681 7.32886 7.09924 8.15886 6.91258L8.22274 7.03245C7.34778 7.70387 6.7592 8.6814 6.57515 9.76882C6.3911 10.8562 6.62522 11.973 7.23049 12.895L5.58111 14.4376C4.83558 14.0257 3.96544 13.8998 3.13373 14.0835C2.30202 14.2671 1.56584 14.7478 1.06313 15.4354C0.560429 16.123 0.325705 16.9703 0.402948 17.8185C0.48019 18.6667 0.864097 19.4577 1.48273 20.0432C2.10136 20.6286 2.91226 20.9684 3.76346 20.9989C4.61467 21.0293 5.44776 20.7483 6.10662 20.2085C6.76549 19.6687 7.20491 18.9072 7.34253 18.0666C7.48016 17.2261 7.30655 16.3642 6.85424 15.6425L8.46249 14.1392C9.34578 14.7296 10.4139 14.9779 11.4671 14.8376C12.5202 14.6973 13.4862 14.1781 14.1841 13.3771L14.4282 13.4812C14.3223 14.1877 14.4352 14.9097 14.7516 15.5503C15.068 16.1908 15.5729 16.7191 16.1983 17.0644C16.8238 17.4096 17.54 17.5551 18.2506 17.4814C18.9612 17.4077 19.6322 17.1183 20.1736 16.6521C20.7149 16.1859 21.1006 15.5652 21.2789 14.8734C21.4571 14.1816 21.4194 13.4518 21.1708 12.782C20.9221 12.1122 20.4745 11.5346 19.888 11.1267C19.3015 10.7188 18.6042 10.5001 17.8897 10.5001ZM5.63974 3.50008C5.63974 3.15396 5.74237 2.81562 5.93467 2.52783C6.12696 2.24004 6.40027 2.01574 6.72004 1.88329C7.03981 1.75084 7.39168 1.71618 7.73115 1.7837C8.07061 1.85123 8.38243 2.0179 8.62717 2.26264C8.87192 2.50738 9.03859 2.8192 9.10611 3.15867C9.17364 3.49814 9.13898 3.85 9.00653 4.16977C8.87407 4.48955 8.64977 4.76286 8.36199 4.95515C8.0742 5.14744 7.73585 5.25008 7.38974 5.25008C6.92561 5.25008 6.48049 5.0657 6.1523 4.73752C5.82411 4.40933 5.63974 3.96421 5.63974 3.50008ZM3.88974 19.2501C3.54362 19.2501 3.20527 19.1474 2.91749 18.9552C2.6297 18.7629 2.4054 18.4895 2.27295 18.1698C2.14049 17.85 2.10584 17.4981 2.17336 17.1587C2.24089 16.8192 2.40756 16.5074 2.6523 16.2626C2.89704 16.0179 3.20886 15.8512 3.54833 15.7837C3.8878 15.7162 4.23966 15.7508 4.55943 15.8833C4.8792 16.0157 5.15252 16.24 5.34481 16.5278C5.5371 16.8156 5.63974 17.154 5.63974 17.5001C5.63974 17.9642 5.45536 18.4093 5.12717 18.7375C4.79899 19.0657 4.35387 19.2501 3.88974 19.2501ZM10.8897 13.1251C10.3216 13.124 9.76914 12.9386 9.31536 12.5967C8.86158 12.2548 8.53096 11.775 8.37315 11.2292C8.21535 10.6834 8.23889 10.1011 8.44023 9.56984C8.64157 9.03856 9.00984 8.58695 9.48974 8.28283L9.84586 8.09295C10.2037 7.9373 10.5917 7.86338 10.9817 7.87658C11.3717 7.88979 11.7539 7.98977 12.1004 8.16927C12.4469 8.34877 12.749 8.60326 12.9848 8.91423C13.2205 9.22519 13.384 9.5848 13.4632 9.9669C13.5425 10.349 13.5356 10.7439 13.443 11.123C13.3503 11.5021 13.1744 11.8558 12.9279 12.1583C12.6814 12.4608 12.3705 12.7045 12.018 12.8718C11.6654 13.039 11.28 13.1256 10.8897 13.1251ZM17.8897 15.7501C17.5436 15.7501 17.2053 15.6474 16.9175 15.4552C16.6297 15.2629 16.4054 14.9895 16.2729 14.6698C16.1405 14.35 16.1058 13.9981 16.1734 13.6587C16.2409 13.3192 16.4076 13.0074 16.6523 12.7626C16.897 12.5179 17.2089 12.3512 17.5483 12.2837C17.8878 12.2162 18.2397 12.2508 18.5594 12.3833C18.8792 12.5157 19.1525 12.74 19.3448 13.0278C19.5371 13.3156 19.6397 13.654 19.6397 14.0001C19.6397 14.4642 19.4554 14.9093 19.1272 15.2375C18.799 15.5657 18.3539 15.7501 17.8897 15.7501Z" fill="#E4E4E4"/>
</g>
<defs>
<clipPath id="clip0_158_709">
<rect width="21" height="21" fill="white" transform="translate(0.389648)"/>
</clipPath>
</defs>
</svg>
