<svg width="16" height="17" viewBox="0 0 16 17" fill="none" xmlns="http://www.w3.org/2000/svg">
<path d="M12.9363 4.72717V10.8664C12.9363 11.0543 12.8617 11.2344 12.7288 11.3673C12.596 11.5001 12.4158 11.5748 12.228 11.5748C12.0401 11.5748 11.8599 11.5001 11.7271 11.3673C11.5942 11.2344 11.5196 11.0543 11.5196 10.8664V6.43907L5.17316 12.7843C5.04008 12.9174 4.85959 12.9922 4.67139 12.9922C4.4832 12.9922 4.30271 12.9174 4.16963 12.7843C4.03655 12.6512 3.96179 12.4707 3.96179 12.2826C3.96179 12.0944 4.03655 11.9139 4.16963 11.7808L10.5161 5.43554H6.08873C5.90086 5.43554 5.72068 5.36091 5.58783 5.22807C5.45499 5.09522 5.38036 4.91504 5.38036 4.72717C5.38036 4.5393 5.45499 4.35912 5.58783 4.22628C5.72068 4.09343 5.90086 4.0188 6.08873 4.0188H12.228C12.4158 4.0188 12.596 4.09343 12.7288 4.22628C12.8617 4.35912 12.9363 4.5393 12.9363 4.72717Z" fill="#0C2E3C"/>
</svg>
