<svg width="47" height="28" viewBox="0 0 47 28" fill="none" xmlns="http://www.w3.org/2000/svg">
<rect x="0.43078" y="0.43078" width="26.7084" height="26.7084" rx="13.3542" fill="#8390FA" fill-opacity="0.1"/>
<rect x="0.43078" y="0.43078" width="26.7084" height="26.7084" rx="13.3542" stroke="#EDF2F9" stroke-width="0.86156"/>
<path d="M13.782 5.16943C15.21 5.16943 16.6027 5.61297 17.7678 6.43875C18.9328 7.26453 19.8125 8.43178 20.2855 9.77919C20.7584 11.1266 20.8012 12.5876 20.4079 13.9604C20.0145 15.3332 19.2045 16.5499 18.0898 17.4424V21.4142C18.0898 21.5673 18.0527 21.7181 17.9817 21.8537C17.9106 21.9894 17.8078 22.1058 17.682 22.193C17.5561 22.2802 17.411 22.3357 17.2591 22.3546C17.1071 22.3735 16.9529 22.3553 16.8095 22.3016L13.782 21.1677L10.7545 22.3033C10.611 22.357 10.4567 22.3752 10.3047 22.3563C10.1527 22.3373 10.0075 22.2818 9.88166 22.1945C9.75581 22.1072 9.65299 21.9906 9.58202 21.8549C9.51106 21.7191 9.47405 21.5682 9.47419 21.415V17.4432C8.35911 16.5508 7.5488 15.334 7.15526 13.9611C6.76171 12.5882 6.80438 11.1269 7.27736 9.77933C7.75035 8.43171 8.63028 7.2643 9.79552 6.43848C10.9608 5.61266 12.3538 5.16921 13.782 5.16943ZM13.782 6.89255C12.411 6.89255 11.0961 7.43718 10.1267 8.40662C9.15725 9.37607 8.61263 10.6909 8.61263 12.0619C8.61263 13.4329 9.15725 14.7478 10.1267 15.7172C11.0961 16.6866 12.411 17.2313 13.782 17.2313C15.153 17.2313 16.4678 16.6866 17.4373 15.7172C18.4067 14.7478 18.9513 13.4329 18.9513 12.0619C18.9513 10.6909 18.4067 9.37607 17.4373 8.40662C16.4678 7.43718 15.153 6.89255 13.782 6.89255ZM13.782 8.61567C14.696 8.61567 15.5726 8.97876 16.2188 9.62505C16.8651 10.2713 17.2282 11.1479 17.2282 12.0619C17.2282 12.9759 16.8651 13.8525 16.2188 14.4988C15.5726 15.1451 14.696 15.5082 13.782 15.5082C12.868 15.5082 11.9914 15.1451 11.3451 14.4988C10.6988 13.8525 10.3357 12.9759 10.3357 12.0619C10.3357 11.1479 10.6988 10.2713 11.3451 9.62505C11.9914 8.97876 12.868 8.61567 13.782 8.61567Z" fill="#1463FF"/>
</svg>
