<svg width="30" height="31" viewBox="0 0 30 31" fill="none" xmlns="http://www.w3.org/2000/svg">
<rect y="0.441406" width="30" height="30" rx="15" fill="#F2F4FF"/>
<g clip-path="url(#clip0_160_1166)">
<path d="M21.8172 13.4264C21.8172 12.4772 21.8172 11.8132 21.8172 11.7502C21.8172 11.0453 21.3154 10.4718 20.6986 10.4718H20.5495V12.0343C20.5495 12.2697 20.3825 12.4604 20.1766 12.4604C19.9707 12.4604 19.8037 12.2697 19.8037 12.0343C19.8037 11.5559 19.8037 10.2379 19.8037 9.76159C19.8037 9.52624 19.6368 9.33545 19.4309 9.33545C19.225 9.33545 19.058 9.52624 19.058 9.76159V10.4718H16.5722V12.0343C16.5722 12.2697 16.4053 12.4604 16.1993 12.4604C15.9934 12.4604 15.8265 12.2697 15.8265 12.0343C15.8265 11.5559 15.8265 10.2379 15.8265 9.76159C15.8265 9.52624 15.6595 9.33545 15.4536 9.33545C15.2477 9.33545 15.0807 9.52624 15.0807 9.76159V10.4718H12.5949V12.0343C12.5949 12.2697 12.428 12.4604 12.2221 12.4604C12.0161 12.4604 11.8492 12.2697 11.8492 12.0343C11.8492 11.5559 11.8492 10.2379 11.8492 9.76159C11.8492 9.52624 11.6823 9.33545 11.4763 9.33545C11.2704 9.33545 11.1035 9.52624 11.1035 9.76159V10.4718H10.2086C9.59177 10.4718 9.08997 11.0453 9.08997 11.7502V13.4264H21.8172Z" fill="#1463FF"/>
<path d="M9.08997 14.2786V21.182C9.08997 21.8869 9.59177 22.4604 10.2086 22.4604H20.6986C21.3154 22.4604 21.8172 21.8869 21.8172 21.182C21.8172 20.9994 21.8172 17.0112 21.8172 14.2786C21.5852 14.2786 9.21833 14.2786 9.08997 14.2786ZM12.6695 20.1877H11.8741C11.6681 20.1877 11.5012 19.9969 11.5012 19.7615C11.5012 19.5262 11.6681 19.3354 11.8741 19.3354H12.6695C12.8754 19.3354 13.0424 19.5262 13.0424 19.7615C13.0424 19.9969 12.8754 20.1877 12.6695 20.1877ZM12.6695 18.3695H11.8741C11.6681 18.3695 11.5012 18.1787 11.5012 17.9433C11.5012 17.708 11.6681 17.5172 11.8741 17.5172H12.6695C12.8754 17.5172 13.0424 17.708 13.0424 17.9433C13.0424 18.1787 12.8754 18.3695 12.6695 18.3695ZM12.6695 16.5513H11.8741C11.6681 16.5513 11.5012 16.3605 11.5012 16.1252C11.5012 15.8898 11.6681 15.699 11.8741 15.699H12.6695C12.8754 15.699 13.0424 15.8898 13.0424 16.1252C13.0424 16.3605 12.8754 16.5513 12.6695 16.5513ZM15.8513 20.1877H15.0559C14.85 20.1877 14.683 19.9969 14.683 19.7615C14.683 19.5262 14.85 19.3354 15.0559 19.3354H15.8513C16.0573 19.3354 16.2242 19.5262 16.2242 19.7615C16.2242 19.9969 16.0573 20.1877 15.8513 20.1877ZM15.8513 18.3695H15.0559C14.85 18.3695 14.683 18.1787 14.683 17.9433C14.683 17.708 14.85 17.5172 15.0559 17.5172H15.8513C16.0573 17.5172 16.2242 17.708 16.2242 17.9433C16.2242 18.1787 16.0573 18.3695 15.8513 18.3695ZM15.8513 16.5513H15.0559C14.85 16.5513 14.683 16.3605 14.683 16.1252C14.683 15.8898 14.85 15.699 15.0559 15.699H15.8513C16.0573 15.699 16.2242 15.8898 16.2242 16.1252C16.2242 16.3605 16.0573 16.5513 15.8513 16.5513ZM19.0331 20.1877H18.2377C18.0318 20.1877 17.8648 19.9969 17.8648 19.7615C17.8648 19.5262 18.0318 19.3354 18.2377 19.3354H19.0331C19.2391 19.3354 19.406 19.5262 19.406 19.7615C19.406 19.9969 19.2391 20.1877 19.0331 20.1877ZM19.0331 18.3695H18.2377C18.0318 18.3695 17.8648 18.1787 17.8648 17.9433C17.8648 17.708 18.0318 17.5172 18.2377 17.5172H19.0331C19.2391 17.5172 19.406 17.708 19.406 17.9433C19.406 18.1787 19.2391 18.3695 19.0331 18.3695ZM19.0331 16.5513H18.2377C18.0318 16.5513 17.8648 16.3605 17.8648 16.1252C17.8648 15.8898 18.0318 15.699 18.2377 15.699H19.0331C19.2391 15.699 19.406 15.8898 19.406 16.1252C19.406 16.3605 19.2391 16.5513 19.0331 16.5513Z" fill="#1463FF"/>
</g>
<defs>
<clipPath id="clip0_160_1166">
<rect width="12.7273" height="14.5455" fill="white" transform="translate(9.08997 8.62524)"/>
</clipPath>
</defs>
</svg>
