<svg width="47" height="28" viewBox="0 0 47 28" fill="none" xmlns="http://www.w3.org/2000/svg">
<rect x="0.43078" y="0.43078" width="26.7084" height="26.7084" rx="13.3542" fill="#8390FA" fill-opacity="0.1"/>
<rect x="0.43078" y="0.43078" width="26.7084" height="26.7084" rx="13.3542" stroke="#EDF2F9" stroke-width="0.86156"/>
<path d="M8.61569 17.6625V14.7883L12.0688 16.7716C12.5911 17.0715 13.1828 17.2294 13.785 17.2294C14.3873 17.2294 14.979 17.0715 15.5013 16.7716L18.9544 14.7883V17.6625C18.9545 17.7191 18.9435 17.7752 18.9219 17.8275C18.9003 17.8798 18.8686 17.9274 18.8286 17.9675L18.8269 17.9683L18.8252 17.9709L18.8191 17.9761L18.7993 17.995L18.7304 18.0588C18.6701 18.1134 18.5837 18.1846 18.4711 18.2725C18.1619 18.5104 17.833 18.7217 17.488 18.904C16.3476 19.5083 15.0757 19.8217 13.785 19.8164C12.4944 19.8214 11.2224 19.5077 10.0821 18.9031C9.73739 18.7208 9.40882 18.5095 9.09988 18.2716C8.98637 18.1837 8.87657 18.0912 8.77077 17.9942L8.75095 17.9752C8.70832 17.935 8.67434 17.8866 8.65108 17.8328C8.62782 17.779 8.61578 17.7211 8.61569 17.6625ZM21.3228 12.4354L15.0722 16.0238C14.6805 16.2487 14.2367 16.3671 13.785 16.3671C13.3334 16.3671 12.8896 16.2487 12.4979 16.0238L6.89257 12.8059V16.8001C6.89257 16.9143 6.84718 17.0239 6.76639 17.1047C6.68561 17.1855 6.57604 17.2308 6.46179 17.2308C6.34754 17.2308 6.23797 17.1855 6.15718 17.1047C6.07639 17.0239 6.03101 16.9143 6.03101 16.8001V12.0623C6.03096 11.9847 6.05192 11.9084 6.09165 11.8417C6.13139 11.775 6.18843 11.7202 6.25673 11.6833L12.4979 8.09916C12.8896 7.87423 13.3334 7.75586 13.785 7.75586C14.2367 7.75586 14.6805 7.87423 15.0722 8.09916L21.3228 11.6884C21.3885 11.7262 21.4431 11.7806 21.481 11.8462C21.519 11.9117 21.539 11.9862 21.539 12.0619C21.539 12.1377 21.519 12.2121 21.481 12.2777C21.4431 12.3432 21.3885 12.3976 21.3228 12.4354Z" fill="#1463FF"/>
</svg>
