<svg width="20" height="21" viewBox="0 0 20 21" fill="none" xmlns="http://www.w3.org/2000/svg">
<g clip-path="url(#clip0_158_4582)">
<path d="M11.6667 20.5C11.4864 20.5 11.311 20.4415 11.1667 20.3333L7.8334 17.8333C7.7299 17.7557 7.6459 17.6551 7.58804 17.5393C7.53019 17.4236 7.50006 17.296 7.50006 17.1667V12.4833L1.6534 5.90583C1.23817 5.4374 0.967048 4.85901 0.872632 4.2402C0.778216 3.62138 0.864519 2.98846 1.12117 2.41751C1.37782 1.84656 1.79389 1.36188 2.31938 1.02172C2.84487 0.681561 3.45742 0.500395 4.0834 0.5H15.9167C16.5427 0.500734 17.1551 0.682199 17.6803 1.02259C18.2056 1.36298 18.6214 1.84781 18.8778 2.41882C19.1342 2.98983 19.2202 3.62273 19.1255 4.24146C19.0309 4.86018 18.7596 5.43841 18.3442 5.90667L12.5001 12.4833V19.6667C12.5001 19.8877 12.4123 20.0996 12.256 20.2559C12.0997 20.4122 11.8877 20.5 11.6667 20.5ZM9.16673 16.75L10.8334 18V12.1667C10.8336 11.9626 10.9086 11.7657 11.0442 11.6133L17.1009 4.79917C17.3029 4.5709 17.4346 4.2892 17.4804 3.98788C17.5262 3.68655 17.4841 3.37842 17.359 3.10046C17.234 2.82251 17.0314 2.58655 16.7756 2.42091C16.5197 2.25527 16.2215 2.16699 15.9167 2.16667H4.0834C3.77877 2.16713 3.48075 2.25546 3.22507 2.42105C2.96939 2.58665 2.7669 2.8225 2.6419 3.10029C2.5169 3.37809 2.47469 3.68605 2.52034 3.98723C2.56598 4.28842 2.69754 4.57004 2.89923 4.79833L8.95673 11.6133C9.09208 11.7659 9.16679 11.9627 9.16673 12.1667V16.75Z" fill="#A9B2C3"/>
</g>
<defs>
<clipPath id="clip0_158_4582">
<rect width="20" height="20" fill="white" transform="translate(0 0.5)"/>
</clipPath>
</defs>
</svg>
