<svg width="33" height="33" viewBox="0 0 33 33" fill="none" xmlns="http://www.w3.org/2000/svg">
<rect x="0.666992" y="1.16669" width="31" height="31" rx="15.5" fill="#8390FA" fill-opacity="0.1"/>
<rect x="0.666992" y="1.16669" width="31" height="31" rx="15.5" stroke="#EDF2F9"/>
<g clip-path="url(#clip0_158_443)">
<path d="M16.167 15.3334C15.6366 15.3334 15.1279 15.1226 14.7528 14.7476C14.3777 14.3725 14.167 13.8638 14.167 13.3334C14.167 12.8029 14.3777 12.2942 14.7528 11.9191C15.1279 11.5441 15.6366 11.3334 16.167 11.3334C16.6974 11.3334 17.2061 11.5441 17.5812 11.9191C17.9563 12.2942 18.167 12.8029 18.167 13.3334C18.167 13.8638 17.9563 14.3725 17.5812 14.7476C17.2061 15.1226 16.6974 15.3334 16.167 15.3334ZM14.1457 18.8327C14.2828 18.4044 14.5524 18.0307 14.9156 17.7656C15.2789 17.5004 15.7169 17.3576 16.1667 17.3576C16.6164 17.3576 17.0545 17.5004 17.4177 17.7656C17.7809 18.0307 18.0506 18.4044 18.1877 18.8327C18.2319 19.004 18.3423 19.1508 18.4947 19.2407C18.6471 19.3306 18.829 19.3562 19.0003 19.312C19.1717 19.2678 19.3184 19.1574 19.4083 19.005C19.4982 18.8526 19.5239 18.6707 19.4797 18.4994C18.6057 15.2014 13.7263 15.2027 12.855 18.4994C12.8309 18.5848 12.8242 18.6742 12.8351 18.7623C12.8461 18.8504 12.8745 18.9354 12.9187 19.0124C12.963 19.0893 13.0221 19.1567 13.0928 19.2105C13.1634 19.2643 13.244 19.3034 13.33 19.3256C13.4159 19.3478 13.5055 19.3526 13.5933 19.3397C13.6811 19.3269 13.7655 19.2966 13.8415 19.2507C13.9175 19.2048 13.9835 19.1441 14.0357 19.0724C14.088 19.0006 14.1253 18.9191 14.1457 18.8327ZM16.173 24.4434C15.8441 24.4435 15.5266 24.3228 15.281 24.104L12.7823 22H10.8337C10.1264 22 9.44814 21.7191 8.94804 21.219C8.44794 20.7189 8.16699 20.0406 8.16699 19.3334V11.3334C8.16699 10.6261 8.44794 9.94783 8.94804 9.44774C9.44814 8.94764 10.1264 8.66669 10.8337 8.66669H21.5003C22.2076 8.66669 22.8858 8.94764 23.3859 9.44774C23.886 9.94783 24.167 10.6261 24.167 11.3334V19.3334C24.167 20.0406 23.886 20.7189 23.3859 21.219C22.8858 21.7191 22.2076 22 21.5003 22H19.5983L17.0337 24.12C16.7961 24.3296 16.4898 24.4446 16.173 24.4434ZM10.8337 10C10.48 10 10.1409 10.1405 9.89085 10.3905C9.6408 10.6406 9.50033 10.9797 9.50033 11.3334V19.3334C9.50033 19.687 9.6408 20.0261 9.89085 20.2762C10.1409 20.5262 10.48 20.6667 10.8337 20.6667H13.0263C13.1834 20.6667 13.3355 20.7222 13.4557 20.8234L16.153 23.0967L18.9343 20.8194C19.0538 20.7206 19.204 20.6667 19.359 20.6667H21.5003C21.8539 20.6667 22.1931 20.5262 22.4431 20.2762C22.6932 20.0261 22.8337 19.687 22.8337 19.3334V11.3334C22.8337 10.9797 22.6932 10.6406 22.4431 10.3905C22.1931 10.1405 21.8539 10 21.5003 10H10.8337Z" fill="#1463FF"/>
</g>
<defs>
<clipPath id="clip0_158_443">
<rect width="16" height="16" fill="white" transform="translate(8.16699 8.66669)"/>
</clipPath>
</defs>
</svg>
