<svg width="19" height="18" viewBox="0 0 19 18" fill="none" xmlns="http://www.w3.org/2000/svg">
<g clip-path="url(#clip0_158_706)">
<path d="M17.0396 1.62224C16.618 1.26969 16.1239 1.01429 15.5925 0.874168C15.0611 0.734049 14.5053 0.712651 13.9646 0.811494L11.0981 1.33199C10.4363 1.45353 9.83461 1.79401 9.38964 2.29874C8.94351 1.79314 8.34006 1.45258 7.67664 1.33199L4.81464 0.811494C4.27401 0.712565 3.71824 0.733682 3.18667 0.873351C2.65511 1.01302 2.16074 1.26783 1.73857 1.61973C1.31639 1.97164 0.97673 2.41205 0.743627 2.90978C0.510524 3.4075 0.389677 3.95039 0.389641 4.49999L0.389641 12.5947C0.389684 13.4728 0.697873 14.3231 1.26049 14.9973C1.82311 15.6714 2.60447 16.1268 3.46839 16.284L8.18289 17.1412C8.98086 17.2862 9.79842 17.2862 10.5964 17.1412L15.3146 16.284C16.1779 16.126 16.9584 15.6703 17.5202 14.9962C18.0821 14.3221 18.3898 13.4723 18.3896 12.5947V4.49999C18.39 3.95058 18.2692 3.40784 18.0358 2.91044C17.8025 2.41303 17.4624 1.9732 17.0396 1.62224ZM8.63964 15.696C8.57664 15.687 8.51364 15.6765 8.45064 15.6652L3.73689 14.8087C3.21846 14.7144 2.74959 14.4411 2.41201 14.0365C2.07443 13.6319 1.88956 13.1217 1.88964 12.5947V4.49999C1.88964 3.90326 2.12669 3.33096 2.54865 2.909C2.97061 2.48705 3.5429 2.24999 4.13964 2.24999C4.27546 2.25032 4.41098 2.26262 4.54464 2.28674L7.40964 2.81174C7.75435 2.87482 8.06609 3.0566 8.29077 3.32553C8.51545 3.59446 8.63888 3.93356 8.63964 4.28399V15.696ZM16.8896 12.5947C16.8897 13.1217 16.7049 13.6319 16.3673 14.0365C16.0297 14.4411 15.5608 14.7144 15.0424 14.8087L10.3286 15.6652C10.2656 15.6765 10.2026 15.687 10.1396 15.696V4.28399C10.1396 3.9327 10.2628 3.59254 10.4879 3.3228C10.7129 3.05307 11.0255 2.87088 11.3711 2.80799L14.2369 2.28299C14.5614 2.22395 14.895 2.23698 15.2139 2.32118C15.5329 2.40537 15.8294 2.55866 16.0825 2.7702C16.3356 2.98173 16.5391 3.24634 16.6786 3.54526C16.8181 3.84419 16.8901 4.17013 16.8896 4.49999V12.5947Z" fill="#E4E4E4"/>
</g>
<defs>
<clipPath id="clip0_158_706">
<rect width="18" height="18" fill="white" transform="translate(0.389648)"/>
</clipPath>
</defs>
</svg>
