<svg width="48" height="28" viewBox="0 0 48 28" fill="none" xmlns="http://www.w3.org/2000/svg">
<rect x="1.19579" y="0.43078" width="26.7084" height="26.7084" rx="13.3542" fill="#8390FA" fill-opacity="0.1"/>
<rect x="1.19579" y="0.43078" width="26.7084" height="26.7084" rx="13.3542" stroke="#EDF2F9" stroke-width="0.86156"/>
<path d="M8.63944 15.5082C7.99298 14.4495 7.65214 13.2326 7.65468 11.9921C7.65468 8.22366 10.7408 5.16943 14.5472 5.16943C18.3535 5.16943 21.4396 8.22366 21.4396 11.9921C21.4422 13.2326 21.1013 14.4495 20.4549 15.5082M17.1318 19.816L17.0198 20.3734C16.8992 20.9825 16.838 21.2866 16.7011 21.5279C16.49 21.8997 16.1482 22.1797 15.7421 22.3136C15.4794 22.4006 15.1675 22.4006 14.5472 22.4006C13.9268 22.4006 13.6149 22.4006 13.3522 22.3145C12.946 22.1804 12.6042 21.9 12.3933 21.5279C12.2563 21.2866 12.1951 20.9825 12.0745 20.3734L11.9625 19.816M10.5693 18.1773C10.4901 17.9395 10.4504 17.8197 10.4547 17.7232C10.4596 17.6235 10.4933 17.5272 10.5517 17.4462C10.6101 17.3652 10.6908 17.3028 10.7839 17.2666C10.8735 17.2313 10.9993 17.2313 11.2491 17.2313H17.8452C18.0959 17.2313 18.2209 17.2313 18.3105 17.2657C18.4037 17.302 18.4844 17.3645 18.5428 17.4457C18.6013 17.5269 18.6349 17.6233 18.6396 17.7232C18.6439 17.8197 18.6042 17.9386 18.525 18.1773C18.3785 18.6175 18.3053 18.8381 18.1924 19.0164C17.9564 19.3891 17.5863 19.6571 17.1585 19.7651C16.9535 19.816 16.7226 19.816 16.2599 19.816H12.8344C12.3717 19.816 12.14 19.816 11.9358 19.7643C11.5081 19.6565 11.1381 19.3888 10.9019 19.0164C10.789 18.8381 10.7158 18.6175 10.5693 18.1773Z" stroke="#1463FF" stroke-width="1.29234" stroke-linecap="round" stroke-linejoin="round"/>
<path d="M11.3157 11.8464L13.2542 13.7849V17.2311M17.7774 11.8464L15.8389 13.7849V17.2311M11.3157 12.4925C11.4871 12.4925 11.6515 12.4245 11.7726 12.3033C11.8938 12.1821 11.9619 12.0177 11.9619 11.8464C11.9619 11.675 11.8938 11.5106 11.7726 11.3895C11.6515 11.2683 11.4871 11.2002 11.3157 11.2002C11.1444 11.2002 10.98 11.2683 10.8588 11.3895C10.7376 11.5106 10.6696 11.675 10.6696 11.8464C10.6696 12.0177 10.7376 12.1821 10.8588 12.3033C10.98 12.4245 11.1444 12.4925 11.3157 12.4925ZM17.7774 12.4925C17.6061 12.4925 17.4417 12.4245 17.3205 12.3033C17.1993 12.1821 17.1313 12.0177 17.1313 11.8464C17.1313 11.675 17.1993 11.5106 17.3205 11.3895C17.4417 11.2683 17.6061 11.2002 17.7774 11.2002C17.9488 11.2002 18.1132 11.2683 18.2343 11.3895C18.3555 11.5106 18.4236 11.675 18.4236 11.8464C18.4236 12.0177 18.3555 12.1821 18.2343 12.3033C18.1132 12.4245 17.9488 12.4925 17.7774 12.4925Z" stroke="#1463FF" stroke-width="1.29234" stroke-linecap="round" stroke-linejoin="round"/>
</svg>
