<svg width="17" height="17" viewBox="0 0 17 17" fill="none" xmlns="http://www.w3.org/2000/svg">
<circle cx="8.5" cy="8.5" r="8.5" fill="#1D58AB" fill-opacity="0.1"/>
<path d="M8.5 4.125C7.58865 4.12608 6.71493 4.48858 6.07051 5.13301C5.42609 5.77743 5.06358 6.65115 5.0625 7.5625C5.06141 8.30726 5.30469 9.03181 5.755 9.625C5.755 9.625 5.84875 9.74844 5.86407 9.76625L8.5 12.875L11.1372 9.76469C11.1509 9.74813 11.245 9.625 11.245 9.625L11.2453 9.62406C11.6954 9.03113 11.9386 8.30692 11.9375 7.5625C11.9364 6.65115 11.5739 5.77743 10.9295 5.13301C10.2851 4.48858 9.41136 4.12608 8.5 4.125ZM8.5 8.8125C8.25278 8.8125 8.0111 8.73919 7.80554 8.60184C7.59998 8.46449 7.43976 8.26926 7.34515 8.04085C7.25054 7.81245 7.22579 7.56111 7.27402 7.31864C7.32225 7.07616 7.4413 6.85343 7.61612 6.67862C7.79094 6.5038 8.01366 6.38475 8.25614 6.33652C8.49862 6.28829 8.74995 6.31304 8.97836 6.40765C9.20676 6.50226 9.40199 6.66248 9.53934 6.86804C9.67669 7.0736 9.75 7.31527 9.75 7.5625C9.74959 7.89389 9.61776 8.2116 9.38343 8.44593C9.1491 8.68026 8.8314 8.81209 8.5 8.8125Z" fill="#0B72DA"/>
</svg>
