<svg width="33" height="32" viewBox="0 0 33 32" fill="none" xmlns="http://www.w3.org/2000/svg">
<rect x="1.33337" y="0.5" width="31" height="31" rx="15.5" fill="#8390FA" fill-opacity="0.1"/>
<rect x="1.33337" y="0.5" width="31" height="31" rx="15.5" stroke="#EDF2F9"/>
<path fill-rule="evenodd" clip-rule="evenodd" d="M21.3334 14V22.5H12.3334V9.5H16.8334V12.25C16.8334 13.216 17.6174 14 18.5834 14H21.3334ZM21.2124 12.5L18.3334 9.621V12.25C18.3334 12.388 18.4454 12.5 18.5834 12.5H21.2124ZM10.8334 9C10.8334 8.73478 10.9387 8.48043 11.1263 8.29289C11.3138 8.10536 11.5682 8 11.8334 8H18.4194C18.6846 8.00006 18.9389 8.10545 19.1264 8.293L22.5404 11.707C22.7279 11.8945 22.8333 12.1488 22.8334 12.414V23C22.8334 23.2652 22.728 23.5196 22.5405 23.7071C22.3529 23.8946 22.0986 24 21.8334 24H11.8334C11.5682 24 11.3138 23.8946 11.1263 23.7071C10.9387 23.5196 10.8334 23.2652 10.8334 23V9ZM14.5834 16C14.3845 16 14.1937 16.079 14.053 16.2197C13.9124 16.3603 13.8334 16.5511 13.8334 16.75C13.8334 16.9489 13.9124 17.1397 14.053 17.2803C14.1937 17.421 14.3845 17.5 14.5834 17.5H19.0834C19.2823 17.5 19.4731 17.421 19.6137 17.2803C19.7544 17.1397 19.8334 16.9489 19.8334 16.75C19.8334 16.5511 19.7544 16.3603 19.6137 16.2197C19.4731 16.079 19.2823 16 19.0834 16H14.5834ZM13.8334 19.25C13.8334 19.0511 13.9124 18.8603 14.053 18.7197C14.1937 18.579 14.3845 18.5 14.5834 18.5H17.0834C17.2823 18.5 17.4731 18.579 17.6137 18.7197C17.7544 18.8603 17.8334 19.0511 17.8334 19.25C17.8334 19.4489 17.7544 19.6397 17.6137 19.7803C17.4731 19.921 17.2823 20 17.0834 20H14.5834C14.3845 20 14.1937 19.921 14.053 19.7803C13.9124 19.6397 13.8334 19.4489 13.8334 19.25Z" fill="#1463FF"/>
</svg>
