<svg width="18" height="18" viewBox="0 0 18 18" fill="none" xmlns="http://www.w3.org/2000/svg">
<path d="M9.01507 2.1825C6.53257 2.1825 4.51507 4.2 4.51507 6.6825V8.85C4.51507 9.3075 4.32007 10.005 4.08757 10.395L3.22507 11.8275C2.69257 12.7125 3.06007 13.695 4.03507 14.025C7.26757 15.105 10.7551 15.105 13.9876 14.025C14.8951 13.725 15.2926 12.6525 14.7976 11.8275L13.9351 10.395C13.7101 10.005 13.5151 9.3075 13.5151 8.85V6.6825C13.5151 4.2075 11.4901 2.1825 9.01507 2.1825Z" stroke="#686881" stroke-width="1.5" stroke-miterlimit="10" stroke-linecap="round"/>
<path d="M10.4026 2.4C10.1701 2.3325 9.93006 2.28 9.68256 2.25C8.96256 2.16 8.27256 2.2125 7.62756 2.4C7.84506 1.845 8.38506 1.455 9.01506 1.455C9.64506 1.455 10.1851 1.845 10.4026 2.4Z" stroke="#686881" stroke-width="1.5" stroke-miterlimit="10" stroke-linecap="round" stroke-linejoin="round"/>
<path d="M11.265 14.295C11.265 15.5325 10.2525 16.545 9.01501 16.545C8.40001 16.545 7.83001 16.29 7.42501 15.885C7.02001 15.48 6.76501 14.91 6.76501 14.295" stroke="#686881" stroke-width="1.5" stroke-miterlimit="10"/>
</svg>
