<svg width="22" height="21" viewBox="0 0 22 21" fill="none" xmlns="http://www.w3.org/2000/svg">
<g clip-path="url(#clip0_158_757)">
<path d="M16.1346 2.00034C15.0666 1.04619 13.7586 0.401346 12.3514 0.135213C10.9442 -0.13092 9.49102 -0.00827091 8.14833 0.489962C6.80564 0.988195 5.62423 1.84315 4.73126 2.96281C3.83828 4.08247 3.26754 5.42446 3.08046 6.84434C2.91244 8.08933 3.04681 9.35647 3.47221 10.5385C3.89761 11.7206 4.6015 12.7828 5.52433 13.6352C6.09501 14.1357 6.5555 14.7492 6.87663 15.4369C7.19776 16.1247 7.37251 16.8716 7.38983 17.6305V17.7713C7.39076 18.6274 7.73122 19.4481 8.33653 20.0534C8.94184 20.6587 9.76255 20.9992 10.6186 21.0001H11.1611C12.0171 20.9992 12.8378 20.6587 13.4431 20.0534C14.0484 19.4481 14.3889 18.6274 14.3898 17.7713V17.291C14.4029 16.6202 14.5608 15.9603 14.8525 15.3562C15.1443 14.7521 15.5631 14.2182 16.0803 13.791C16.9191 13.0563 17.5922 12.1519 18.055 11.1375C18.5178 10.1231 18.7598 9.02197 18.765 7.907C18.7701 6.79203 18.5382 5.6887 18.0848 4.6701C17.6313 3.6515 16.9665 2.74088 16.1346 1.99859V2.00034ZM11.1611 19.2501H10.6186C10.2265 19.2496 9.85068 19.0937 9.57346 18.8165C9.29624 18.5392 9.14029 18.1634 9.13983 17.7713C9.13983 17.7713 9.1337 17.5438 9.13283 17.5001H12.6398V17.7713C12.6394 18.1634 12.4834 18.5392 12.2062 18.8165C11.929 19.0937 11.5531 19.2496 11.1611 19.2501ZM14.9236 12.4767C13.9273 13.3408 13.2079 14.4794 12.8551 15.7501H11.7648V9.46409C12.2749 9.28376 12.7167 8.95026 13.03 8.5092C13.3433 8.06814 13.5126 7.54106 13.5148 7.00009C13.5148 6.76802 13.4226 6.54546 13.2585 6.38137C13.0945 6.21727 12.8719 6.12509 12.6398 6.12509C12.4078 6.12509 12.1852 6.21727 12.0211 6.38137C11.857 6.54546 11.7648 6.76802 11.7648 7.00009C11.7648 7.23215 11.6726 7.45471 11.5085 7.6188C11.3445 7.7829 11.1219 7.87509 10.8898 7.87509C10.6578 7.87509 10.4352 7.7829 10.2711 7.6188C10.107 7.45471 10.0148 7.23215 10.0148 7.00009C10.0148 6.76802 9.92264 6.54546 9.75855 6.38137C9.59445 6.21727 9.37189 6.12509 9.13983 6.12509C8.90777 6.12509 8.68521 6.21727 8.52111 6.38137C8.35702 6.54546 8.26483 6.76802 8.26483 7.00009C8.26707 7.54106 8.4364 8.06814 8.74966 8.5092C9.06291 8.95026 9.50478 9.28376 10.0148 9.46409V15.7501H8.85808C8.46345 14.4456 7.72331 13.2722 6.71608 12.3542C5.86117 11.5576 5.25196 10.5331 4.96037 9.40151C4.66877 8.26995 4.70694 7.07859 5.07039 5.96802C5.43383 4.85745 6.10738 3.87402 7.01154 3.13378C7.9157 2.39354 9.01274 1.92739 10.1732 1.79034C10.4138 1.76348 10.6556 1.75004 10.8977 1.75009C12.4006 1.74562 13.8514 2.30013 14.9682 3.30584C15.6154 3.88298 16.1326 4.59111 16.4854 5.38328C16.8382 6.17545 17.0186 7.03357 17.0146 7.90074C17.0107 8.76792 16.8224 9.62434 16.4624 10.4132C16.1023 11.2022 15.5787 11.9055 14.9262 12.4767H14.9236Z" fill="#E4E4E4"/>
</g>
<defs>
<clipPath id="clip0_158_757">
<rect width="21" height="21" fill="white" transform="translate(0.389648)"/>
</clipPath>
</defs>
</svg>
