<svg width="22" height="21" viewBox="0 0 22 21" fill="none" xmlns="http://www.w3.org/2000/svg">
<g clip-path="url(#clip0_158_703)">
<path d="M15.2648 0H6.51478C5.35488 0.00138938 4.24289 0.462772 3.42272 1.28294C2.60255 2.10311 2.14117 3.2151 2.13978 4.375V17.5C2.13978 18.4283 2.50853 19.3185 3.1649 19.9749C3.82128 20.6313 4.71152 21 5.63978 21H15.2648C16.4247 20.9986 17.5367 20.5372 18.3568 19.7171C19.177 18.8969 19.6384 17.7849 19.6398 16.625V4.375C19.6384 3.2151 19.177 2.10311 18.3568 1.28294C17.5367 0.462772 16.4247 0.00138938 15.2648 0V0ZM17.8898 4.375V14H7.38978V1.75H15.2648C15.961 1.75 16.6287 2.02656 17.1209 2.51884C17.6132 3.01113 17.8898 3.67881 17.8898 4.375ZM5.63978 1.9005V14C5.0252 13.9995 4.42143 14.1616 3.88978 14.4699V4.375C3.88986 3.83223 4.05818 3.30283 4.37158 2.85968C4.68498 2.41653 5.12805 2.08142 5.63978 1.9005ZM15.2648 19.25H5.63978C5.17565 19.25 4.73053 19.0656 4.40234 18.7374C4.07415 18.4092 3.88978 17.9641 3.88978 17.5C3.88978 17.0359 4.07415 16.5908 4.40234 16.2626C4.73053 15.9344 5.17565 15.75 5.63978 15.75H17.8898V16.625C17.8898 17.3212 17.6132 17.9889 17.1209 18.4812C16.6287 18.9734 15.961 19.25 15.2648 19.25Z" fill="#E4E4E4"/>
</g>
<defs>
<clipPath id="clip0_158_703">
<rect width="21" height="21" fill="white" transform="translate(0.389648)"/>
</clipPath>
</defs>
</svg>
