<svg width="26" height="26" viewBox="0 0 26 26" fill="none" xmlns="http://www.w3.org/2000/svg">
<rect x="1.02203" y="1.02106" width="24.4647" height="24.4647" rx="12.2324" fill="#8390FA" fill-opacity="0.1"/>
<rect x="1.02203" y="1.02106" width="24.4647" height="24.4647" rx="12.2324" stroke="#EDF2F9" stroke-width="0.789185"/>
<g clip-path="url(#clip0_167_11745)">
<path d="M19.5152 12.9572C19.3085 11.3659 18.5036 9.91302 17.2641 8.89387C16.0246 7.87472 14.4436 7.36578 12.8423 7.4705C11.2411 7.57522 9.73978 8.28573 8.64359 9.45763C7.5474 10.6295 6.93857 12.1749 6.94087 13.7795C6.93783 14.6384 7.11189 15.4887 7.45216 16.2774C7.79243 17.066 8.29162 17.776 8.91856 18.3631C9.39804 18.807 10.0298 19.0497 10.6832 19.0408H15.8218C16.5121 19.0424 17.1753 18.7723 17.668 18.2889C18.3702 17.6057 18.903 16.7678 19.2237 15.8421C19.5444 14.9163 19.6443 13.9284 19.5152 12.9572ZM16.9325 17.5345C16.6365 17.8261 16.2374 17.9893 15.8218 17.9885H10.6832C10.2987 17.9964 9.92582 17.8569 9.64093 17.5987C9.11863 17.1094 8.70276 16.5178 8.41925 15.8607C8.13574 15.2036 7.99068 14.4952 7.99311 13.7795C7.99363 13.0389 8.1503 12.3067 8.45291 11.6306C8.75552 10.9546 9.19726 10.35 9.74931 9.85623C10.7085 8.99124 11.9554 8.51429 13.247 8.5183C13.4534 8.51839 13.6596 8.52998 13.8647 8.55303C14.8515 8.66763 15.7856 9.05945 16.5589 9.6831C17.3322 10.3067 17.913 11.1367 18.234 12.0768C18.555 13.017 18.6032 14.0288 18.3728 14.9952C18.1425 15.9615 17.6431 16.8429 16.9325 17.5371V17.5345ZM11.0483 16.034C11.1481 16.1316 11.205 16.265 11.2064 16.4046C11.2079 16.5442 11.1539 16.6787 11.0562 16.7784C10.9585 16.8782 10.8252 16.9351 10.6856 16.9366C10.546 16.938 10.4115 16.884 10.3117 16.7863C9.71457 16.2014 9.3051 15.4518 9.13554 14.6333C8.96598 13.8147 9.044 12.9642 9.35966 12.1902C9.67531 11.4161 10.2143 10.7536 10.9079 10.2871C11.6016 9.82052 12.4184 9.57108 13.2543 9.57055C13.4556 9.57049 13.6565 9.58473 13.8557 9.61316C13.9241 9.62303 13.9899 9.64627 14.0493 9.68157C14.1088 9.71687 14.1606 9.76353 14.202 9.81888C14.2434 9.87424 14.2735 9.93721 14.2905 10.0042C14.3076 10.0712 14.3112 10.1409 14.3013 10.2093C14.2923 10.278 14.2695 10.3443 14.2345 10.4042C14.1995 10.4641 14.1528 10.5163 14.0972 10.5579C14.0417 10.5994 13.9784 10.6295 13.9111 10.6462C13.8438 10.663 13.7738 10.6661 13.7052 10.6554C13.0468 10.5614 12.3754 10.6777 11.787 10.9878C11.1986 11.2979 10.7232 11.786 10.4286 12.3823C10.134 12.9787 10.0353 13.6528 10.1466 14.3086C10.2579 14.9644 10.5735 15.5682 11.0483 16.034ZM17.4207 13.1782C17.4492 13.3774 17.4634 13.5783 17.4633 13.7795C17.465 14.3402 17.3537 14.8955 17.1361 15.4122C16.9184 15.9289 16.5988 16.3964 16.1964 16.7869C16.0965 16.8845 15.9619 16.9385 15.8222 16.9369C15.6825 16.9354 15.5491 16.8783 15.4514 16.7784C15.3538 16.6785 15.2998 16.5439 15.3014 16.4042C15.3029 16.2645 15.3599 16.1311 15.4599 16.0334C15.8153 15.687 16.0838 15.2613 16.2433 14.7912C16.4027 14.3211 16.4487 13.8199 16.3774 13.3286C16.3575 13.1904 16.3932 13.05 16.4769 12.9381C16.5605 12.8263 16.6851 12.7522 16.8233 12.7323C16.9615 12.7123 17.102 12.7481 17.2138 12.8317C17.3257 12.9153 17.3997 13.04 17.4197 13.1782H17.4207ZM14.2677 13.5102C14.331 13.7378 14.3171 13.9801 14.2282 14.199C14.1393 14.418 13.9804 14.6014 13.7763 14.7205C13.5722 14.8396 13.3344 14.8878 13.1 14.8575C12.8657 14.8272 12.6479 14.7202 12.4808 14.5531C12.3137 14.386 12.2067 14.1682 12.1764 13.9338C12.1461 13.6995 12.1943 13.4617 12.3134 13.2576C12.4325 13.0535 12.6159 12.8946 12.8348 12.8057C13.0538 12.7168 13.296 12.7029 13.5237 12.7662L15.513 10.7769C15.5615 10.7267 15.6196 10.6866 15.6838 10.659C15.748 10.6315 15.817 10.617 15.8869 10.6163C15.9567 10.6157 16.026 10.6291 16.0907 10.6555C16.1553 10.682 16.2141 10.721 16.2635 10.7704C16.3129 10.8198 16.3519 10.8786 16.3784 10.9432C16.4048 11.0079 16.4181 11.0772 16.4175 11.147C16.4169 11.2169 16.4024 11.2859 16.3748 11.3501C16.3473 11.4143 16.3072 11.4724 16.2569 11.5209L14.2677 13.5102Z" fill="#1463FF"/>
</g>
<defs>
<clipPath id="clip0_167_11745">
<rect width="12.627" height="12.627" fill="white" transform="translate(6.94092 6.93994)"/>
</clipPath>
</defs>
</svg>
