<svg width="46" height="32" viewBox="0 0 46 32" fill="none" xmlns="http://www.w3.org/2000/svg">
<rect x="0.907104" y="0.505859" width="31" height="31" rx="15.5" fill="#8390FA" fill-opacity="0.1"/>
<rect x="0.907104" y="0.505859" width="31" height="31" rx="15.5" stroke="#EDF2F9"/>
<path d="M20.8309 16.495L15.7404 21.5855C15.1819 22.144 14.4245 22.4577 13.6348 22.4577C12.8451 22.4577 12.0877 22.144 11.5293 21.5855C10.9708 21.0271 10.6571 20.2697 10.6571 19.48C10.6571 18.6902 10.9708 17.9329 11.5293 17.3744L18.7683 10.1353C18.9527 9.95104 19.1716 9.80485 19.4125 9.70514C19.6534 9.60543 19.9116 9.55414 20.1723 9.5542C20.433 9.55426 20.6911 9.60567 20.932 9.7055C21.1728 9.80533 21.3916 9.95161 21.576 10.136C21.7603 10.3204 21.9064 10.5393 22.0062 10.7802C22.1059 11.0211 22.1572 11.2792 22.1571 11.54C22.157 11.8007 22.1056 12.0588 22.0058 12.2997C21.906 12.5405 21.7597 12.7593 21.5753 12.9436L14.3309 20.188C14.143 20.3682 13.8918 20.4666 13.6315 20.4633C13.3711 20.46 13.1225 20.3546 12.9392 20.1697C12.7559 19.9848 12.6526 19.7353 12.6515 19.475C12.6504 19.2147 12.7516 18.9643 12.9334 18.7779L18.1013 13.61M14.3369 20.1814L14.3303 20.188" stroke="#1463FF" stroke-width="1.5" stroke-linecap="round" stroke-linejoin="round"/>
</svg>
