<svg width="46" height="32" viewBox="0 0 46 32" fill="none" xmlns="http://www.w3.org/2000/svg">
<rect x="0.779114" y="0.506104" width="31" height="31" rx="15.5" fill="#8390FA" fill-opacity="0.1"/>
<rect x="0.779114" y="0.506104" width="31" height="31" rx="15.5" stroke="#EDF2F9"/>
<path d="M16.2712 10.3811C15.5192 10.3811 14.8502 10.8548 14.6015 11.5653H10.9423V12.7495H12.0969L10.3502 16.8943C10.0719 18.0785 10.9423 18.6706 12.4225 18.6706C13.9028 18.6706 14.8265 18.0785 14.4949 16.8943L12.7482 12.7495H14.5955C14.7909 13.2528 15.1758 13.6377 15.6791 13.8331V20.4469H10.3502V21.6311H22.1923V20.4469H16.8633V13.8272C17.3666 13.6377 17.7515 13.2528 17.9409 12.7495H19.7942L18.0475 16.8943C17.7692 18.0785 18.6396 18.6706 20.1199 18.6706C21.6002 18.6706 22.5238 18.0785 22.1923 16.8943L20.4455 12.7495H21.6002V11.5653H17.9469C17.6923 10.8548 17.0232 10.3811 16.2712 10.3811ZM16.2712 11.5653C16.4282 11.5653 16.5788 11.6277 16.6899 11.7387C16.8009 11.8498 16.8633 12.0004 16.8633 12.1574C16.8633 12.3145 16.8009 12.4651 16.6899 12.5761C16.5788 12.6871 16.4282 12.7495 16.2712 12.7495C16.1142 12.7495 15.9636 12.6871 15.8525 12.5761C15.7415 12.4651 15.6791 12.3145 15.6791 12.1574C15.6791 12.0004 15.7415 11.8498 15.8525 11.7387C15.9636 11.6277 16.1142 11.5653 16.2712 11.5653ZM12.4225 14.6739L13.3107 16.8943H11.5344L12.4225 14.6739ZM20.1199 14.6739L21.008 16.8943H19.2317L20.1199 14.6739Z" fill="#1463FF"/>
</svg>
