<svg width="46" height="33" viewBox="0 0 46 33" fill="none" xmlns="http://www.w3.org/2000/svg">
<rect x="0.628052" y="0.945312" width="31" height="31" rx="15.5" fill="#8390FA" fill-opacity="0.1"/>
<rect x="0.628052" y="0.945312" width="31" height="31" rx="15.5" stroke="#EDF2F9"/>
<g clip-path="url(#clip0_160_1602)">
<path d="M13.2114 9.02856H19.0447V10.1952H21.3781V14.8619H20.2114V11.3619H19.0447V12.5286H13.2114V11.3619H12.0447V20.6952H15.5447V21.8619H10.8781V10.1952H13.2114V9.02856ZM14.3781 11.3619H17.8781V10.1952H14.3781V11.3619Z" fill="#1463FF"/>
<path d="M19.6281 16.9037C19.0866 16.9037 18.5673 17.1188 18.1844 17.5017C17.8015 17.8846 17.5864 18.4039 17.5864 18.9454C17.5864 19.4869 17.8015 20.0062 18.1844 20.3891C18.5673 20.772 19.0866 20.9871 19.6281 20.9871C20.1696 20.9871 20.6889 20.772 21.0717 20.3891C21.4546 20.0062 21.6697 19.4869 21.6697 18.9454C21.6697 18.4039 21.4546 17.8846 21.0717 17.5017C20.6889 17.1188 20.1696 16.9037 19.6281 16.9037ZM16.4197 18.9454C16.4197 18.5241 16.5027 18.1069 16.664 17.7176C16.8252 17.3284 17.0615 16.9747 17.3594 16.6768C17.6574 16.3788 18.011 16.1425 18.4003 15.9813C18.7895 15.82 19.2067 15.7371 19.6281 15.7371C20.0494 15.7371 20.4666 15.82 20.8558 15.9813C21.2451 16.1425 21.5988 16.3788 21.8967 16.6768C22.1946 16.9747 22.431 17.3284 22.5922 17.7176C22.7534 18.1069 22.8364 18.5241 22.8364 18.9454C22.8364 19.7963 22.4984 20.6123 21.8967 21.214C21.295 21.8157 20.479 22.1537 19.6281 22.1537C18.7772 22.1537 17.9611 21.8157 17.3594 21.214C16.7578 20.6123 16.4197 19.7963 16.4197 18.9454ZM20.2114 17.6341V18.7039L21.0362 19.5287L20.2114 20.3536L19.0447 19.1869V17.6341H20.2114Z" fill="#1463FF"/>
</g>
<defs>
<clipPath id="clip0_160_1602">
<rect width="14" height="14" fill="white" transform="translate(9.12805 8.44531)"/>
</clipPath>
</defs>
</svg>
