<svg width="46" height="33" viewBox="0 0 46 33" fill="none" xmlns="http://www.w3.org/2000/svg">
<rect x="0.500061" y="0.945557" width="31" height="31" rx="15.5" fill="#8390FA" fill-opacity="0.1"/>
<rect x="0.500061" y="0.945557" width="31" height="31" rx="15.5" stroke="#EDF2F9"/>
<path d="M19.4501 19.3206V20.4706C19.4501 20.6231 19.5106 20.7693 19.6185 20.8771C19.7263 20.985 19.8726 21.0456 20.0251 21.0456C20.1776 21.0456 20.3238 20.985 20.4316 20.8771C20.5395 20.7693 20.6001 20.6231 20.6001 20.4706V11.8456H12.5501V18.1706H11.4001V11.2706C11.4001 11.1181 11.4606 10.9718 11.5685 10.864C11.6763 10.7561 11.8226 10.6956 11.9751 10.6956H21.1751C21.3276 10.6956 21.4738 10.7561 21.5816 10.864C21.6895 10.9718 21.7501 11.1181 21.7501 11.2706V20.4706C21.7501 20.9281 21.5683 21.3668 21.2448 21.6903C20.9213 22.0138 20.4826 22.1956 20.0251 22.1956H11.9751C11.5176 22.1956 11.0788 22.0138 10.7553 21.6903C10.4318 21.3668 10.2501 20.9281 10.2501 20.4706V19.3206H19.4501Z" fill="#1463FF"/>
</svg>
