<svg width="22" height="21" viewBox="0 0 22 21" fill="none" xmlns="http://www.w3.org/2000/svg">
<path d="M17.4643 4.375H14.764C14.591 4.37504 14.4219 4.42637 14.278 4.52252C14.1342 4.61867 14.022 4.75532 13.9558 4.91518C13.8896 5.07504 13.8723 5.25094 13.906 5.42065C13.9398 5.59036 14.0231 5.74625 14.1454 5.86863L15.0957 6.81888L11.9579 9.95575C11.7912 10.1151 11.5695 10.204 11.3389 10.204C11.1082 10.204 10.8865 10.1151 10.7198 9.95575L10.571 9.80612C10.0711 9.32844 9.40622 9.06187 8.71473 9.06187C8.02325 9.06187 7.35838 9.32844 6.85842 9.80612L2.39592 14.2686C2.23151 14.4335 2.13932 14.6569 2.13965 14.8898C2.13998 15.1227 2.23279 15.3458 2.39767 15.5103C2.56256 15.6747 2.786 15.7669 3.01885 15.7665C3.2517 15.7662 3.47488 15.6734 3.6393 15.5085L8.1018 11.046C8.26841 10.8865 8.49018 10.7974 8.72086 10.7974C8.95154 10.7974 9.17331 10.8865 9.33992 11.046L9.48867 11.1956C9.98884 11.6729 10.6536 11.9392 11.345 11.9392C12.0363 11.9392 12.7011 11.6729 13.2013 11.1956L16.339 8.05788L17.2893 9.00813C17.4121 9.12848 17.5676 9.21 17.7364 9.24249C17.9053 9.27499 18.0799 9.25702 18.2386 9.19084C18.3973 9.12466 18.533 9.0132 18.6287 8.87037C18.7244 8.72754 18.7759 8.55968 18.7768 8.38775V5.6875C18.7768 5.3394 18.6385 5.00556 18.3924 4.75942C18.1462 4.51328 17.8124 4.375 17.4643 4.375Z" fill="#E4E4E4"/>
</svg>
