<svg width="33" height="33" viewBox="0 0 33 33" fill="none" xmlns="http://www.w3.org/2000/svg">
<rect x="1.16705" y="1.16669" width="31" height="31" rx="15.5" fill="#8390FA" fill-opacity="0.1"/>
<rect x="1.16705" y="1.16669" width="31" height="31" rx="15.5" stroke="#EDF2F9"/>
<g clip-path="url(#clip0_158_420)">
<path d="M20.0005 8.66669H13.3338C12.4501 8.66775 11.6029 9.01927 10.978 9.64417C10.3531 10.2691 10.0015 11.1163 10.0005 12V21.3333C10.0015 22.2171 10.3531 23.0643 10.978 23.6892C11.6029 24.3141 12.4501 24.6656 13.3338 24.6667H20.0005C20.8842 24.6656 21.7315 24.3141 22.3563 23.6892C22.9812 23.0643 23.3328 22.2171 23.3338 21.3333V12C23.3328 11.1163 22.9812 10.2691 22.3563 9.64417C21.7315 9.01927 20.8842 8.66775 20.0005 8.66669V8.66669ZM13.3338 10H20.0005C20.5309 10 21.0396 10.2107 21.4147 10.5858C21.7898 10.9609 22.0005 11.4696 22.0005 12V16H11.3338V12C11.3338 11.4696 11.5445 10.9609 11.9196 10.5858C12.2947 10.2107 12.8034 10 13.3338 10ZM20.0005 23.3333H13.3338C12.8034 23.3333 12.2947 23.1226 11.9196 22.7476C11.5445 22.3725 11.3338 21.8638 11.3338 21.3333V17.3334H22.0005V21.3333C22.0005 21.8638 21.7898 22.3725 21.4147 22.7476C21.0396 23.1226 20.5309 23.3333 20.0005 23.3333Z" fill="#1463FF"/>
<path d="M16.0003 13.3334H17.3336C17.5104 13.3334 17.68 13.2631 17.805 13.1381C17.93 13.0131 18.0003 12.8435 18.0003 12.6667C18.0003 12.4899 17.93 12.3203 17.805 12.1953C17.68 12.0703 17.5104 12 17.3336 12H16.0003C15.8235 12 15.6539 12.0703 15.5289 12.1953C15.4039 12.3203 15.3336 12.4899 15.3336 12.6667C15.3336 12.8435 15.4039 13.0131 15.5289 13.1381C15.6539 13.2631 15.8235 13.3334 16.0003 13.3334Z" fill="#1463FF"/>
<path d="M17.3336 20H16.0003C15.8235 20 15.6539 20.0703 15.5289 20.1953C15.4039 20.3203 15.3336 20.4899 15.3336 20.6667C15.3336 20.8435 15.4039 21.0131 15.5289 21.1381C15.6539 21.2631 15.8235 21.3334 16.0003 21.3334H17.3336C17.5104 21.3334 17.68 21.2631 17.805 21.1381C17.93 21.0131 18.0003 20.8435 18.0003 20.6667C18.0003 20.4899 17.93 20.3203 17.805 20.1953C17.68 20.0703 17.5104 20 17.3336 20Z" fill="#1463FF"/>
</g>
<defs>
<clipPath id="clip0_158_420">
<rect width="16" height="16" fill="white" transform="translate(8.66705 8.66669)"/>
</clipPath>
</defs>
</svg>
