<svg width="26" height="26" viewBox="0 0 26 26" fill="none" xmlns="http://www.w3.org/2000/svg">
<rect x="1.00543" y="1.02106" width="24.4647" height="24.4647" rx="12.2324" fill="#8390FA" fill-opacity="0.1"/>
<rect x="1.00543" y="1.02106" width="24.4647" height="24.4647" rx="12.2324" stroke="#EDF2F9" stroke-width="0.789185"/>
<g clip-path="url(#clip0_169_1229)">
<path d="M16.3945 6.93994H11.1333C10.622 6.94061 10.122 7.09026 9.69447 7.37057C9.26689 7.65089 8.93027 8.04973 8.72576 8.51831H7.97656C7.83703 8.51831 7.7032 8.57374 7.60454 8.67241C7.50587 8.77108 7.45044 8.9049 7.45044 9.04444C7.45044 9.18397 7.50587 9.31779 7.60454 9.41646C7.7032 9.51513 7.83703 9.57056 7.97656 9.57056H8.50269V10.6228H7.97656C7.83703 10.6228 7.7032 10.6782 7.60454 10.7769C7.50587 10.8756 7.45044 11.0094 7.45044 11.1489C7.45044 11.2885 7.50587 11.4223 7.60454 11.521C7.7032 11.6196 7.83703 11.6751 7.97656 11.6751H8.50269V12.7273H7.97656C7.83703 12.7273 7.7032 12.7827 7.60454 12.8814C7.50587 12.9801 7.45044 13.1139 7.45044 13.2534C7.45044 13.393 7.50587 13.5268 7.60454 13.6254C7.7032 13.7241 7.83703 13.7795 7.97656 13.7795H8.50269V14.8318H7.97656C7.83703 14.8318 7.7032 14.8872 7.60454 14.9859C7.50587 15.0846 7.45044 15.2184 7.45044 15.3579C7.45044 15.4975 7.50587 15.6313 7.60454 15.7299C7.7032 15.8286 7.83703 15.884 7.97656 15.884H8.50269V16.9363H7.97656C7.83703 16.9363 7.7032 16.9917 7.60454 17.0904C7.50587 17.1891 7.45044 17.3229 7.45044 17.4624C7.45044 17.6019 7.50587 17.7358 7.60454 17.8344C7.7032 17.9331 7.83703 17.9885 7.97656 17.9885H8.72576C8.93027 18.4571 9.26689 18.856 9.69447 19.1363C10.122 19.4166 10.622 19.5662 11.1333 19.5669H16.3945C17.092 19.5661 17.7606 19.2886 18.2537 18.7955C18.7469 18.3023 19.0243 17.6337 19.0252 16.9363V9.57056C19.0243 8.87313 18.7469 8.20451 18.2537 7.71135C17.7606 7.2182 17.092 6.94078 16.3945 6.93994V6.93994ZM17.9729 16.9363C17.9729 17.3549 17.8066 17.7564 17.5106 18.0524C17.2146 18.3484 16.8131 18.5147 16.3945 18.5147H11.1333C10.7147 18.5147 10.3132 18.3484 10.0172 18.0524C9.72123 17.7564 9.55493 17.3549 9.55493 16.9363V9.57056C9.55493 9.15195 9.72123 8.75048 10.0172 8.45448C10.3132 8.15848 10.7147 7.99219 11.1333 7.99219H16.3945C16.8131 7.99219 17.2146 8.15848 17.5106 8.45448C17.8066 8.75048 17.9729 9.15195 17.9729 9.57056V16.9363ZM13.7639 13.2534C14.1825 13.2534 14.584 13.0871 14.88 12.7911C15.176 12.4951 15.3423 12.0937 15.3423 11.6751C15.3423 11.2564 15.176 10.855 14.88 10.559C14.584 10.263 14.1825 10.0967 13.7639 10.0967C13.3453 10.0967 12.9438 10.263 12.6478 10.559C12.3518 10.855 12.1856 11.2564 12.1856 11.6751C12.1856 12.0937 12.3518 12.4951 12.6478 12.7911C12.9438 13.0871 13.3453 13.2534 13.7639 13.2534ZM16.3945 16.4102C16.3945 16.5497 16.3391 16.6835 16.2404 16.7822C16.1418 16.8809 16.008 16.9363 15.8684 16.9363C15.7289 16.9363 15.5951 16.8809 15.4964 16.7822C15.3977 16.6835 15.3423 16.5497 15.3423 16.4102C15.3423 15.9916 15.176 15.5901 14.88 15.2941C14.584 14.9981 14.1825 14.8318 13.7639 14.8318C13.3453 14.8318 12.9438 14.9981 12.6478 15.2941C12.3518 15.5901 12.1856 15.9916 12.1856 16.4102C12.1856 16.5497 12.1301 16.6835 12.0315 16.7822C11.9328 16.8809 11.799 16.9363 11.6594 16.9363C11.5199 16.9363 11.3861 16.8809 11.2874 16.7822C11.1887 16.6835 11.1333 16.5497 11.1333 16.4102C11.2443 12.9335 16.2846 12.9346 16.3945 16.4102Z" fill="#1463FF"/>
</g>
<defs>
<clipPath id="clip0_169_1229">
<rect width="12.627" height="12.627" fill="white" transform="translate(6.92432 6.93994)"/>
</clipPath>
</defs>
</svg>
