<svg width="25" height="24" viewBox="0 0 25 24" fill="none" xmlns="http://www.w3.org/2000/svg">
<g clip-path="url(#clip0_158_726)">
<path d="M16.1661 3.5534L16.1783 2.85351L16.1783 2.85351L16.1661 3.5534ZM18.0746 4.70016L17.4624 5.03953L17.4624 5.03953L18.0746 4.70016ZM8.9103 3.42674L8.89808 4.12664L8.89808 4.12664L8.9103 3.42674ZM3.18647 12.9528L3.7987 12.6134L3.7987 12.6134L3.18647 12.9528ZM6.70467 19.2998L6.09244 19.6392L6.09244 19.6392L6.70467 19.2998ZM8.6132 20.4466L8.60098 21.1464L8.60098 21.1464L8.6132 20.4466ZM15.869 20.5732L15.8568 21.2731L15.869 20.5732ZM17.8164 19.4938L18.4164 19.8543L17.8164 19.4938ZM21.5539 13.2734L20.9539 12.9129L21.5539 13.2734ZM21.5928 11.0472L22.205 10.7078L22.205 10.7078L21.5928 11.0472ZM16.1539 4.2533C16.6992 4.26281 17.198 4.56253 17.4624 5.03953L18.6868 4.3608C18.1799 3.44633 17.2237 2.87176 16.1783 2.85351L16.1539 4.2533ZM8.89808 4.12664L16.1539 4.2533L16.1783 2.85351L8.92251 2.72685L8.89808 4.12664ZM7.56293 4.86672C7.84382 4.39924 8.35278 4.11712 8.89808 4.12664L8.92251 2.72685C7.87712 2.7086 6.9014 3.24945 6.36289 4.14567L7.56293 4.86672ZM3.82535 11.0871L7.56293 4.86672L6.36289 4.14567L2.62531 10.366L3.82535 11.0871ZM3.7987 12.6134C3.5343 12.1364 3.54445 11.5546 3.82535 11.0871L2.62531 10.366C2.08681 11.2622 2.06734 12.3777 2.57423 13.2921L3.7987 12.6134ZM7.31691 18.9604L3.7987 12.6134L2.57423 13.2921L6.09244 19.6392L7.31691 18.9604ZM8.62541 19.7467C8.08011 19.7371 7.58131 19.4374 7.3169 18.9604L6.09244 19.6392C6.59933 20.5536 7.55558 21.1282 8.60098 21.1464L8.62541 19.7467ZM15.8812 19.8733L8.62541 19.7467L8.60098 21.1464L15.8568 21.2731L15.8812 19.8733ZM17.2164 19.1332C16.9355 19.6007 16.4265 19.8828 15.8812 19.8733L15.8568 21.2731C16.9022 21.2914 17.8779 20.7505 18.4164 19.8543L17.2164 19.1332ZM20.9539 12.9129L17.2164 19.1332L18.4164 19.8543L22.154 13.6339L20.9539 12.9129ZM20.9806 11.3866C21.245 11.8636 21.2348 12.4454 20.9539 12.9129L22.154 13.6339C22.6925 12.7377 22.7119 11.6223 22.205 10.7078L20.9806 11.3866ZM17.4624 5.03953L20.9806 11.3866L22.205 10.7078L18.6868 4.3608L17.4624 5.03953ZM14.9016 13.5094C14.068 14.8966 12.2677 15.3455 10.8805 14.512L10.1594 15.712C12.2094 16.9438 14.8698 16.2805 16.1016 14.2305L14.9016 13.5094ZM13.899 9.48836C15.2862 10.3219 15.7351 12.1222 14.9016 13.5094L16.1016 14.2305C17.3334 12.1805 16.67 9.52009 14.6201 8.28832L13.899 9.48836ZM9.87794 10.4909C10.7115 9.10368 12.5118 8.65482 13.899 9.48836L14.6201 8.28832C12.5701 7.05656 9.90967 7.71987 8.6779 9.76986L9.87794 10.4909ZM10.8805 14.512C9.49326 13.6784 9.0444 11.8781 9.87794 10.4909L8.6779 9.76986C7.44614 11.8199 8.10945 14.4802 10.1594 15.712L10.8805 14.512Z" fill="#E4E4E4"/>
</g>
<defs>
<clipPath id="clip0_158_726">
<rect width="24" height="24" fill="white" transform="translate(0.389648)"/>
</clipPath>
</defs>
</svg>
