<svg width="25" height="24" viewBox="0 0 25 24" fill="none" xmlns="http://www.w3.org/2000/svg">
<path d="M20.6396 19.5H7.13965C6.54291 19.5 5.97062 19.2629 5.54866 18.841C5.1267 18.419 4.88965 17.8467 4.88965 17.25V3.75C4.88965 3.55109 4.81063 3.36032 4.66998 3.21967C4.52933 3.07902 4.33856 3 4.13965 3C3.94074 3 3.74997 3.07902 3.60932 3.21967C3.46867 3.36032 3.38965 3.55109 3.38965 3.75V17.25C3.39084 18.2442 3.78631 19.1973 4.48931 19.9003C5.19232 20.6033 6.14545 20.9988 7.13965 21H20.6396C20.8386 21 21.0293 20.921 21.17 20.7803C21.3106 20.6397 21.3896 20.4489 21.3896 20.25C21.3896 20.0511 21.3106 19.8603 21.17 19.7197C21.0293 19.579 20.8386 19.5 20.6396 19.5Z" fill="#E4E4E4"/>
<path d="M7.88983 17.9999C8.08874 17.9999 8.27951 17.9209 8.42016 17.7802C8.56081 17.6396 8.63983 17.4488 8.63983 17.2499V11.9999C8.63983 11.801 8.56081 11.6102 8.42016 11.4696C8.27951 11.3289 8.08874 11.2499 7.88983 11.2499C7.69092 11.2499 7.50015 11.3289 7.3595 11.4696C7.21885 11.6102 7.13983 11.801 7.13983 11.9999V17.2499C7.13983 17.4488 7.21885 17.6396 7.3595 17.7802C7.50015 17.9209 7.69092 17.9999 7.88983 17.9999Z" fill="#E4E4E4"/>
<path d="M10.8895 10.5V17.25C10.8895 17.4489 10.9685 17.6397 11.1091 17.7803C11.2498 17.921 11.4406 18 11.6395 18C11.8384 18 12.0291 17.921 12.1698 17.7803C12.3105 17.6397 12.3895 17.4489 12.3895 17.25V10.5C12.3895 10.3011 12.3105 10.1103 12.1698 9.96967C12.0291 9.82902 11.8384 9.75 11.6395 9.75C11.4406 9.75 11.2498 9.82902 11.1091 9.96967C10.9685 10.1103 10.8895 10.3011 10.8895 10.5Z" fill="#E4E4E4"/>
<path d="M14.6396 12.75V17.25C14.6396 17.4489 14.7187 17.6397 14.8593 17.7803C15 17.921 15.1907 18 15.3897 18C15.5886 18 15.7793 17.921 15.92 17.7803C16.0606 17.6397 16.1397 17.4489 16.1397 17.25V12.75C16.1397 12.5511 16.0606 12.3603 15.92 12.2197C15.7793 12.079 15.5886 12 15.3897 12C15.1907 12 15 12.079 14.8593 12.2197C14.7187 12.3603 14.6396 12.5511 14.6396 12.75Z" fill="#E4E4E4"/>
<path d="M18.3898 9.74991V17.2499C18.3898 17.4488 18.4688 17.6396 18.6095 17.7802C18.7502 17.9209 18.9409 17.9999 19.1398 17.9999C19.3387 17.9999 19.5295 17.9209 19.6702 17.7802C19.8108 17.6396 19.8898 17.4488 19.8898 17.2499V9.74991C19.8898 9.551 19.8108 9.36023 19.6702 9.21958C19.5295 9.07893 19.3387 8.99991 19.1398 8.99991C18.9409 8.99991 18.7502 9.07893 18.6095 9.21958C18.4688 9.36023 18.3898 9.551 18.3898 9.74991Z" fill="#E4E4E4"/>
<path d="M7.88949 9.74994C8.08838 9.7499 8.27912 9.67085 8.41974 9.53019L11.1092 6.84069C11.2522 6.70451 11.4421 6.62855 11.6395 6.62855C11.8369 6.62855 12.0268 6.70451 12.1697 6.84069L13.7987 8.46969C14.2207 8.8915 14.7929 9.12846 15.3895 9.12846C15.9861 9.12846 16.5583 8.8915 16.9802 8.46969L21.1697 4.28019C21.3064 4.13874 21.382 3.94929 21.3802 3.75264C21.3785 3.55599 21.2997 3.36788 21.1606 3.22883C21.0215 3.08977 20.8334 3.01089 20.6368 3.00918C20.4401 3.00747 20.2507 3.08307 20.1092 3.21969L15.9197 7.40844C15.7791 7.54904 15.5884 7.62803 15.3895 7.62803C15.1906 7.62803 14.9999 7.54904 14.8592 7.40844L13.2302 5.78019C12.8083 5.35838 12.2361 5.12142 11.6395 5.12142C11.0429 5.12142 10.4707 5.35838 10.0487 5.78019L7.35924 8.46969C7.25438 8.57458 7.18298 8.7082 7.15405 8.85367C7.12513 8.99913 7.13998 9.14991 7.19673 9.28693C7.25348 9.42395 7.34959 9.54108 7.47289 9.62349C7.5962 9.7059 7.74118 9.74991 7.88949 9.74994Z" fill="#E4E4E4"/>
</svg>
