<svg width="26" height="26" viewBox="0 0 26 26" fill="none" xmlns="http://www.w3.org/2000/svg">
<rect x="0.511414" y="1.02106" width="24.4647" height="24.4647" rx="12.2324" fill="#8390FA" fill-opacity="0.1"/>
<rect x="0.511414" y="1.02106" width="24.4647" height="24.4647" rx="12.2324" stroke="#EDF2F9" stroke-width="0.789185"/>
<g clip-path="url(#clip0_167_11769)">
<path d="M12.7438 12.2012C12.3252 12.2012 11.9237 12.0349 11.6277 11.7389C11.3317 11.4429 11.1654 11.0414 11.1654 10.6228C11.1654 10.2042 11.3317 9.80273 11.6277 9.50673C11.9237 9.21073 12.3252 9.04444 12.7438 9.04444C13.1624 9.04444 13.5639 9.21073 13.8599 9.50673C14.1559 9.80273 14.3221 10.2042 14.3221 10.6228C14.3221 11.0414 14.1559 11.4429 13.8599 11.7389C13.5639 12.0349 13.1624 12.2012 12.7438 12.2012ZM11.1486 14.9628C11.2568 14.6248 11.4695 14.3299 11.7562 14.1206C12.0429 13.9114 12.3886 13.7986 12.7435 13.7986C13.0984 13.7986 13.4442 13.9114 13.7308 14.1206C14.0175 14.3299 14.2303 14.6248 14.3385 14.9628C14.3733 15.098 14.4605 15.2138 14.5808 15.2848C14.7011 15.3557 14.8446 15.376 14.9798 15.3411C15.115 15.3062 15.2308 15.219 15.3018 15.0988C15.3727 14.9785 15.393 14.8349 15.3581 14.6997C14.6683 12.097 10.8176 12.0981 10.13 14.6997C10.111 14.7672 10.1057 14.8377 10.1143 14.9072C10.1229 14.9768 10.1454 15.0439 10.1803 15.1046C10.2152 15.1653 10.2619 15.2185 10.3176 15.2609C10.3734 15.3034 10.437 15.3343 10.5049 15.3518C10.5727 15.3693 10.6433 15.3731 10.7127 15.363C10.782 15.3528 10.8486 15.3289 10.9085 15.2927C10.9685 15.2564 11.0206 15.2086 11.0618 15.152C11.103 15.0953 11.1325 15.031 11.1486 14.9628ZM12.7485 19.3907C12.4889 19.3908 12.2384 19.2955 12.0446 19.1229L10.0727 17.4624H8.53479C7.97665 17.4624 7.44136 17.2407 7.04669 16.846C6.65202 16.4513 6.4303 15.9161 6.4303 15.3579V9.04444C6.4303 8.48629 6.65202 7.951 7.04669 7.55633C7.44136 7.16166 7.97665 6.93994 8.53479 6.93994H16.9528C17.5109 6.93994 18.0462 7.16166 18.4409 7.55633C18.8355 7.951 19.0573 8.48629 19.0573 9.04444V15.3579C19.0573 15.9161 18.8355 16.4513 18.4409 16.846C18.0462 17.2407 17.5109 17.4624 16.9528 17.4624H15.4517L13.4277 19.1355C13.2402 19.3009 12.9985 19.3917 12.7485 19.3907ZM8.53479 7.99219C8.25572 7.99219 7.98808 8.10305 7.79074 8.30038C7.59341 8.49772 7.48254 8.76536 7.48254 9.04444V15.3579C7.48254 15.637 7.59341 15.9046 7.79074 16.102C7.98808 16.2993 8.25572 16.4102 8.53479 16.4102H10.2652C10.3892 16.4102 10.5092 16.454 10.604 16.5338L12.7327 18.3279L14.9277 16.5306C15.022 16.4527 15.1405 16.4101 15.2629 16.4102H16.9528C17.2318 16.4102 17.4995 16.2993 17.6968 16.102C17.8942 15.9046 18.005 15.637 18.005 15.3579V9.04444C18.005 8.76536 17.8942 8.49772 17.6968 8.30038C17.4995 8.10305 17.2318 7.99219 16.9528 7.99219H8.53479Z" fill="#1463FF"/>
</g>
<defs>
<clipPath id="clip0_167_11769">
<rect width="12.627" height="12.627" fill="white" transform="translate(6.4303 6.93994)"/>
</clipPath>
</defs>
</svg>
