<svg width="46" height="32" viewBox="0 0 46 32" fill="none" xmlns="http://www.w3.org/2000/svg">
<rect x="0.755981" y="0.505859" width="31" height="31" rx="15.5" fill="#8390FA" fill-opacity="0.1"/>
<rect x="0.755981" y="0.505859" width="31" height="31" rx="15.5" stroke="#EDF2F9"/>
<g clip-path="url(#clip0_160_1632)">
<path d="M16.1846 10.0059L22.6131 12.5773V13.4344H21.756C21.756 13.5505 21.7102 13.6509 21.6187 13.7358C21.5272 13.8206 21.4189 13.863 21.2939 13.863H11.0752C10.9502 13.863 10.8419 13.8206 10.7504 13.7358C10.6589 13.6509 10.6131 13.5505 10.6131 13.4344H9.75598V12.5773L16.1846 10.0059ZM11.4703 14.2916H13.1846V19.4344H14.0417V14.2916H15.756V19.4344H16.6131V14.2916H18.3274V19.4344H19.1846V14.2916H20.8988V19.4344H21.2939C21.4189 19.4344 21.5272 19.4768 21.6187 19.5617C21.7102 19.6465 21.756 19.7469 21.756 19.863V20.2916H10.6131V19.863C10.6131 19.7469 10.6589 19.6465 10.7504 19.5617C10.8419 19.4768 10.9502 19.4344 11.0752 19.4344H11.4703V14.2916ZM22.1511 20.7201C22.2761 20.7201 22.3843 20.7626 22.4758 20.8474C22.5674 20.9322 22.6131 21.0326 22.6131 21.1487V22.0059H9.75598V21.1487C9.75598 21.0326 9.80174 20.9322 9.89326 20.8474C9.98478 20.7626 10.093 20.7201 10.218 20.7201H22.1511Z" fill="#1463FF"/>
</g>
<defs>
<clipPath id="clip0_160_1632">
<rect width="12.8571" height="12" fill="white" transform="translate(9.75598 10.0059)"/>
</clipPath>
</defs>
</svg>
