<svg width="26" height="26" viewBox="0 0 26 26" fill="none" xmlns="http://www.w3.org/2000/svg">
<rect x="0.450148" y="0.545729" width="24.6926" height="24.6926" rx="12.3463" fill="#8390FA" fill-opacity="0.1"/>
<rect x="0.450148" y="0.545729" width="24.6926" height="24.6926" rx="12.3463" stroke="#EDF2F9" stroke-width="0.796537"/>
<path d="M9.07749 17.0741C8.82193 17.0741 8.60324 16.9832 8.42141 16.8013C8.23957 16.6195 8.1485 16.4007 8.14819 16.1448V13.8216C8.14819 13.566 8.23926 13.3473 8.42141 13.1655C8.60355 12.9836 8.82224 12.8926 9.07749 12.8923H11.4007C11.4007 13.2795 11.5362 13.6086 11.8073 13.8796C12.0783 14.1507 12.4075 14.2862 12.7947 14.2862C13.1819 14.2862 13.511 14.1507 13.782 13.8796C14.0531 13.6086 14.1886 13.2795 14.1886 12.8923H16.5118C16.7674 12.8923 16.9862 12.9833 17.1684 13.1655C17.3505 13.3476 17.4414 13.5663 17.4411 13.8216V16.1448C17.4411 16.4003 17.3502 16.6192 17.1684 16.8013C16.9865 16.9835 16.7677 17.0744 16.5118 17.0741H9.07749ZM15.3967 12.3347L14.7462 11.6842L16.3957 10.0347L17.0462 10.6852L15.3967 12.3347ZM10.1926 12.3347L8.54314 10.6852L9.19365 10.0347L10.8431 11.6842L10.1926 12.3347ZM12.33 11.0337V8.71045H13.2593V11.0337H12.33Z" fill="#1463FF"/>
</svg>
