<svg width="316" height="365" viewBox="0 0 316 365" fill="none" xmlns="http://www.w3.org/2000/svg">
<path fill-rule="evenodd" clip-rule="evenodd" d="M7.42048 321.668C7.42048 321.668 -2.81799 331.787 10.6383 337.163C24.0945 342.539 91.9609 360.564 139.643 359.931C187.325 359.299 274.206 342.223 289.71 335.898C305.213 329.574 321.01 318.189 309.894 313.446C298.778 308.703 257.531 303.959 251.681 297.002C245.83 290.045 231.497 279.61 221.551 278.978C211.605 278.345 196.978 271.704 189.373 258.107C181.767 244.509 176.501 244.825 172.991 244.825C169.481 244.825 140.228 229.963 123.261 256.842C106.295 283.721 76.0569 280.1 46.6192 302.378C18.1067 314.817 7.12795 321.984 7.42048 321.668Z" fill="#F1EFF0" stroke="black" stroke-width="0.851553"/>
<g filter="url(#filter0_f_38_422)">
<path fill-rule="evenodd" clip-rule="evenodd" d="M111.14 269.356C111.14 269.356 125.766 266.826 128.984 260.818C132.202 254.809 135.42 250.066 136.005 254.493C136.59 258.92 137.175 265.877 140.393 263.031C143.611 260.185 146.536 271.885 148.583 272.202C150.631 272.518 164.672 262.715 166.72 266.193C168.768 269.672 178.129 265.561 179.299 268.407C180.469 271.253 179.884 263.98 179.591 261.766C179.299 259.553 183.394 258.604 184.272 259.869C185.149 261.134 185.734 253.544 187.782 255.442C189.83 257.339 201.861 274.234 201.861 274.234C201.861 274.234 211.184 276.313 213.817 277.577C216.45 278.842 231.076 281.688 235.464 285.483C239.852 289.278 269.778 301.376 312.984 317.422C305.29 349.911 198.849 353.388 150.994 359.616C119.31 360.242 8.48516 347.992 3.07783 328.987C0.0725311 322.899 85.105 283.269 85.105 283.269C85.105 283.269 101.236 276.124 104.585 274.957C108.342 273.647 111.14 269.039 111.14 269.356Z" fill="#90945F"/>
</g>
<path d="M7.79499 322.776C7.79499 322.776 -2.44348 332.895 11.0128 338.271C24.4691 343.647 92.3354 361.672 140.017 361.039C187.699 360.407 274.58 343.331 290.084 337.006C305.588 330.682 321.384 319.298 310.268 314.554C299.152 309.811 257.906 305.067 252.055 298.111C246.205 291.154 231.871 280.718 221.925 280.086C211.979 279.453 197.353 272.813 189.747 259.215C182.141 245.617 176.876 245.933 173.366 245.933C169.855 245.933 140.602 231.071 123.636 257.95C106.669 284.829 76.4314 281.208 46.9937 303.486C18.4812 315.925 7.50246 323.092 7.79499 322.776Z" stroke="black" stroke-width="1.19217"/>
<path fill-rule="evenodd" clip-rule="evenodd" d="M211.628 314.548C209.167 310.8 205.247 308.112 202.726 305.287C200.764 303.089 197.636 302.079 195.731 299.944C194.324 298.368 193.704 296.961 192.233 295.314C190.793 293.7 189.857 290.577 188.736 288.902C187.552 287.134 187.177 283.729 189.054 283.203C190.719 282.736 188.912 279.679 188.418 278.572C187.626 276.798 186.51 277.335 186.51 274.298C186.51 273.585 186.356 272.852 186.51 272.161C186.912 270.361 188.366 275.322 189.69 276.435C191.163 277.673 192.518 278.854 193.187 280.353C193.957 282.078 195.429 283.95 196.049 285.34C196.934 287.324 197.527 289.112 197.957 291.039C198.278 292.48 200.161 293.484 200.818 294.957C201.502 296.491 203.212 297.584 204.316 299.232C206.134 301.949 206.892 302.475 208.767 304.575C209.933 305.881 211.278 306.904 212.582 307.781C214.127 308.819 214.671 309.841 216.08 310.63C217.73 311.555 218.48 312.251 219.577 313.48C220.888 314.948 221.892 315.361 223.392 317.042C225.538 319.445 226.43 321.673 223.71 321.673C220.989 321.673 207.717 316.301 211.628 314.548Z" fill="#666C48"/>
<g opacity="0.679245" filter="url(#filter1_f_38_422)">
<path fill-rule="evenodd" clip-rule="evenodd" d="M125.198 314.991C111.514 315.03 82.9151 330.886 65.7856 339.568C62.0657 341.454 58.8847 342.448 56.1702 342.803L55.9947 333.454C48.1538 328.748 43.5214 328.987 40.7643 330.968C40.7565 330.963 40.7372 330.973 40.7293 330.968C36.478 334.052 36.7638 342.436 36.7638 345.166C49.8077 348.592 66.8356 351.707 78.3665 352.882C78.3665 352.882 92.9334 347.581 112.249 338.937C125.413 333.046 133.464 336.616 137.27 339.489C127.727 340.216 120.461 341.344 120.461 341.344C121.199 341.344 125.597 354.649 128.55 359.015C148.897 359.426 170.434 357.443 181.236 355.562C182.349 354.148 187.163 352.219 190.471 345.959C192.548 342.03 186.918 338.383 181.593 335.939C185.521 335.693 190.398 336.416 196.297 339.055C215.612 347.699 226.744 349.724 226.744 349.724C245.095 345.935 252.313 347.773 274.063 340.364C274.063 344.186 272.361 334.544 267.711 331.521C267.749 331.337 267.816 331.047 267.816 331.047C267.715 331.107 267.618 331.226 267.535 331.363C264.174 329.284 259.322 328.982 252.48 333.927L251.673 342.843C249.113 342.417 246.171 341.416 242.76 339.687C220.834 328.574 180.084 305.748 175.907 319.331C172.354 330.887 169.995 338.021 169.24 340.278C160.357 338.509 148.724 338.706 139.025 339.371C138.059 336.473 135.903 329.908 132.603 319.173C131.689 316.202 129.03 314.981 125.198 314.991Z" fill="#391809"/>
<path fill-rule="evenodd" clip-rule="evenodd" d="M125.198 314.991C111.514 315.03 82.9151 330.886 65.7856 339.568C62.0657 341.454 58.8847 342.448 56.1702 342.803L55.9947 333.454C48.1538 328.748 43.5214 328.987 40.7643 330.968C40.7565 330.963 40.7372 330.973 40.7293 330.968C36.478 334.052 36.7638 342.436 36.7638 345.166C49.8077 348.592 66.8356 351.707 78.3665 352.882C78.3665 352.882 92.9334 347.581 112.249 338.937C125.413 333.046 133.464 336.616 137.27 339.489C127.727 340.216 120.461 341.344 120.461 341.344C121.199 341.344 125.597 354.649 128.55 359.015C148.897 359.426 170.434 357.443 181.236 355.562C182.349 354.148 187.163 352.219 190.471 345.959C192.548 342.03 186.918 338.383 181.593 335.939C185.521 335.693 190.398 336.416 196.297 339.055C215.612 347.699 226.744 349.724 226.744 349.724C245.095 345.935 252.313 347.773 274.063 340.364C274.063 344.186 272.361 334.544 267.711 331.521C267.749 331.337 267.816 331.047 267.816 331.047C267.715 331.107 267.618 331.226 267.535 331.363C264.174 329.284 259.322 328.982 252.48 333.927L251.673 342.843C249.113 342.417 246.171 341.416 242.76 339.687C220.834 328.574 180.084 305.748 175.907 319.331C172.354 330.887 169.995 338.021 169.24 340.278C160.357 338.509 148.724 338.706 139.025 339.371C138.059 336.473 135.903 329.908 132.603 319.173C131.689 316.202 129.03 314.981 125.198 314.991Z" stroke="black" stroke-width="0.875442"/>
</g>
<path fill-rule="evenodd" clip-rule="evenodd" d="M142.952 340.907C143.045 340.567 142.952 340.195 142.952 339.839C142.952 334.235 146.071 324.367 147.721 318.823C149.522 312.768 154.08 306.124 154.08 299.588C154.08 297.29 155.034 294.485 155.034 291.752C155.034 289.927 156.904 289.3 158.213 287.833C160.277 285.521 161.393 290.773 161.393 291.752C161.393 295.537 162.346 298.895 162.346 302.438C162.346 304.438 167.434 299.671 167.434 296.382C167.434 291.941 164.439 290.798 163.618 287.121C162.927 284.025 164.24 281.778 166.798 281.778C170.187 281.778 171.885 284.083 171.885 287.477C171.885 289.632 171.567 291.493 171.567 293.533C171.567 299.983 176.972 285.043 176.972 281.066C176.972 278.906 176.654 277.177 176.654 275.01C176.654 268.716 180.152 277.233 180.152 279.997C180.152 283.91 180.028 287.318 179.198 291.039C178.749 293.051 178.562 295.077 178.562 297.451C178.562 298.797 179.823 302.022 180.152 303.862C181.033 308.799 180.806 313.982 182.377 318.823C183.07 320.956 183.734 322.932 184.603 324.878C186.237 328.541 187.464 330.528 187.464 335.208C187.464 338.662 188.041 340.907 184.603 340.907C178.138 340.907 171.673 340.907 165.208 340.907C160.015 340.907 154.822 340.907 149.629 340.907C147.403 340.907 145.177 340.907 142.952 340.907Z" fill="#59614E"/>
<path fill-rule="evenodd" clip-rule="evenodd" d="M96.5488 319.552C99.01 315.803 102.93 313.115 105.451 310.29C107.414 308.092 110.541 307.082 112.446 304.947C113.853 303.372 114.473 301.964 115.944 300.317C117.384 298.703 118.32 295.58 119.441 293.905C120.625 292.137 121.001 288.732 119.123 288.206C117.458 287.74 119.265 284.683 119.759 283.575C120.551 281.801 121.667 282.339 121.667 279.301C121.667 278.589 121.821 277.855 121.667 277.164C121.265 275.364 119.812 280.325 118.487 281.438C117.014 282.676 115.659 283.858 114.99 285.356C114.22 287.081 112.749 288.953 112.128 290.343C111.243 292.327 110.651 294.116 110.221 296.042C109.899 297.484 108.016 298.488 107.359 299.961C106.675 301.494 104.965 302.587 103.862 304.235C102.043 306.952 101.285 307.478 99.4103 309.578C98.2442 310.884 96.8988 311.908 95.5949 312.784C94.0504 313.822 93.5057 314.845 92.0975 315.634C90.4473 316.558 89.6974 317.254 88.6001 318.483C87.2896 319.951 86.2852 320.364 84.7847 322.045C82.6392 324.449 81.7472 326.676 84.4668 326.676C87.1883 326.676 100.46 321.304 96.5488 319.552Z" fill="#666C48"/>
<path d="M269.273 116.208C269.273 124.587 265.265 131.379 260.321 131.379C255.377 131.379 251.37 124.587 251.37 116.208C251.37 107.83 255.377 101.038 260.321 101.038C265.265 101.038 269.273 107.83 269.273 116.208Z" fill="url(#paint0_radial_38_422)"/>
<path fill-rule="evenodd" clip-rule="evenodd" d="M48.1586 268.024L47.7894 281.557C47.7894 281.557 45.2135 280.163 41.8832 284.831C38.643 289.374 36.0029 286.867 33.393 285.705C30.8389 284.566 27.6714 288.324 27.6714 287.451C27.6714 286.578 27.6714 275.227 27.6714 275.227L48.1586 268.024Z" fill="#112B00" stroke="black" stroke-width="0.350177"/>
<path fill-rule="evenodd" clip-rule="evenodd" d="M14.1985 278.283L17.3361 316.701L28.964 312.335L28.2257 277.192L14.1985 278.283Z" fill="#1F1108" stroke="black" stroke-width="0.175088"/>
<g filter="url(#filter2_f_38_422)">
<path fill-rule="evenodd" clip-rule="evenodd" d="M144.007 241.509C142.852 242.969 142.098 243.91 139.869 245.163C138.32 246.033 136.02 249.82 134.548 251.474C132.407 253.88 132.479 255.314 132.479 257.786C132.479 261.383 138.274 257.716 136.617 261.44C135.629 263.662 134.112 264.182 137.208 264.761C139.302 265.154 140.793 263.26 142.234 262.104C142.955 261.525 142.449 264.127 142.234 265.094C140.625 272.323 148.837 261.991 149.623 261.107C151.035 259.521 151.988 259.032 151.988 261.772C151.988 263.948 151.891 265.643 151.101 267.419C150.481 268.814 150.214 270.852 150.214 272.402C150.214 276.25 155.822 268.121 154.944 272.07C154.528 273.938 157.291 269.432 157.9 268.748C159.184 267.305 160.903 269.133 161.447 269.744C162.597 271.037 163.367 270.908 164.403 269.744C165.495 268.517 166.444 267.45 167.359 266.422C168.654 264.967 168.787 266.865 169.132 268.416C169.4 269.617 171.25 270.602 172.088 271.073C173.298 271.753 176.982 274.32 177.704 271.073C177.985 269.814 176.828 268.131 176.522 266.755C175.731 263.2 178.446 264.514 180.66 265.758C181.726 266.357 183.875 266.09 185.39 266.09C186.855 266.09 184.948 262.604 183.912 261.44C182.439 259.785 181.774 259.469 181.252 257.121C181.157 256.697 185.56 256.789 185.981 256.789C188.336 256.789 185.521 254.758 185.094 253.799C184.037 251.424 183.284 249.949 181.547 248.484C180.601 247.687 179.908 245.2 178.591 244.83C167.01 245.476 155.693 241.776 144.007 241.509Z" fill="#C9DDE8"/>
</g>
<g filter="url(#filter3_f_38_422)">
<path fill-rule="evenodd" clip-rule="evenodd" d="M10.0718 323.56C11.5754 330.149 19.2242 339.513 42.3873 334.297C65.5504 329.082 90.7761 303.862 97.32 296.495C95.8163 289.907 71.7732 293.654 48.96 300.814C30.6251 306.569 15.6281 313.219 11.1857 319.547" fill="#111D08"/>
</g>
<g filter="url(#filter4_f_38_422)">
<path fill-rule="evenodd" clip-rule="evenodd" d="M306.881 328.162C305.295 335.559 285.218 341.749 275.92 340.833C251.073 338.385 221.738 306.05 214.834 297.78C216.42 290.384 241.786 294.59 265.854 302.628C285.197 309.088 301.019 316.553 305.706 323.657" fill="#111D08"/>
</g>
<path fill-rule="evenodd" clip-rule="evenodd" d="M78.9493 222.19C77.9722 222.453 77.0235 222.891 76.1837 223.543C75.2604 224.547 74.2454 225.468 73.5328 226.706C72.5052 228.354 71.4818 230.006 70.5428 231.727C69.5984 233.4 68.6716 235.086 67.6839 236.725C67.0674 237.796 66.5437 238.939 65.9888 240.055C65.4454 241.194 64.8987 242.336 64.5427 243.578C64.1757 244.67 64.0144 245.844 63.9941 247.016C63.8533 249.273 63.7918 251.535 63.7015 253.795C63.6029 255.386 63.5808 256.981 63.5954 258.576C63.5736 259.861 63.7324 261.14 63.6908 262.426C63.7171 263.805 63.6259 265.19 63.7624 266.563C63.8306 267.824 64.0315 269.065 64.1994 270.311C64.3496 271.667 64.6003 273.001 64.8046 274.345C64.9971 275.703 65.2465 277.052 65.3346 278.428C65.5263 280.719 65.6472 283.017 65.7888 285.312C65.7197 288.099 65.4278 290.87 65.2096 293.644C65.0461 295.637 64.8133 297.623 64.7494 299.625C64.7628 300.935 64.3648 302.392 65.0019 303.578C65.597 304.755 66.84 304.91 67.8868 304.974C69.5084 305.287 71.1563 305.225 72.7925 305.306C74.3786 305.293 75.9676 305.151 77.552 305.31C80.1163 305.516 82.6808 305.716 85.2485 305.853C86.3333 305.886 87.4135 306.04 88.4986 306.026C89.2456 306.083 89.8619 305.615 90.4567 305.162C90.8238 305.068 91.3409 305.099 91.3786 304.485C91.4787 304.056 91.6522 303.731 91.6965 303.32C92.3023 302.37 93.1215 301.642 94.0246 301.112C94.6303 300.779 95.112 300.209 95.3204 299.447C95.8511 299.092 95.275 298.284 95.7655 297.906C96.3222 297.446 97.0791 296.806 96.7827 295.876C96.6236 294.845 95.6738 294.336 94.896 294.115C93.9389 293.865 92.9695 293.691 91.988 293.678C90.9314 293.548 89.8682 293.711 88.8087 293.649C87.65 293.593 86.4848 293.593 85.3388 293.357C84.2739 293.272 83.272 292.822 82.2664 292.434C81.1615 291.98 80.1321 291.311 79.1082 290.65C78.3301 290.085 77.5833 289.393 77.1323 288.434C76.5788 287.499 76.177 286.459 75.9122 285.363C75.5759 284.182 75.7392 282.914 75.9482 281.725C76.2873 280.461 76.4395 279.144 76.7476 277.868C77.8392 272.923 78.8888 267.965 79.9976 263.025C80.4727 260.851 80.9003 258.662 81.2123 256.447C81.5169 254.473 81.8185 252.499 82.0428 250.511C82.2259 248.931 82.4579 247.359 82.6074 245.775C82.8216 243.15 83.022 240.524 83.1202 237.889C83.1982 236.328 83.2438 234.766 83.3043 233.205C83.2663 231.407 83.1974 229.607 82.9553 227.829C82.7938 226.603 82.726 225.3 82.1649 224.215C81.6426 223.095 80.6596 222.255 79.566 222.169C79.3616 222.125 79.1526 222.156 78.9493 222.19Z" fill="#422511" stroke="black" stroke-width="0.0875442"/>
<path fill-rule="evenodd" clip-rule="evenodd" d="M189.723 47.995C189.723 47.995 196.368 47.3402 199.874 53.4521C203.381 59.564 206.15 58.036 207.995 67.2039C209.841 76.3717 218.701 107.586 218.516 109.769C218.331 111.952 233.835 106.495 235.865 104.094C237.896 101.693 245.832 88.159 248.232 88.5955C250.631 89.0321 252.661 86.4127 252.661 86.4127C252.661 86.4127 250.18 77.2907 248.878 76.59C247.498 75.848 244.078 79.3342 242.325 78.9911C240.573 78.648 240.16 76.3015 238.449 76.3717C237.384 75.2413 235.312 72.4426 235.312 71.5695C235.312 71.133 234.377 68.8205 233.887 68.2509C233.466 68.5545 233.351 68.8547 232.543 69.1684C231.842 69.441 231.06 68.4048 231.62 62.62C231.771 61.0685 228.852 60.0006 229.405 57.5994C228.852 54.1069 229.083 48.4862 229.083 48.4862L235.127 46.4671L255.061 58.4726L267.242 69.605L274.44 82.4836L272.226 113.698L249.154 126.577C249.154 126.577 245.278 121.338 245.832 119.81C246.386 118.282 246.94 115.444 246.94 115.444C246.94 115.444 217.962 136.181 215.009 130.942C212.056 125.704 206.888 81.3922 203.75 78.118C200.613 74.8438 200.244 68.2953 200.244 68.2953L197.29 64.3662L198.767 63.4931L195.998 62.4017L194.707 59.7823L193.415 57.5994L193.045 55.6349L191.2 53.8886L190.646 51.4875L189.723 47.995Z" fill="#784421" stroke="black" stroke-width="0.175088"/>
<path fill-rule="evenodd" clip-rule="evenodd" d="M267.204 82.6754C269.948 84.0572 256.621 96.5781 270.848 111.456C271.917 112.574 264.715 112.722 262.764 113.586C259.014 109.214 260.827 83.8879 267.204 82.6754Z" fill="#573118"/>
<path fill-rule="evenodd" clip-rule="evenodd" d="M74.9755 42.1843C73.766 42.3026 72.558 42.4405 71.3516 42.5978C70.2956 42.6471 69.2689 42.9608 68.2363 43.1993C67.1555 43.5502 66.0747 43.9011 64.9939 44.252C63.924 44.6425 62.8647 45.0694 61.815 45.5302C60.8346 45.8814 59.9394 46.4808 59.0176 46.9965C58.0901 47.6356 57.243 48.4073 56.4482 49.258C55.7143 50.1966 55.4356 51.5368 54.6005 52.3843C53.8526 53.324 53.1793 54.3413 52.4468 55.2976C51.1725 57.0116 49.9102 58.7381 48.6269 60.4426C47.8175 61.4988 47.0049 62.5522 46.1707 63.581C45.3819 64.5152 44.593 65.4502 43.7801 66.355C41.8722 68.3963 39.9684 70.4429 38.0375 72.4538C36.0665 74.5322 34.0804 76.5909 32.1244 78.6891C31.1317 79.808 30.171 80.9654 29.1999 82.1103C28.4454 83.1386 27.6777 84.1557 26.9596 85.2197C26.2906 86.2687 25.6454 87.3421 25.0739 88.4691C24.5374 89.6234 24.0131 90.7866 23.5276 91.9721C23.0714 93.1021 22.6605 94.2553 22.27 95.419C21.888 96.6844 21.4926 97.9443 21.1256 99.216C20.7277 100.901 20.3143 102.58 19.8858 104.254C19.6416 105.487 19.694 106.754 19.72 108.007C19.688 109.29 19.5747 110.568 19.5044 111.848C19.4255 113.175 19.3037 114.499 19.2501 115.827C19.2327 117.108 19.3303 118.387 19.4331 119.66C19.5205 120.452 19.6077 121.244 19.6951 122.036C20.6926 121.903 21.6846 122.201 22.6832 122.187C23.7428 122.214 24.8025 122.347 25.8621 122.262C27.6846 122.174 29.5072 122.086 31.3297 121.999C32.6422 121.841 33.9561 121.703 35.2715 121.585C39.4782 121.084 43.6849 120.583 47.8916 120.081C49.0454 119.972 50.2004 119.885 51.3565 119.818C52.3854 119.699 53.4209 119.756 54.4521 119.669C55.3854 119.557 56.3533 119.604 57.2406 119.19C58.144 118.703 59.0279 118.168 59.9091 117.626C60.8882 117.026 61.8988 116.5 62.8728 115.889C63.6979 115.426 64.5697 115.045 65.4634 114.82C66.3168 114.691 67.2149 114.884 67.965 115.391C68.8755 116.032 69.8272 116.586 70.7304 117.244C71.7646 117.913 72.8787 118.381 73.9628 118.922C74.9565 119.382 75.9213 119.931 76.9335 120.334C78.1714 120.847 79.4186 121.33 80.6721 121.787C82.1147 122.295 83.5512 122.827 84.9976 123.319C86.8768 123.927 88.7485 124.569 90.6039 125.272C91.678 125.672 92.7521 126.072 93.8262 126.473C94.6111 126.671 95.5594 127.011 96.2421 126.322C97.1083 125.726 97.718 124.743 98.5309 124.066C98.7557 123.863 99.0161 123.668 99.1985 123.427C99.1443 123.283 98.9739 123.367 99.0395 123.164L99.0713 123.014C98.9156 122.831 98.9732 122.508 98.9273 122.268C98.8211 121.081 98.9676 119.892 99.0798 118.713C99.1767 117.534 99.4065 116.377 99.661 115.234C100.111 113.253 100.561 111.272 101.01 109.292C101.566 107.242 102.106 105.187 102.632 103.126C104.274 97.2486 105.916 91.3712 107.559 85.4938C108.226 82.6867 108.894 79.8797 109.561 77.0726C109.826 75.5401 110.013 73.991 110.229 72.4483C110.464 71.2925 110.76 70.1426 111.274 69.1127C111.714 68.0389 112.29 67.057 112.836 66.0572C113.419 65.0429 114.056 64.0694 114.584 63.012C114.973 62.2185 115.185 61.1692 114.743 60.3427C114.189 60.7866 113.608 61.3574 112.899 61.3202C112.456 61.1788 112.39 60.4633 112.581 60.042C112.822 58.9291 113.299 57.8644 114.044 57.1095C114.891 56.2073 115.739 55.305 116.587 54.4027C117.332 53.5268 118.093 52.6632 118.717 51.6582C119.181 50.7401 119.721 49.8484 119.956 48.801C120.206 47.8153 119.472 46.821 118.663 46.68C118.313 46.4943 117.925 46.6699 117.572 46.5077C116.691 46.9284 116.024 47.7782 115.25 48.4074C114.479 49.1671 113.723 49.9582 113.025 50.8121C112.237 51.836 111.374 52.7828 110.645 53.8665C109.964 54.8301 109.354 55.8559 108.768 56.9006C107.929 58.3096 107.152 59.7671 106.395 61.2385C105.823 62.3793 105.184 63.4749 104.656 64.6442C104.223 65.6905 103.698 66.6968 103.426 67.8241C103.134 69.0451 103.651 70.2753 103.49 71.5085C103.367 72.7715 103.14 74.021 102.764 75.2135C102.416 76.5179 102.004 77.7957 101.596 79.0745C101.187 80.3251 100.822 81.5961 100.381 82.8313C99.9387 84.1062 99.4741 85.3696 98.9725 86.6135C98.5073 87.7942 98.0447 88.9773 97.523 90.125C96.5342 92.3844 95.5687 94.6578 94.5891 96.9228C94.0475 98.0769 93.4862 99.2175 92.9043 100.344C92.3109 101.497 91.7175 102.65 91.1241 103.803C90.9536 103.863 91.0443 104.269 90.8063 104.216C88.8833 103.514 86.9556 102.828 85.0354 102.115C83.202 101.392 81.3885 100.601 79.5849 99.78C78.0506 98.9493 76.5339 98.0738 75.0073 97.2235C74.1072 96.5906 73.2581 95.8649 72.4007 95.1558C71.6608 94.3409 70.8525 93.5814 70.3026 92.5617C69.7276 91.6191 69.2575 90.5696 68.5224 89.7797C67.206 88.662 65.8866 87.5489 64.5605 86.4474C63.6526 85.7088 62.7439 84.9699 61.8598 84.1921C61.1159 83.4955 60.3521 82.7608 59.8759 81.772C59.3548 80.7066 59.5432 79.2568 60.2672 78.3833C60.9095 77.4555 61.5146 76.4485 62.3242 75.7188C63.1433 75.096 64.1351 74.9477 65.0257 74.5161C65.8821 74.2524 66.7557 74.4699 67.5779 74.7822C68.3941 75.1015 69.2366 75.2801 70.0959 75.3186C70.9697 75.3634 71.8767 75.3287 72.6867 74.892C73.5708 74.5055 74.4294 73.1588 75.0275 72.3276C74.2315 70.4707 75.6419 71.4817 76.5713 70.5054C77.5007 69.5292 78.6874 68.3119 80.4893 65.7637C81.0013 64.3223 81.7296 66.084 82.0326 64.1774C81.9005 63.01 81.7719 61.8115 81.969 60.6435C82.1234 60.1112 82.211 59.5452 82.0961 58.9893C82.1441 58.7678 81.9751 58.423 82.2413 58.3256C82.6158 58.0191 82.8088 57.1363 82.9606 56.6015C83.4569 55.471 84.0974 54.8639 84.5121 53.6884C84.9322 52.5211 84.7505 51.2426 84.8628 49.9871C85.0041 48.4069 85.7293 46.3678 85.879 45.0986C85.9007 44.4516 85.3309 45.3214 85.0219 44.925C84.2044 44.3081 83.4186 43.612 82.4776 43.2746C81.5124 42.9079 80.525 42.6199 79.5213 42.4475C78.2706 42.3008 77.0176 42.0902 75.7577 42.165C75.4969 42.1713 75.2362 42.1778 74.9755 42.1843ZM99.2302 123.69C99.3116 123.809 99.4168 123.896 99.5163 123.991C99.4927 123.788 99.3532 123.553 99.1667 123.54L99.2302 123.69Z" fill="#784421" stroke="black" stroke-width="0.262633"/>
<path fill-rule="evenodd" clip-rule="evenodd" d="M88.5111 117.243C84.8737 121.872 77.0215 121.257 70.9728 115.869C64.9241 110.48 62.9694 102.359 66.6068 97.7295C70.2442 93.1 78.0963 93.7152 84.145 99.1036C88.9287 103.365 91.2919 109.51 89.9819 114.28" fill="url(#paint1_radial_38_422)"/>
<path d="M193.968 56.0715C193.968 56.0715 197.727 57.3294 199.321 58.036C200.797 58.6909 201.536 61.7468 201.536 61.7468" stroke="#A05A2C" stroke-width="0.875442"/>
<path fill-rule="evenodd" clip-rule="evenodd" d="M108.164 80.8403C104.101 98.0322 98.849 111.322 96.4345 110.524C94.0201 109.725 95.3571 95.1414 99.4209 77.9495C103.485 60.7577 108.736 47.4681 111.151 48.2663C113.06 48.8977 112.663 58.2802 110.17 71.4403" fill="url(#paint2_radial_38_422)"/>
<mask id="mask0_38_422" style="mask-type:luminance" maskUnits="userSpaceOnUse" x="99" y="2" width="113" height="272">
<path d="M211.309 134.17C211.309 209.245 181.444 243.39 155.344 273.613C128.247 256.857 98.9611 192.917 99.3794 135.459C99.8577 70.2661 127.157 31.6763 154.617 2.02989C174.812 17.9273 210.582 71.1244 211.309 134.17Z" fill="white"/>
</mask>
<g mask="url(#mask0_38_422)">
<path d="M95.6697 80.0767L204.065 78.7669L95.6697 145.002V80.0767Z" fill="#1EB53A"/>
<path d="M101.23 145.002L215.083 146.64L217.409 85.2809L101.23 145.002Z" fill="#28409A"/>
<path d="M101.23 145.002L204.065 85.2809" stroke="#FCD116" stroke-width="20.0437"/>
<path d="M101.23 145.002L204.065 85.2809" stroke="black" stroke-width="13.7141"/>
<path d="M228.74 2.26443H89.5845V79.0904H228.74V2.26443Z" fill="#FAED0B" stroke="black" stroke-width="1.28427"/>
<path d="M220.747 146.2H89.5845V197.226H220.747V146.2Z" fill="#D91D2C" stroke="black" stroke-width="1.28427"/>
<path d="M226.548 198.099H87.0298V281.972H226.548V198.099Z" fill="#F7F2F6" stroke="black" stroke-width="1.28427"/>
</g>
<mask id="mask1_38_422" style="mask-type:luminance" maskUnits="userSpaceOnUse" x="100" y="0" width="113" height="273">
<path d="M212.652 133.084C212.652 208.16 182.788 242.305 156.687 272.528C129.591 255.771 100.304 191.831 100.723 134.373C101.201 69.1808 128.501 30.591 155.961 0.944626C176.155 16.842 211.925 70.0391 212.652 133.084Z" fill="white"/>
</mask>
<g mask="url(#mask1_38_422)">
<path fill-rule="evenodd" clip-rule="evenodd" d="M149.479 219.789C141.635 236.485 136.421 219.942 136.421 219.942C136.421 219.942 128.484 202.38 119.902 218.21C116.692 223.371 112.361 230.261 107.812 219.136C107.812 219.136 100.522 203.058 92.1052 218.403L92.4888 203.944C101.071 188.114 108.362 204.192 108.362 204.192C112.91 215.317 117.242 208.426 120.451 203.266C129.033 187.435 136.97 204.997 136.97 204.997C136.97 204.997 142.415 221.075 150.028 204.844C158.38 189.479 165.67 205.556 165.67 205.556C170.219 216.682 174.55 209.791 177.76 204.631C186.342 188.8 194.279 206.362 194.279 206.362C194.279 206.362 199.723 222.44 207.568 205.744L207 220.539C199.174 237.384 193.729 221.307 193.729 221.307C193.729 221.307 185.793 203.745 177.21 219.575C174.001 224.735 169.67 231.626 165.121 220.501C165.121 220.501 158.061 203.958 149.479 219.789Z" fill="#27409A"/>
<path fill-rule="evenodd" clip-rule="evenodd" d="M147.468 248.522C156.051 232.692 163.111 249.235 163.111 249.235C167.659 260.36 172.729 253.906 175.938 248.745C184.521 232.915 191.719 250.04 191.719 250.04C191.719 250.04 197.164 266.118 204.989 249.273L205.557 234.477C197.713 251.173 192.268 235.096 192.268 235.096C192.268 235.096 184.332 217.534 175.749 233.364C172.54 238.525 168.208 245.415 163.66 234.29C163.66 234.29 156.369 218.213 148.018 233.578C140.404 249.808 134.959 233.731 134.959 233.731C134.959 233.731 127.023 216.169 118.441 231.999C115.231 237.16 110.9 244.051 106.351 232.925C106.351 232.925 99.0608 216.848 90.4783 232.678L90.0947 247.136C98.5115 231.792 105.802 247.87 105.802 247.87C110.35 258.995 114.682 252.104 117.891 246.944C126.474 231.114 133.487 248.894 133.487 248.894C133.487 248.894 139.624 265.218 147.468 248.522Z" fill="#27409A"/>
<path fill-rule="evenodd" clip-rule="evenodd" d="M145.392 292.207C156.19 292.312 161.081 282.796 161.081 282.796C165.629 293.921 171.622 281.846 174.831 276.686C183.414 260.855 191.35 278.417 191.35 278.417C191.35 278.417 196.795 294.495 204.62 277.649L205.188 262.854C197.344 279.55 191.899 263.472 191.899 263.472C191.899 263.472 175.972 251.2 181.499 259.546C182.192 260.593 176.578 259.533 175.38 261.741C172.171 266.901 167.84 273.792 163.291 262.667C163.291 262.667 156.001 246.589 147.649 261.954C140.035 278.185 134.591 262.107 134.591 262.107C134.591 262.107 126.654 244.546 118.072 260.376C114.862 265.536 110.531 272.427 105.982 261.302C105.982 261.302 98.6919 245.224 90.1094 261.055L89.7258 275.513C98.1426 260.169 105.433 276.247 105.433 276.247C109.982 287.372 114.313 280.481 117.522 275.321C126.105 259.49 134.041 277.052 134.041 277.052C134.041 277.052 147.884 300.06 155.728 283.364" fill="#27409A"/>
</g>
<path d="M191.938 51.2693L197.659 53.8887" stroke="#A05A2C" stroke-width="0.875442"/>
<path d="M212.033 133.31C212.033 208.386 182.169 242.531 156.069 272.754C128.972 255.997 99.6857 192.057 100.104 134.599C100.582 69.4067 127.882 30.8169 155.342 1.1705C175.536 17.0679 211.307 70.265 212.033 133.31Z" stroke="black" stroke-width="1.28427"/>
<path d="M181.978 190.498C183.889 193.723 182.724 195.087 180.302 193.374C180.372 193.298 122.334 146.072 122.349 146.257C120.241 143.714 122.598 142.456 125.87 145.019C125.728 145.071 182.006 190.657 181.978 190.498Z" fill="url(#paint3_linear_38_422)" stroke="black" stroke-width="0.671464"/>
<path d="M130.123 190.047C128.114 193.506 129.339 194.968 131.886 193.131C131.812 193.05 192.837 142.407 192.822 142.606C195.038 139.879 192.559 138.53 189.119 141.278C189.268 141.334 130.095 190.217 130.123 190.047Z" fill="url(#paint4_linear_38_422)" stroke="black" stroke-width="0.712996"/>
<path d="M153.811 150.082V246.852C153.128 247.479 152.667 248.422 152.667 249.484C152.667 250.55 153.124 251.488 153.811 252.115V256.589L150.298 256.552L153.032 261.251L155.766 265.95L158.659 261.289L161.583 256.589H157.88V251.927C158.456 251.306 158.834 250.446 158.834 249.484C158.834 248.522 158.455 247.662 157.88 247.04V150.082H153.811Z" fill="url(#paint5_linear_38_422)" stroke="black" stroke-width="0.689687"/>
<path fill-rule="evenodd" clip-rule="evenodd" d="M126.601 145.131C126.601 145.131 118.849 157.245 107.775 161.72C105.375 163.903 121.618 182.457 125.401 180.165C128.262 171.87 135.183 155.281 138.506 153.644C136.655 150.235 127.155 144.476 126.601 145.131Z" fill="url(#paint6_linear_38_422)" stroke="black" stroke-width="0.437721"/>
<path fill-rule="evenodd" clip-rule="evenodd" d="M173.666 153.644C173.666 153.644 182.202 143.234 188.985 141.856C206.842 170.384 186.032 181.802 186.032 181.802C186.032 181.802 186.84 174.768 183.448 169.142C180.426 164.607 173.666 153.644 173.666 153.644Z" fill="url(#paint7_radial_38_422)" stroke="black" stroke-width="0.875442"/>
<path d="M156.126 89.2147C154.249 92.0523 152.406 98.0568 152.406 108.99C152.406 115.276 152.943 120.887 153.805 124.516V139.103C152.701 141.499 151.861 145.707 151.485 150.795H160.354C160.027 146.439 159.357 142.711 158.478 140.231V124.404C159.324 120.772 159.877 115.208 159.877 108.99C159.877 98.0568 157.634 92.0523 156.126 89.2147Z" fill="url(#paint8_linear_38_422)" stroke="black" stroke-width="0.362998"/>
<path fill-rule="evenodd" clip-rule="evenodd" d="M140.888 69.6051C141.225 74.1054 143.841 79.2095 143.841 79.2095H169.127L171.896 68.732C171.896 68.732 155.301 59.4312 140.888 69.6051Z" fill="url(#paint9_linear_38_422)" stroke="black" stroke-width="0.875442"/>
<path fill-rule="evenodd" clip-rule="evenodd" d="M146.807 67.204C142.509 64.8854 138.142 60.7917 137.454 54.9128C137.192 52.5324 137.467 49.7608 136.148 47.7769C137.401 48.7502 137.426 48.8577 138.151 49.3347C139.758 50.3406 142.476 51.5756 142.122 54.22C141.58 50.2282 141.675 46.1121 141.465 42.0687C141.564 40.1255 140.994 36.5604 141.5 35.556C146.684 40.4876 151.181 51.3601 151.092 54.5726C151.339 46.5626 144.488 45.1781 146.982 37.0735C148.487 30.9576 152.392 26.2237 154.265 20.3696C153.847 18.5286 154.46 19.3131 155.074 20.3179C157.094 23.5959 158.695 28.0457 157.22 32.0433C156.547 34.6775 155.967 37.3778 155.851 40.137C156.108 32.5945 160.341 29.7337 166.145 28.1962C163.243 32.9163 162.557 37.5753 162.519 43.3566C162.416 44.552 162.077 49.1281 162.843 45.6581C163.499 43.0388 164.129 39.9584 166.705 39.1091C167.912 38.6724 170.045 37.0318 170.745 36.5903C169.619 39.6216 169.151 42.8946 169.141 46.1902C168.827 50.7554 168.774 55.4532 167.519 59.8287C168.163 56.4554 170.985 48.4262 174.956 51.4166C173.221 53.4574 172.077 56.6146 172.316 59.6914C172.173 62.0404 171.431 64.8002 169.537 65.916C165.299 65.5299 161.007 66.1677 156.755 66.4265C153.439 66.6698 150.126 67.0632 146.807 67.204Z" fill="url(#paint10_radial_38_422)" stroke="black" stroke-opacity="0.553055" stroke-width="0.875442"/>
<path fill-rule="evenodd" clip-rule="evenodd" d="M140.812 67.8587C147.376 59.9871 168.786 62.8199 172.558 67.2039C174.485 69.405 172.205 72.3472 171.082 70.6964C163.314 65.9897 152.267 64.1614 140.812 72.0061C138.309 71.3923 140.201 68.5816 140.812 67.8587Z" fill="#F5EC91" stroke="black" stroke-width="0.700353"/>
<path fill-rule="evenodd" clip-rule="evenodd" d="M246.028 115.861C246.028 115.861 247.814 108.717 246.686 109.068C246.121 109.244 239.651 112.631 232.679 116.644C225.706 120.656 218.233 125.294 215.662 127.972C212.157 131.622 218.966 132.712 222.931 129.148C227.188 127.422 239.937 120.008 246.028 115.861Z" fill="#502D16"/>
<g opacity="0.691824" filter="url(#filter5_f_38_422)">
<path fill-rule="evenodd" clip-rule="evenodd" d="M213.954 285.466C213.004 287.629 209.949 290.247 203.165 286.517C196.381 282.787 190.431 271.941 188.948 268.841C189.898 266.678 197.062 269.971 203.594 274.346C208.844 277.863 212.996 281.415 213.905 283.98" fill="#111D08"/>
</g>
<path fill-rule="evenodd" clip-rule="evenodd" d="M176.226 8.85739C200.273 19.927 276.327 138.279 201.414 273.797C194.758 277.502 188.689 272.408 190.256 266.234C267.779 107.718 174.532 12.0269 176.226 8.85739Z" fill="#FDFBEC" stroke="black" stroke-width="0.875442"/>
<path fill-rule="evenodd" clip-rule="evenodd" d="M83.5352 50.5316C83.5352 60.9664 77.1205 69.4254 69.2075 69.4254C61.2946 69.4254 54.8799 60.9664 54.8799 50.5316C54.8799 40.0969 61.2946 31.6379 69.2075 31.6379C75.4655 31.6379 80.9995 36.9939 82.8759 44.8666" fill="url(#paint11_radial_38_422)"/>
<g opacity="0.691824" filter="url(#filter6_f_38_422)">
<path fill-rule="evenodd" clip-rule="evenodd" d="M97.3406 284.139C98.2905 286.302 101.346 288.92 108.13 285.19C114.913 281.461 120.864 270.614 122.347 267.514C121.397 265.351 114.233 268.644 107.7 273.02C102.45 276.537 98.2991 280.088 97.39 282.653" fill="#111D08"/>
</g>
<path fill-rule="evenodd" clip-rule="evenodd" d="M134.954 7.88306C110.907 18.9527 34.8525 137.305 109.765 272.823C116.421 276.527 122.49 271.434 120.924 265.26C43.4009 106.743 136.647 11.0526 134.954 7.88306Z" fill="#FDFBEC" stroke="black" stroke-width="0.875442"/>
<path fill-rule="evenodd" clip-rule="evenodd" d="M232.543 214.763C232.543 214.763 248.047 228.515 248.232 240.738C248.416 252.962 252.846 252.526 250.816 255.8C248.785 259.074 245.279 296.182 247.493 297.055C247.359 298.546 246.787 304.871 245.094 303.385C242.13 300.783 224.238 304.477 223.13 304.477C222.023 304.477 212.61 296.837 214.456 295.964C216.301 295.091 235.312 294.436 235.312 287.887C235.312 281.339 224.607 218.474 225.53 218.474C226.592 212.985 235.991 210.671 232.543 214.763Z" fill="#593218"/>
<path fill-rule="evenodd" clip-rule="evenodd" d="M281.454 283.74C281.454 283.74 290.129 311.462 286.622 315.827C283.115 320.193 301.203 320.193 301.203 317.355C301.203 314.518 297.142 285.486 298.065 284.831C298.988 284.177 281.639 284.177 281.454 283.74Z" fill="#2E1A0C" stroke="black" stroke-width="0.437721"/>
<path d="M281.834 296.291C281.834 299.01 279.681 301.215 277.025 301.215C274.369 301.215 272.216 299.01 272.216 296.291C272.216 293.572 274.369 291.368 277.025 291.368C279.681 291.368 281.834 293.572 281.834 296.291Z" fill="#E6E6E6" stroke="black" stroke-width="0.157317"/>
<path d="M272.809 306.766C272.809 308.152 270.95 309.276 268.656 309.276C266.363 309.276 264.503 308.152 264.503 306.766C264.503 305.38 266.363 304.256 268.656 304.256C270.95 304.256 272.809 305.38 272.809 306.766Z" fill="#E6E6E6" stroke="black" stroke-width="0.175088"/>
<path fill-rule="evenodd" clip-rule="evenodd" d="M272.041 342.24C272.041 342.24 278.501 330.671 275.548 325.868C272.595 321.066 267.981 314.954 257.091 318.665C246.201 322.376 255.799 315.391 259.49 314.3C263.182 313.208 273.518 316.482 274.994 321.066C276.471 325.65 277.394 297.492 260.967 305.132C252.477 299.893 268.35 304.695 268.719 299.456C269.088 294.218 266.504 291.38 266.504 291.38L269.273 291.162C269.273 291.162 268.903 301.639 276.102 298.147C275.534 304.993 277.578 312.99 277.578 312.99L280.9 309.716L278.501 315.173L279.055 322.158C279.055 322.158 286.438 308.406 288.837 306.223C291.236 304.04 291.605 306.878 291.605 306.878L286.253 313.863L301.388 312.99L299.727 317.137L289.021 315.827C289.021 315.827 284.223 316.046 282.931 318.883C281.639 321.721 281.085 323.904 281.085 323.904C281.085 323.904 293.451 321.721 295.112 325.432C296.773 329.143 283.3 323.249 281.823 325.868C280.347 328.488 274.81 339.402 275.179 340.712C275.548 342.021 271.672 342.24 272.041 342.24Z" fill="#838959" stroke="black" stroke-width="0.175088"/>
<path fill-rule="evenodd" clip-rule="evenodd" d="M259.195 113.698C259.195 125.995 256.287 135.963 252.698 135.963C249.11 135.963 246.201 125.995 246.201 113.698C246.201 101.402 249.11 91.4333 252.698 91.4333C255.536 91.4333 258.046 97.7449 258.897 107.022" fill="url(#paint12_radial_38_422)"/>
<path d="M253.215 106.596C248.056 122.467 256.168 128.541 256.168 128.541" stroke="#2E1A0C" stroke-width="0.875442"/>
<path fill-rule="evenodd" clip-rule="evenodd" d="M253.72 242.928C253.72 264.05 248.178 281.192 241.35 281.192C234.522 281.192 232.812 270.474 228.98 242.928C223.889 206.335 224.864 218.709 241.35 204.663C245.816 200.858 251.5 215.211 253.151 231.454" fill="url(#paint13_radial_38_422)"/>
<path fill-rule="evenodd" clip-rule="evenodd" d="M238.731 258.045C238.428 246.523 238.634 233.637 238.878 225.693C239.123 217.729 240.877 214.907 240.502 214.67C238.845 215.877 228.989 214.669 228.989 214.669C231.428 220.849 234.567 224.487 236.994 280.428C236.62 287.366 237.886 294.227 240.342 291.835C240.759 289.399 240.585 280.621 238.731 258.045Z" fill="#2E1A0C"/>
<path fill-rule="evenodd" clip-rule="evenodd" d="M248.094 269.491C249.114 257.713 251.697 255.479 252.152 247.543C252.606 239.608 249.473 220.355 249.265 220.087C248.121 221.143 238.538 221.933 238.538 221.933C243.716 249.311 243.24 268.065 240.735 285.289C242.631 288.559 245.91 289.15 245.87 294.022C246.845 294.419 247.132 295.852 248.094 269.491Z" fill="#2E1A0C"/>
<path fill-rule="evenodd" clip-rule="evenodd" d="M233.374 218.801C233.374 218.801 239.003 226.223 239.003 229.169C239.003 232.116 242.233 248.269 244.356 248.269C246.478 248.269 244.079 249.579 245.186 251.652C246.294 253.726 250.354 257.764 250.354 257.764L253.123 251.216L238.357 214.763L233.374 218.801Z" fill="#140B04"/>
<path fill-rule="evenodd" clip-rule="evenodd" d="M227.744 215.418C227.767 217.655 239.187 217.164 240.479 231.571C241.625 244.346 247.308 241.175 247.124 244.013C246.746 249.82 253.768 260.165 258.936 263.221C259.777 269.285 257.883 271.155 259.675 274.79C261.444 277.634 265.086 279.558 267.611 279.156C269.656 278.831 270.037 280.426 272.594 281.775C275.22 283.161 279.813 288.952 282.007 286.578C286.242 283.201 294.719 289.708 298.065 287.232C298.619 282.212 297.978 276.613 296.588 267.369C295.112 257.546 293.222 241.83 296.035 218.037C296.526 213.879 305.688 177.078 305.97 170.302C306.226 164.141 298.25 147.968 294.743 144.258C290.926 139.272 291.605 112.825 288.098 111.952C284.591 111.079 257.46 111.079 252.661 121.775C249.154 123.302 245.637 118.151 245.094 120.901C245.094 126.795 251.738 131.161 252.846 129.851C253.953 128.541 265.396 141.42 264.473 144.258C263.551 147.095 268.502 161.146 265.581 163.03C263.551 164.34 266.504 171.979 263.181 174.599C258.076 178.624 227.721 213.153 227.744 215.418Z" fill="#3B7A34" stroke="black" stroke-width="0.787898"/>
<path fill-rule="evenodd" clip-rule="evenodd" d="M249.252 129.02C255.435 129.86 258.135 132.56 264.942 143.037C270.381 164.904 292.297 162.032 291.969 137.838C291.6 109.93 265.104 105.615 252.803 121.856C250.601 122.65 245.548 119.047 244.772 122.011" fill="url(#paint14_radial_38_422)"/>
<path d="M226.831 215.263C226.854 217.501 239.188 217.164 240.48 231.571C241.626 244.346 247.309 241.175 247.124 244.013C246.747 249.82 253.769 260.165 258.937 263.221C259.777 269.285 257.884 271.155 259.675 274.79C261.444 277.634 265.086 279.558 267.612 279.156C269.657 278.831 270.037 280.426 272.595 281.775C275.221 283.161 279.813 288.952 282.008 286.578C286.243 283.201 295.633 289.862 298.979 287.387C298.228 280.514 297.978 276.613 296.589 267.369C295.112 257.546 293.223 241.83 296.035 218.037C296.527 213.879 305.689 177.078 305.97 170.302C306.226 164.141 298.25 147.968 294.743 144.258C290.926 139.272 291.606 112.825 288.099 111.952C284.592 111.079 257.46 111.079 252.661 121.775C249.155 123.302 245.637 118.151 245.094 120.901C245.094 126.795 251.739 131.161 252.846 129.851C253.953 128.541 265.397 141.42 264.474 144.258C263.551 147.095 268.502 161.146 265.581 163.03C263.551 164.34 266.504 171.979 263.182 174.599C258.077 178.624 226.808 212.999 226.831 215.263Z" stroke="black" stroke-width="0.787898"/>
<path fill-rule="evenodd" clip-rule="evenodd" d="M255.904 57.0292C255.904 57.0292 253.293 58.8042 253.424 60.1934C253.554 61.5825 254.207 67.7564 253.554 68.7597C252.902 69.763 243.101 77.2586 244.13 77.4594C245.11 77.6507 248.255 76.8795 249.756 76.8023C251.257 76.7252 252.879 89.6955 253.335 88.8466C253.792 87.9977 252.746 74.9392 253.072 73.6272C253.399 72.3152 255.512 65.4412 254.99 64.4379C254.468 63.4347 255.447 59.4988 256.23 59.6531C257.013 59.8075 256.36 57.0292 255.904 57.0292Z" fill="#0F0804" fill-opacity="0.308682"/>
<path fill-rule="evenodd" clip-rule="evenodd" d="M227.385 48.0621C231.065 41.983 235.842 35.1308 242.63 34.6459C252.027 34.7775 260.955 42.1446 264.719 52.2617C274.353 72.7711 285.085 92.6357 293.207 114.084C295.476 118.447 294.71 123.352 294.887 128.137C295.124 132.722 297.574 136.671 297.045 141.366C298.333 145.421 294.748 147.768 293.684 143.141C293.11 139.958 294.684 136.167 292.229 133.828C291.313 129.879 293.03 124.809 290.67 121.026C288.31 117.622 289.095 113.539 285.757 111.478C281.194 110.135 284.27 103.398 283.743 99.3473C284.105 94.9171 282.207 91.7888 280.888 87.9001C277.66 86.0391 272.891 86.1928 269.7 84.0341C264.783 82.3829 266.241 74.6609 262.998 70.8884C261.23 65.7998 255.828 68.8722 253.162 65.5703C250.308 60.6767 244.9 58.9122 240.982 55.3635C237.627 54.0635 236.41 49.6441 234.432 47.5929C232.117 47.8406 229.618 49.7021 227.385 48.0621Z" fill="url(#paint15_radial_38_422)" stroke="black" stroke-width="0.350177"/>
<path fill-rule="evenodd" clip-rule="evenodd" d="M267.427 82.7021C267.427 82.7021 258.014 95.3625 264.289 103.439C270.564 111.515 272.338 118.091 271.856 119.374C269.642 125.267 274.256 139.674 271.672 139.455C269.088 139.237 250.262 156.481 239.372 160.629C237.082 161.501 234.758 158.664 232.543 162.593C231.067 165.213 223.315 170.888 221.838 169.797C220.362 168.705 216.117 173.071 218.331 173.507C220.546 173.944 217.039 172.853 217.593 175.036C218.147 177.218 219.993 178.091 219.993 178.091C219.993 178.091 218.331 180.274 219.993 180.929C221.654 181.584 222.207 184.422 224.238 183.112C226.268 181.802 232.543 185.513 235.681 180.056C238.819 174.599 243.617 169.142 250.077 166.741C256.537 164.34 276.512 154.413 284.407 147.314C281.966 123.843 287.36 92.9614 279.608 86.4129C270.749 85.3215 267.611 82.4838 267.427 82.7021Z" fill="#784421" stroke="black" stroke-opacity="0.553055" stroke-width="0.437721"/>
<path fill-rule="evenodd" clip-rule="evenodd" d="M280.088 144.791C281.669 148.964 274.427 155.621 263.922 159.652C253.416 163.682 238.721 161.767 242.026 159.395C243.969 158.001 254.996 151.807 265.502 143.609C272.933 137.81 274.599 140.626 278.354 142.861" fill="url(#paint16_radial_38_422)"/>
<path fill-rule="evenodd" clip-rule="evenodd" d="M257.027 155.753C263.878 151.418 271.816 148.977 276.679 146.294C281.543 143.611 283.071 138.833 283.369 139.086C283.369 141.105 283.296 148.273 283.296 148.273C276.202 153.606 258.489 161.297 246.717 167.339C239.744 172.788 229.109 170.408 257.027 155.753Z" fill="#2E1A0C"/>
<path fill-rule="evenodd" clip-rule="evenodd" d="M294.374 156.263C299.952 165.365 299.29 177.482 297.033 187.835C294.942 195.921 289.927 202.287 287.05 209.948C281.909 221.774 276.942 233.931 274.505 246.981C273.735 252.822 273 258.869 272.17 265.124C262.135 261.589 263.046 268.984 260.524 267.884C258.003 266.784 260.403 262.127 258.566 262.888L258.186 262.916C258.186 262.916 264.451 257.05 269.671 260.137C266.278 249.333 285.737 206.938 291.075 195.928C302.298 172.776 294.374 156.263 294.374 156.263Z" fill="black"/>
<path fill-rule="evenodd" clip-rule="evenodd" d="M68.0925 101.671C68.0925 101.671 78.4284 112.366 78.0593 113.676C77.6901 114.986 81.6688 122.205 77.6083 119.476C73.5477 116.748 68.6462 116.623 66.9851 115.422C65.324 114.222 68.0925 101.562 68.0925 101.671Z" fill="#502D16"/>
<path fill-rule="evenodd" clip-rule="evenodd" d="M75.1822 257.05C75.1822 267.656 72.8577 276.253 69.9903 276.253C67.1229 276.253 64.7983 267.656 64.7983 257.05C64.7983 246.445 67.1229 237.848 69.9903 237.848C72.258 237.848 74.2633 243.291 74.9433 251.293" fill="url(#paint17_radial_38_422)"/>
<path fill-rule="evenodd" clip-rule="evenodd" d="M23.9803 89.4687C29.1343 100.051 36.4375 109.036 46.8038 111.43C60.3161 117.977 59.311 112.594 60.6144 83.5198C63.6557 83.7558 72.1476 89.1527 70.3775 94.8209C64.9929 109.298 67.9051 126.868 56.752 142.584C51.156 153.433 45.2409 164.12 57.196 179.672C67.2724 185.848 79.5406 206.747 88.6569 216.775C82.4606 221.907 83.328 221.605 81.263 227.664C76.1058 238.34 73.5641 246.954 65.2645 255.383C55.6901 266.284 44.6045 277.577 30.6949 278.471C21.981 283.629 21.7763 275.579 13.0241 280.509C21.0151 249.207 17.5724 221.939 11.4101 202.321C6.98736 186.856 4.61941 168.427 13.0109 154.139C18.2207 141.074 22.3111 132.883 18.8128 117.997C17.6097 110.488 20.0563 95.9773 23.9803 89.4687Z" fill="#307131" stroke="black" stroke-width="1.01827"/>
<path fill-rule="evenodd" clip-rule="evenodd" d="M121.802 330.452C121.802 330.452 163.884 323.904 179.018 332.199C190.41 338.442 181.233 350.971 181.233 350.971C181.233 350.971 152.809 344.422 128.446 351.407C125.493 347.042 122.54 330.452 121.802 330.452Z" fill="url(#paint18_linear_38_422)" stroke="black" stroke-width="0.875442"/>
<path fill-rule="evenodd" clip-rule="evenodd" d="M132.455 323.609C133.622 319.139 136.483 315.102 137.989 311.475C139.16 308.654 141.789 306.498 142.927 303.758C143.767 301.735 143.92 300.174 144.798 298.059C145.659 295.987 145.584 292.693 146.125 290.688C146.697 288.57 146.011 285.227 144.087 285.458C142.38 285.662 143.144 282.094 143.27 280.863C143.472 278.891 144.684 278.965 143.757 276.112C143.539 275.443 143.46 274.694 143.104 274.105C142.178 272.57 142.327 277.79 141.423 279.346C140.417 281.077 139.505 282.71 139.334 284.376C139.138 286.293 138.328 288.619 138.169 290.164C137.943 292.369 137.933 294.277 138.118 296.253C138.256 297.731 136.794 299.4 136.626 301.037C136.452 302.741 135.18 304.428 134.647 306.401C133.768 309.655 133.217 310.441 132.097 313.137C131.401 314.814 130.449 316.294 129.492 317.621C128.359 319.192 128.159 320.362 127.078 321.646C125.81 323.151 125.318 324.094 124.663 325.672C123.88 327.557 123.063 328.332 122.167 330.49C120.885 333.576 120.728 336.012 123.282 334.962C125.838 333.912 136.664 323.746 132.455 323.609Z" fill="#666C48"/>
<path fill-rule="evenodd" clip-rule="evenodd" d="M134.721 320.848C134.721 320.848 114.05 326.96 117.741 333.945C121.432 340.93 127.985 350.425 127.985 350.425C127.985 350.425 127.339 342.676 131.768 340.493C136.198 338.31 145.057 330.016 139.151 328.706C134.352 323.467 135.09 319.975 134.721 320.848Z" fill="url(#paint19_linear_38_422)" stroke="black" stroke-width="0.875442"/>
<path d="M267.98 116.754C254.507 116.972 254.507 124.612 254.507 124.612" stroke="black" stroke-width="0.262633"/>
<path d="M267.98 120.028C255.43 122.866 257.46 129.196 257.46 129.196" stroke="black" stroke-width="0.262633"/>
<path d="M267.611 127.013C259.49 131.815 261.521 134.653 261.521 134.653" stroke="black" stroke-width="0.262633"/>
<path d="M268.165 133.78C261.705 138.582 262.997 141.42 262.997 141.42" stroke="black" stroke-width="0.262633"/>
<path d="M252.107 122.648C252.107 122.648 252.292 129.196 253.953 130.287C255.614 131.379 254.876 131.379 254.876 131.379" stroke="black" stroke-width="0.262633"/>
<path d="M285.699 119.81C289.206 120.247 289.206 120.247 289.206 120.247" stroke="black" stroke-width="0.0875442"/>
<path d="M285.699 122.866C290.867 124.83 290.867 124.83 290.867 124.83" stroke="black" stroke-width="0.175088"/>
<path d="M286.438 129.414C291.975 131.379 291.975 131.379 291.975 131.379" stroke="black" stroke-width="0.612809"/>
<path d="M287.729 135.308C290.336 135.526 293.239 138.582 293.267 138.582" stroke="black" stroke-width="0.875442"/>
<path d="M286.622 140.328C293.636 142.948 293.636 142.948 293.636 142.948" stroke="black" stroke-width="0.875442"/>
<path fill-rule="evenodd" clip-rule="evenodd" d="M78.3821 57.8178L78.7512 64.4754L79.2588 66.5491" fill="#381F0F"/>
<path d="M78.3821 57.8178L78.7512 64.4754L79.2588 66.5491" stroke="#4F2C16" stroke-width="0.612809"/>
<path fill-rule="evenodd" clip-rule="evenodd" d="M67.7915 28.4997C57.9575 28.4857 51.5222 37.8375 49.3541 48.2371C48.8586 51.2714 49.0737 56.4142 49.0362 59.478C51.2211 57.2116 52.4524 58.9795 53.4866 57.4103C54.7868 55.8416 56.2306 56.183 58.4138 55.7937C58.8922 50.7193 60.4575 49.7429 61.9742 48.0115C63.4837 46.1381 66.2063 47.4751 66.202 50.0417C66.2442 51.9914 67.1787 54.6865 69.222 54.1019C70.2353 49.8987 72.9219 50.2586 75.1028 49.177C76.1705 47.5914 75.0312 42.9225 77.3598 43.3121C79.1699 44.0565 82.0268 45.6048 83.9719 45.4927C85.0724 45.3395 87.3476 47.588 87.4686 44.6656C87.5985 41.5277 80.7717 32.6949 75.1346 30.1163C72.5126 29.014 70.0609 28.5029 67.7915 28.4997ZM67.0603 31.3945C67.5286 31.3945 67.8868 32.0187 67.8868 32.7855C67.8868 33.5523 67.5286 34.1765 67.0603 34.1765C66.5921 34.1765 66.202 33.5523 66.202 32.7855C66.202 32.0187 66.5921 31.3945 67.0603 31.3945ZM71.1611 32.3344C71.5933 32.3344 71.9558 32.7906 71.9558 33.387C71.9558 33.9834 71.5933 34.4773 71.1611 34.4773C70.7288 34.4773 70.3663 33.9834 70.3663 33.387C70.3663 32.7906 70.7288 32.3344 71.1611 32.3344ZM63.4046 33.0863C63.9449 33.0863 64.3901 33.7105 64.3901 34.4773C64.3901 35.2441 63.9449 35.8683 63.4046 35.8683C62.8643 35.8683 62.4192 35.2441 62.4192 34.4773C62.4192 33.7105 62.8643 33.0863 63.4046 33.0863ZM59.3357 35.1164C59.6545 35.1843 60.1573 35.9379 60.5436 36.9586C60.9852 38.1251 61.0939 39.208 60.798 39.3647C60.5021 39.5213 59.9044 38.7266 59.4628 37.5601C59.0213 36.3936 58.9126 35.3107 59.2085 35.154C59.2455 35.1344 59.2901 35.1067 59.3357 35.1164ZM56.0932 36.3194C56.6118 36.14 57.3749 37.4186 57.8098 39.1767C58.2447 40.9348 58.1695 42.4936 57.6509 42.673C57.1323 42.8525 56.3692 41.5739 55.9343 39.8158C55.4994 38.0577 55.5747 36.4989 56.0932 36.3194Z" fill="black"/>
<path d="M235.358 60.6009C236.164 60.2349 235.988 61.7584 236.059 62.6753C236.216 64.0752 235.647 65.5299 236.132 66.8829C236.647 68.2136 237.775 69.0146 238.917 69.4349C239.65 69.7611 240.531 69.7808 241.107 70.481C241.508 71.2155 240.452 71.3672 240.365 72.0232C240.108 72.7617 240.091 73.609 239.693 74.2777C239.369 75.227 237.784 75.9561 237.265 75.1396" stroke="#0F0804" stroke-width="0.437721"/>
<path fill-rule="evenodd" clip-rule="evenodd" d="M233.559 58.6909C234.717 56.7872 236.236 56.2485 238.328 55.8118C237.18 54.6688 235.584 54.997 234.164 55.918C233.52 56.4407 232.912 57.3733 233.114 58.3087C233.24 58.8915 233.346 58.7195 233.559 58.6909Z" fill="black"/>
<path d="M240.849 71.2968C239.616 71.3182 238.381 71.2514 237.149 71.3312C236.783 71.3734 236.405 71.446 236.087 71.6789C235.868 71.9776 235.716 72.3667 235.404 72.552" stroke="black" stroke-width="0.437721"/>
<path d="M24.3123 90.971C51.5236 120.529 66.1 115.455 66.1 115.455" stroke="black" stroke-width="0.875442"/>
<path d="M47.1514 113.969C63.2041 125.7 65.2923 120.297 65.2923 120.297" stroke="black" stroke-width="0.875442"/>
<path d="M49.6309 121.069C61.5073 130.793 63.0734 128.478 63.0734 128.478" stroke="black" stroke-width="0.612809"/>
<path d="M49.1089 127.397C59.4192 135.578 59.6802 135.732 59.6802 135.732" stroke="black" stroke-width="0.437721"/>
<path d="M50.2834 135.578C55.8954 140.208 55.8954 140.208 55.8954 140.208" stroke="black" stroke-width="0.175088"/>
<path d="M47.2166 114.407C63.2693 126.138 65.3575 120.735 65.3575 120.735" stroke="white" stroke-width="0.875442"/>
<path d="M47.1514 113.969C63.2041 125.7 65.2923 120.297 65.2923 120.297" stroke="black" stroke-width="0.875442"/>
<path d="M49.957 121.97C61.8334 131.694 63.3996 129.379 63.3996 129.379" stroke="white" stroke-width="0.612809"/>
<path d="M49.6309 121.069C61.5073 130.793 63.0734 128.478 63.0734 128.478" stroke="black" stroke-width="0.612809"/>
<path d="M49.4028 128.299C59.7131 136.479 59.9742 136.633 59.9742 136.633" stroke="white" stroke-width="0.437721"/>
<path d="M49.1089 127.397C59.4192 135.578 59.6802 135.732 59.6802 135.732" stroke="black" stroke-width="0.437721"/>
<path d="M50.4465 136.055C56.0585 140.685 56.0584 140.685 56.0584 140.685" stroke="white" stroke-width="0.175088"/>
<path d="M50.2834 135.578C55.8954 140.208 55.8954 140.208 55.8954 140.208" stroke="black" stroke-width="0.175088"/>
<path fill-rule="evenodd" clip-rule="evenodd" d="M37.9418 76.6214C36.7995 76.5699 35.7598 77.2335 34.6994 77.6365C33.4879 78.3467 32.29 79.0887 31.1391 79.9298C30.2432 80.7679 29.3513 81.6372 28.6694 82.7321C28.029 83.7155 27.4263 84.7685 27.0667 85.9433C26.5789 87.3871 26.2269 88.9027 26.0385 90.4417C25.8429 91.6515 26.1051 92.8664 26.2826 94.055C26.655 96.2456 27.2334 98.3741 27.751 100.52C28.0729 102.079 28.4528 103.637 28.5133 105.25C28.6607 106.774 28.3955 108.289 28.226 109.793C27.9454 112.597 26.9566 115.193 26.2923 117.882C25.9164 119.349 25.5455 120.825 25.2996 122.33C25.1388 123.503 25.1462 124.692 25.2582 125.871C25.3109 127.091 25.4972 128.33 25.3117 129.544C25.1342 130.789 24.8895 132.019 24.5696 133.225C24.1231 135.028 23.5988 136.809 23.2567 138.645C23.1091 139.702 23.0336 140.826 23.2825 141.87C23.6242 143.225 24.5904 144.147 25.4301 145.076C27.4207 147.135 29.4143 149.191 31.4456 151.194C32.6916 152.302 33.8668 153.53 35.208 154.481C36.3125 155.117 37.5144 155.46 38.6587 155.979C42.8605 157.788 47.1455 159.304 51.4059 160.904C53.9426 161.893 56.4494 162.986 58.969 164.033C61.0362 164.891 62.9832 166.091 64.9354 167.254C66.0634 167.991 67.2605 168.618 68.2364 169.634C69.4093 170.739 70.5249 171.928 71.7445 172.963C73.5712 174.599 75.4049 176.225 77.3051 177.741C78.5284 178.753 79.7475 179.775 81.0502 180.643C81.9087 181.397 82.923 181.669 83.9082 182.076C84.679 182.508 85.1934 183.489 86.1334 183.542C87.082 183.659 88.1928 184.021 88.9944 183.204C89.7083 182.549 90.1134 181.223 91.183 181.324C92.087 181.774 92.5859 180.564 92.7772 179.707C93.597 178.723 93.1871 177.382 93.2408 176.18C93.5696 174.972 93.8644 173.598 93.2749 172.419C92.7387 170.869 91.8059 169.555 90.7746 168.429C89.8111 167.405 88.669 166.676 87.5957 165.835C86.6353 165.281 85.5623 164.797 84.9891 163.654C84.4134 162.589 83.625 161.764 82.6862 161.17C81.4657 160.211 80.2379 159.18 78.7903 158.767C77.449 158.207 76.0375 157.915 74.6313 157.697C73.6568 157.607 72.672 157.364 71.7761 156.893C68.7111 155.581 65.6304 154.301 62.6742 152.666C61.482 152.019 60.348 151.232 59.1767 150.533C57.9174 149.75 56.7012 148.879 55.5155 147.95C53.7041 146.593 51.8899 145.237 50.0216 143.992C48.9364 143.371 47.8657 142.706 46.7165 142.26C45.1501 141.656 43.507 141.354 41.9474 140.721C41.0841 140.441 40.2856 139.828 39.7949 138.932C39.4142 138.105 39.2466 137.095 39.5949 136.21C39.9649 135.15 40.4355 134.137 40.8347 133.089C41.6887 130.698 42.4314 128.251 43.1764 125.811C43.9042 122.919 44.673 120.033 45.1173 117.057C45.3773 115.423 45.6916 113.801 45.8573 112.149C45.9754 111.121 46.5444 110.306 47.1721 109.634C48.2897 108.481 49.3634 107.27 50.3713 105.983C51.0861 104.997 51.6425 103.872 52.0734 102.681C52.4805 101.517 52.6636 100.262 52.7534 99.0115C52.8362 97.4208 52.4263 95.8813 52.0532 94.374C51.685 93.0795 51.3692 91.7488 50.8333 90.5343C50.1356 88.8242 49.2723 87.2205 48.4228 85.6129C47.8191 84.5898 47.209 83.559 46.4612 82.6742C45.5194 81.5345 44.6618 80.2789 43.5525 79.3537C42.7646 78.6338 41.9195 78.0057 41.0254 77.4861C40.107 77.1064 39.1833 76.6044 38.1962 76.5838L38.0117 76.6111L37.9418 76.6214Z" fill="#784421"/>
<path d="M64.2328 52.5556C63.4474 53.6119 62.4378 54.0802 61.9777 53.6017C61.5176 53.1232 61.7813 51.8791 62.5667 50.8229C63.3521 49.7666 64.3617 49.2983 64.8218 49.7768C65.2819 50.2553 65.0182 51.4994 64.2328 52.5556Z" fill="black"/>
<path d="M74.5779 51.8569C75.1512 51.7039 78.2643 52.5841 78.7345 53.0013C79.3322 53.5314 79.8003 53.6443 80.3007 54.236C80.5336 54.5115 80.7258 54.5646 80.9532 54.6991" stroke="black" stroke-width="0.612809" stroke-linecap="round"/>
<path d="M79.1264 55.7795C79.3571 56.7042 78.9244 57.8451 78.1198 58.1271C77.6463 58.271 77.2089 57.8832 76.9077 57.4919C76.6142 57.1151 75.9811 56.3694 75.625 56.0695" stroke="black" stroke-width="0.350177"/>
<path fill-rule="evenodd" clip-rule="evenodd" d="M38.2765 335.151H36.1911C36.1911 335.151 37.441 326.033 29.6629 326.97C27.0629 327.284 23.0069 322.494 23.0069 322.494C23.0069 322.494 17.3949 323.729 17.5254 322.186C17.6559 320.642 18.961 318.944 18.961 318.944L22.7458 320.951L21.1797 316.475H22.6153L24.1814 320.642L27.0527 322.494L28.2272 314.931L23.7899 309.066L27.1832 310.455L22.6153 303.355L24.4425 301.349L28.7493 310.764L29.0103 301.194L30.4459 301.657V310.455L32.9256 308.912L34.4917 309.22L30.3061 313.395L29.1157 323.224L32.273 324.964L33.1866 319.407V311.227L33.0561 306.751L35.4053 309.838V315.549L37.1019 314.777L36.4494 317.092L39.4511 315.394L40.2342 302.892L41.4088 302.275L41.9308 311.844L47.6732 297.027L49.2394 297.953L43.9305 312.75L52.1106 308.294L52.5021 309.683L58.114 309.375L57.331 313.079L47.735 313.335L56.1564 316.475L57.9836 322.34C57.9836 322.34 48.6146 315.39 45.9766 316.475C42.9749 317.71 38.407 319.099 38.7986 323.729C39.1901 328.36 38.5375 335.46 38.2765 335.151Z" fill="#502D15" stroke="black" stroke-width="0.175088"/>
<path d="M21.026 293.836C22.7924 295.787 23.4952 298.296 22.5948 299.436C21.6944 300.576 19.5301 299.918 17.7637 297.967C15.9973 296.016 13.9231 291.824 13.761 289.678C15.3972 289.594 19.2596 291.885 21.026 293.836Z" fill="#008000" stroke="black" stroke-width="0.455616"/>
<path d="M26.563 299.275C26.563 302.316 25.4959 304.783 24.1811 304.783C22.8664 304.783 21.7993 302.316 21.7993 299.275C21.7993 296.235 22.9699 291.286 24.1811 289.579C25.346 291.022 26.563 296.235 26.563 299.275Z" fill="#008000" stroke="black" stroke-width="0.469086"/>
<path d="M22.346 299.595C24.7728 300.109 26.393 301.712 25.9623 303.175C25.5316 304.638 23.2125 305.408 20.7856 304.894C18.3587 304.381 14.791 302.243 13.8254 300.608C15.359 299.555 19.9191 299.082 22.346 299.595Z" fill="#008000" stroke="black" stroke-width="0.455607"/>
<path d="M15.7042 319.41C17.8254 319.061 19.6039 320.023 19.674 321.558C19.744 323.094 18.0793 324.624 15.9581 324.974C13.8369 325.323 10.321 324.526 9.06567 323.307C10.0105 321.781 13.583 319.76 15.7042 319.41Z" fill="#008000" stroke="black" stroke-width="0.425039"/>
<path d="M21.1053 312.324C22.8894 313.725 23.6815 315.84 22.8733 317.045C22.0651 318.249 19.9611 318.089 18.1769 316.688C16.3928 315.287 14.2076 311.933 13.9507 310.037C15.5136 309.635 19.3211 310.923 21.1053 312.324Z" fill="#008000" stroke="black" stroke-width="0.425039"/>
<path d="M51.8809 305.254C50.4874 307.177 50.2128 309.468 51.2681 310.366C52.3234 311.264 54.3108 310.432 55.7044 308.509C57.0979 306.585 58.4272 302.654 58.2372 300.747C56.6408 300.864 53.2745 303.331 51.8809 305.254Z" fill="#008000" stroke="black" stroke-width="0.425039"/>
<path d="M63.5497 314.069C61.5646 312.218 59.3787 312.14 58.6705 313.895C57.9623 315.65 58.9987 318.577 60.9837 320.428C62.9688 322.28 66.8313 323.731 68.598 323.153C68.2832 320.72 65.5348 315.921 63.5497 314.069Z" fill="#008000" stroke="black" stroke-width="0.513785"/>
<path d="M59.1879 307.684C56.6085 308.196 54.8865 309.794 55.3442 311.252C55.802 312.71 58.267 313.478 60.8464 312.966C63.4259 312.454 67.218 310.323 68.2443 308.693C66.6143 307.644 61.7674 307.172 59.1879 307.684Z" fill="#008000" stroke="black" stroke-width="0.468953"/>
<path d="M54.7064 315.034C54.4857 312.061 55.3527 309.62 56.6417 309.584C57.9307 309.549 59.1559 311.932 59.3767 314.905C59.5974 317.878 58.8091 322.749 57.7456 324.45C56.4988 323.071 54.9272 318.006 54.7064 315.034Z" fill="#008000" stroke="black" stroke-width="0.459755"/>
<path d="M51.9845 288.287C52.1582 291.138 51.2314 293.543 49.9157 293.655C48.6 293.767 47.3913 291.544 47.2176 288.693C47.0439 285.842 47.9325 281.1 49.047 279.396C50.2951 280.65 51.8108 285.435 51.9845 288.287Z" fill="#008000" stroke="black" stroke-width="0.455616"/>
<path d="M53.287 297.161C51.0771 298.714 48.7385 298.889 48.0669 297.553C47.3953 296.216 48.6438 293.871 50.8536 292.318C53.0635 290.765 57.2593 289.427 59.1185 289.786C58.6645 291.708 55.4968 295.608 53.287 297.161Z" fill="#008000" stroke="black" stroke-width="0.469086"/>
<path d="M49.642 293.571C51.1266 295.899 51.3928 298.378 50.2362 299.104C49.0796 299.83 46.9361 298.531 45.4515 296.203C43.9668 293.875 42.5796 289.439 42.8117 287.463C44.5411 287.924 48.1574 291.244 49.642 293.571Z" fill="#008000" stroke="black" stroke-width="0.455607"/>
<path d="M42.227 299.712C42.4007 302.563 41.4739 304.968 40.1582 305.08C38.8425 305.192 37.6337 302.969 37.46 300.118C37.2863 297.267 38.1749 292.525 39.2894 290.821C40.5376 292.076 42.0532 296.861 42.227 299.712Z" fill="#008000" stroke="black" stroke-width="0.455616"/>
<path d="M39.6762 315.618C38.5337 317.502 36.8827 318.448 35.9908 317.729C35.0989 317.01 35.3023 314.898 36.4447 313.014C37.5871 311.13 40.2412 308.702 41.7042 308.307C41.9521 309.838 40.8186 313.734 39.6762 315.618Z" fill="#008000" stroke="black" stroke-width="0.371095"/>
<path d="M32.0468 299.558C32.2205 302.409 31.2937 304.814 29.978 304.926C28.6623 305.038 27.4535 302.815 27.2798 299.964C27.1061 297.113 27.9947 292.371 29.1093 290.667C30.3574 291.921 31.8731 296.706 32.0468 299.558Z" fill="#008000" stroke="black" stroke-width="0.455616"/>
<path d="M23.4341 306.054C24.666 306.919 25.1855 308.483 24.5935 309.546C24.0016 310.608 22.5213 310.768 21.2893 309.903C20.0573 309.038 18.5786 306.685 18.4324 305.22C19.5416 304.69 22.2021 305.19 23.4341 306.054Z" fill="#008000" stroke="black" stroke-width="0.316592"/>
<path d="M19.952 322.432C21.2596 321.084 22.9217 320.857 23.6622 321.926C24.4027 322.995 23.9425 324.957 22.635 326.305C21.3274 327.654 18.5393 328.897 17.1232 328.669C17.0877 327.082 18.6445 323.78 19.952 322.432Z" fill="#008000" stroke="black" stroke-width="0.363203"/>
<path d="M32.5623 306.154C31.3303 307.019 30.8108 308.583 31.4028 309.646C31.9948 310.708 33.4751 310.868 34.707 310.003C35.939 309.138 37.4178 306.784 37.564 305.32C36.4547 304.79 33.7942 305.29 32.5623 306.154Z" fill="#008000" stroke="black" stroke-width="0.31691"/>
<path d="M268.049 293.946C268.049 297.322 265.9 300.058 263.25 300.058C260.599 300.058 258.451 297.322 258.451 293.946C258.451 290.571 260.599 287.835 263.25 287.835C265.9 287.835 268.049 290.571 268.049 293.946Z" fill="#E6E6E6" stroke="black" stroke-width="0.175088"/>
<path fill-rule="evenodd" clip-rule="evenodd" d="M265.233 298.725C265.233 298.725 261.449 293.014 260.013 293.631C258.577 294.249 257.533 289.309 257.533 289.309H261.057V280.357L263.798 283.753L267.191 278.505L269.279 285.142L273.977 284.37L269.932 291.625L271.889 295.175L266.799 296.101L265.233 298.725Z" fill="#40823A" stroke="black" stroke-width="0.262633"/>
<path fill-rule="evenodd" clip-rule="evenodd" d="M294.599 325.736C294.599 325.736 295.512 340.09 297.6 336.695C299.689 333.299 300.994 337.003 302.168 337.929C303.343 338.855 303.212 331.447 303.212 331.447C303.212 331.447 305.3 329.44 305.561 330.521C305.822 331.601 302.951 317.864 294.599 325.736Z" fill="#40823A" stroke="black" stroke-width="0.175088"/>
<path fill-rule="evenodd" clip-rule="evenodd" d="M284.911 328.833C284.911 328.833 285.665 339.625 287.389 337.072C289.113 334.519 290.19 337.304 291.16 338C292.13 338.696 292.022 333.126 292.022 333.126C292.022 333.126 293.746 331.618 293.962 332.43C294.177 333.243 291.807 322.915 284.911 328.833Z" fill="#40823A" stroke="black" stroke-width="0.137944"/>
<path fill-rule="evenodd" clip-rule="evenodd" d="M299.114 318.014C299.114 318.014 311.576 319.941 309.237 316.925C306.898 313.909 310.396 313.218 311.495 312.103C312.594 310.988 306.252 309.615 306.252 309.615C306.252 309.615 305.096 306.883 306.085 306.815C307.074 306.746 294.62 307.121 299.114 318.014Z" fill="#40823A" stroke="black" stroke-width="0.175088"/>
<path fill-rule="evenodd" clip-rule="evenodd" d="M253.491 312.311C253.491 312.311 244.627 317.724 247.413 318.616C250.2 319.509 248.233 321.914 247.995 323.315C247.757 324.716 252.435 322.244 252.435 322.244C252.435 322.244 254.337 323.577 253.727 324.166C253.118 324.754 261.003 317.691 253.491 312.311Z" fill="#40823A" stroke="black" stroke-width="0.145989"/>
<path fill-rule="evenodd" clip-rule="evenodd" d="M290.809 307.471C295.898 309.383 300.384 298.584 296.836 298.422C293.289 298.26 295.165 294.916 295.162 293.246C295.158 291.577 290.026 295.829 290.026 295.829C290.026 295.829 287.455 294.894 288.068 294.036C288.682 293.178 285.72 305.558 290.809 307.471Z" fill="#40823A" stroke="black" stroke-width="0.175088"/>
<path fill-rule="evenodd" clip-rule="evenodd" d="M258.532 299.619C258.532 299.619 249.389 305.336 252.341 306.091C255.294 306.847 253.3 309.3 253.093 310.69C252.885 312.079 257.721 309.44 257.721 309.44C257.721 309.44 259.758 310.668 259.136 311.274C258.514 311.88 266.58 304.582 258.532 299.619Z" fill="#40823A" stroke="black" stroke-width="0.148473"/>
<path fill-rule="evenodd" clip-rule="evenodd" d="M280.633 312.786C280.633 312.786 287.181 307.169 284.877 307.064C282.572 306.959 283.911 304.844 283.968 303.788C284.024 302.731 280.533 305.417 280.533 305.417C280.533 305.417 278.891 304.824 279.321 304.281C279.751 303.739 274.139 310.356 280.633 312.786Z" fill="#195845" stroke="black" stroke-width="0.112406"/>
<path d="M300.834 318.556C300.834 321.268 299.099 323.467 296.958 323.467C294.817 323.467 293.082 321.268 293.082 318.556C293.082 315.844 294.817 313.645 296.958 313.645C299.099 313.645 300.834 315.844 300.834 318.556Z" fill="#E6E6E6" stroke="black" stroke-width="0.175088"/>
<path fill-rule="evenodd" clip-rule="evenodd" d="M174.824 321.985C174.824 321.985 195.496 328.097 191.805 335.082C188.113 342.067 181.653 350.143 181.653 350.143C181.653 350.143 182.207 343.813 177.777 341.63C173.348 339.447 166.334 330.17 172.24 328.861C178.146 324.168 174.455 321.112 174.824 321.985Z" fill="url(#paint20_linear_38_422)" stroke="black" stroke-width="0.875442"/>
<path fill-rule="evenodd" clip-rule="evenodd" d="M269.149 320.148C269.149 320.148 266.017 339.904 244.091 328.791C222.165 317.678 181.446 294.835 177.27 308.417C173.093 322 169.961 331.261 169.961 331.261C169.961 331.261 178.314 319.53 197.629 328.174C216.945 336.817 251.399 354.105 251.399 354.105C251.399 354.105 267.061 357.192 267.583 341.139C268.105 325.087 268.105 320.765 269.149 320.148Z" fill="url(#paint21_linear_38_422)" stroke="black" stroke-width="0.875442"/>
<path fill-rule="evenodd" clip-rule="evenodd" d="M252.874 339.275C250.146 342.72 256.395 352.198 261.802 337.982C273.221 323.938 254.525 335.73 252.874 339.275Z" fill="#C8BCCA" stroke="black" stroke-width="1.0151"/>
<path fill-rule="evenodd" clip-rule="evenodd" d="M253.81 323.044L252.333 339.415C252.333 339.415 264.33 333.958 266.176 347.273C267.099 345.745 275.405 330.029 275.405 330.029C275.405 330.029 270.421 311.038 253.81 323.044Z" fill="url(#paint22_linear_38_422)" stroke="black" stroke-width="0.437721"/>
<path fill-rule="evenodd" clip-rule="evenodd" d="M42.061 320.025C42.061 320.025 45.1933 339.781 67.119 328.668C89.0446 317.555 129.764 294.712 133.94 308.294C138.116 321.877 141.249 331.138 141.249 331.138C141.249 331.138 132.896 319.407 113.581 328.051C94.2651 336.694 59.8104 353.982 59.8104 353.982C59.8104 353.982 44.1492 357.068 43.6272 341.016C43.1051 324.964 43.1051 320.642 42.061 320.025Z" fill="url(#paint23_linear_38_422)" stroke="black" stroke-width="0.875442"/>
<path fill-rule="evenodd" clip-rule="evenodd" d="M56.9009 340.597C59.2292 344.066 53.8962 353.612 49.2819 339.295C39.5365 325.152 55.492 337.027 56.9009 340.597Z" fill="#C8BCCA" stroke="black" stroke-width="0.941081"/>
<path fill-rule="evenodd" clip-rule="evenodd" d="M57.3405 322.556L57.773 342.94C57.773 342.94 45.5149 333.47 43.6692 346.785C42.7464 345.257 38.0951 330.467 38.0951 330.467C38.0951 330.467 37.336 310.551 57.3405 322.556Z" fill="url(#paint24_linear_38_422)" stroke="black" stroke-width="0.437721"/>
<path d="M82.4817 331.649L83.8853 335.29L84.067 335.761C84.3302 336.444 84.2262 336.586 83.0075 337.134L82.7367 337.256L83.0312 338.02L87.966 335.8L87.6715 335.036L87.4007 335.158C86.1821 335.706 86.0153 335.685 85.7521 335.003L85.5704 334.532L82.5877 326.796L82.406 326.324C82.1428 325.642 82.2469 325.499 83.4655 324.951L83.7363 324.829L83.4418 324.066L78.5672 326.259L78.8617 327.023L79.0723 326.928C80.291 326.379 80.4577 326.4 80.7209 327.082L80.9026 327.554L82.1433 330.772L77.1032 333.039L75.8624 329.821L75.6807 329.35C75.4175 328.667 75.5216 328.525 76.7403 327.977L77.0262 327.848L76.7316 327.084L71.7817 329.311L72.0763 330.075L72.3471 329.953C73.5657 329.405 73.7325 329.426 73.9956 330.108L74.1774 330.579L77.1601 338.315L77.3418 338.787C77.605 339.469 77.5009 339.612 76.2823 340.16L76.0114 340.282L76.306 341.045L81.2558 338.818L80.9613 338.055L80.6754 338.183C79.4568 338.731 79.29 338.711 79.0269 338.029L78.8452 337.557L77.4416 333.917L82.4817 331.649ZM102.715 323.156L103.607 322.82C104.207 322.594 104.887 322.562 105.323 322.734C105.892 322.948 106.316 323.46 106.778 324.516L107.128 325.335C107.919 327.144 108.735 327.694 109.951 327.237C111.334 326.416 110.989 325.274 110.144 325.747C109.79 325.881 109.545 325.656 108.913 324.607L108.329 323.653C107.497 322.251 106.671 321.778 105.364 321.898C107.473 320.731 108.223 319.367 107.682 317.688C107.07 315.793 105.244 315.268 102.659 316.242L97.3335 318.246L97.5856 319.028L97.8626 318.923C99.1092 318.454 99.2746 318.485 99.4998 319.183L99.6554 319.665L102.214 327.595L102.788 329.759L106.254 328.349L106.002 327.568L105.725 327.672C104.478 328.141 104.313 328.11 104.088 327.412L103.938 326.946L102.715 323.156ZM102.463 322.375L101.283 318.717C101.068 318.052 101.067 317.997 101.178 317.806C101.269 317.66 101.372 317.602 102.033 317.353L102.864 317.04C104.388 316.467 105.306 316.904 105.794 318.417C106.068 319.265 106.077 319.989 105.789 320.488C105.517 320.982 104.894 321.459 104.155 321.737L102.463 322.375Z" fill="#800000"/>
<path d="M144.277 331.751L146.384 331.568L151.963 341.641L152.035 331.122L153.879 331.145L153.88 344.862L151.773 344.852L145.728 334.663L146.087 345.056L144.517 345.044L144.277 331.751ZM160.627 335.652L159.229 339.885L161.643 339.835M160.229 330.947L161.235 330.99L164.704 344.985L162.995 345.014L162.116 341.457L158.732 341.334L157.696 344.962L155.785 344.99L160.401 330.947" fill="#800000"/>
<path d="M204.452 313.277L198.821 311.414L198.641 312.205L198.911 312.291C200.065 312.658 200.174 312.783 200.013 313.49L199.902 313.979L198.436 320.43C197.915 322.72 197.519 323.118 196.137 322.751L195.957 323.542L200.015 324.833L200.195 324.041C198.858 323.544 198.684 322.965 199.205 320.674L200.897 313.23L201.767 325.39L202.337 325.571L209.989 316.193L207.941 325.204L207.83 325.692C207.665 326.416 207.522 326.443 206.368 326.076L206.112 325.994L205.932 326.786L210.603 328.271L210.783 327.48L210.527 327.398C209.373 327.031 209.26 326.923 209.425 326.199L209.536 325.711L211.358 317.694L211.469 317.205C211.63 316.498 211.778 316.454 212.931 316.821L213.187 316.903L213.367 316.111L209.793 314.975L203.188 322.428L202.495 312.582M232.562 328.7L232.974 327.751C232.83 327.903 231.369 327.115 231.261 326.931L231.079 327.88L229.067 332.966C228.517 334.356 228.227 334.966 227.905 335.366C227.295 336.126 226.691 336.027 225.916 335.598C225.355 335.288 225.202 334.846 225.09 334.265C224.401 331.111 222.376 333.745 223.922 335.331C224.181 336.033 224.917 336.293 225.732 336.744C226.908 337.394 227.944 337.409 228.761 336.783C229.359 336.344 229.887 335.461 230.493 333.929L232.562 328.7ZM241.348 331.234L240.799 330.896L233.815 338.054C233.199 338.697 232.222 339.865 231.917 339.991L233.231 340.709L235.31 338.779L238.905 340.763L238.827 342.19C238.803 342.47 238.781 342.595 238.747 342.672L238.643 344.188L240.547 345.279L241.348 331.234ZM239.589 333.375L239.129 338.678L236.755 337.411L240.144 333.915" fill="#800000"/>
<path fill-rule="evenodd" clip-rule="evenodd" d="M83.4329 167.76L93.6779 176.403Z" fill="#FF6804"/>
<path d="M83.4329 167.76L93.6779 176.403" stroke="#2B1100" stroke-width="0.612809"/>
<path fill-rule="evenodd" clip-rule="evenodd" d="M81.6057 170.769L93.2211 179.567Z" fill="#FF6804"/>
<path d="M81.6057 170.769L93.2211 179.567" stroke="#2B1100" stroke-width="0.612809"/>
<path fill-rule="evenodd" clip-rule="evenodd" d="M79.3872 173.393L91.3941 182.037Z" fill="#FF6804"/>
<path d="M79.3872 173.393L91.3941 182.037" stroke="#2B1100" stroke-width="0.612809"/>
<path opacity="0.474843" fill-rule="evenodd" clip-rule="evenodd" d="M80.8277 65.0211C80.8277 65.0211 77.1548 56.3378 73.2734 58.5316C70.9669 60.4715 67.1116 62.253 66.9076 58.7535C66.5384 52.4233 63.9264 53.5547 64.9547 64.6937C65.2176 67.5416 68.4615 72.3336 68.4615 72.3336C68.4615 72.3336 73.3526 74.6255 73.9986 73.3158C74.6446 72.0061 73.4868 70.0062 73.4868 69.3514C73.4868 68.6965 75.6561 70.9801 76.7028 70.1441C78.211 69.6356 80.8277 65.0211 80.8277 65.0211Z" fill="url(#paint25_linear_38_422)"/>
<path opacity="0.556604" fill-rule="evenodd" clip-rule="evenodd" d="M79.6809 66.6226L78.2783 63.5449C78.2783 63.5449 72.2418 66.8155 71.1978 68.1274C70.1537 69.4394 68.9138 68.2047 68.9138 68.2047C68.9138 68.2047 68.9791 72.5264 69.2727 72.5264C69.5664 72.5264 74.0984 73.5391 74.0984 73.5391C74.0984 73.5391 72.8618 70.0954 73.0902 70.0954C73.3185 70.0954 76.0933 70.8109 76.6806 70.2321C77.2679 69.6533 79.3161 67.1944 79.6809 66.6226Z" fill="#361E0F"/>
<path fill-rule="evenodd" clip-rule="evenodd" d="M59.0277 54.5447C59.0277 54.5447 61.6379 56.3197 61.5074 57.7088C61.3769 59.098 60.7243 65.2719 61.3769 66.2752C62.0294 67.2785 67.7719 73.9927 68.0329 73.9927C68.2939 73.9927 65.2921 72.7579 63.7913 72.6807C62.2904 72.6036 59.7455 77.3883 59.2887 76.5394C58.8319 75.6905 60.9853 71.909 60.6591 70.597C60.3328 69.285 59.4192 62.9567 59.9413 61.9534C60.4633 60.9502 59.4845 57.0143 58.7014 57.1686C57.9184 57.323 58.5709 54.5447 59.0277 54.5447Z" fill="#0F0804" fill-opacity="0.308682"/>
<path fill-rule="evenodd" clip-rule="evenodd" d="M46.499 84.7971C46.499 84.7971 46.7845 99.1868 37.6243 103.01C36.515 103.473 37.9643 107.541 38.4074 109.493C42.4395 106.969 53.0245 101.158 46.499 84.7971Z" fill="#2E1A0C"/>
<path fill-rule="evenodd" clip-rule="evenodd" d="M49.7273 91.7607C49.7273 91.7607 49.5879 103.678 39.0223 112.388C39.2068 127.559 30.4398 137.709 31.0858 138.801C32.3778 138.801 35.9769 138.255 35.9769 138.255C35.9769 138.255 41.6985 115.99 40.6834 113.589C41.6985 111.406 52.8649 102.129 49.7273 91.7607Z" fill="#2E1A0C"/>
<path fill-rule="evenodd" clip-rule="evenodd" d="M52.9243 94.9253C52.9243 94.9253 52.8114 104.927 44.2536 112.236C44.4031 124.968 37.6936 138.117 38.2168 139.032C39.2633 139.032 39.9598 137.803 39.9598 137.803C39.9598 137.803 46.4212 115.259 45.599 113.244C46.4212 111.412 55.4657 103.627 52.9243 94.9253Z" fill="#2E1A0C"/>
<path fill-rule="evenodd" clip-rule="evenodd" d="M49.82 59.5641L45.7595 68.5136C45.7595 68.5136 40.9607 73.3159 40.2224 73.0976C39.4841 72.8793 50.0045 74.8438 49.82 76.3718C49.6354 77.8998 54.0651 63.0566 54.0651 63.0566C54.0651 63.0566 57.5719 61.3103 57.7564 63.0566C57.941 64.8028 57.3873 84.0117 56.649 84.0117C55.9107 84.0117 56.0953 88.8139 56.8336 90.1236C57.5719 91.4333 58.4947 95.5806 58.4947 95.5806C58.4947 95.5806 43.4551 58.2002 29.5174 87.5042C24.534 97.9817 33.7625 108.678 33.7625 108.678L28.7791 111.297L25.2723 126.14C25.2723 126.14 31.9168 103.439 24.1649 89.4687C22.5289 86.5204 48.3434 60.0007 49.82 59.5641Z" fill="#502D15"/>
<path fill-rule="evenodd" clip-rule="evenodd" d="M109.505 67.1001C109.505 67.1001 110.705 67.9176 110.336 69.2273C109.966 70.5369 97.7618 123.443 96.442 125.499C93.6183 129.899 97.0072 121.72 95.3461 120.519C93.685 119.319 109.505 66.9909 109.505 67.1001Z" fill="#502D16"/>
<path d="M119.725 48.1588C119.725 48.1588 111.974 51.1602 109.205 56.3989" stroke="black" stroke-width="0.437721"/>
<path fill-rule="evenodd" clip-rule="evenodd" d="M67.35 164.538C65.1698 169.719 55.2648 169.128 45.2267 163.219C35.1886 157.31 28.8184 148.321 30.9987 143.14C33.1789 137.96 43.0838 138.551 53.1219 144.459C61.0607 149.133 66.9619 155.924 67.6973 161.234" fill="url(#paint26_radial_38_422)"/>
<path fill-rule="evenodd" clip-rule="evenodd" d="M69.4304 163.486C56.6029 163.705 32.5166 141.876 31.5938 142.64C31.5938 144.168 32.0552 148.425 32.0552 148.425C46.6983 151.357 49.5512 165.865 69.4304 163.486Z" fill="#2E1A0C"/>
<path fill-rule="evenodd" clip-rule="evenodd" d="M221.931 175.472C235.312 169.687 235.312 169.687 235.312 169.687Z" fill="#502D15"/>
<path d="M221.931 175.472C235.312 169.687 235.312 169.687 235.312 169.687" stroke="#502D15" stroke-width="0.875442"/>
<path fill-rule="evenodd" clip-rule="evenodd" d="M222.3 179.401C235.219 173.944 235.219 173.944 235.219 173.944Z" fill="#502D15"/>
<path d="M222.3 179.401C235.219 173.944 235.219 173.944 235.219 173.944" stroke="#502D15" stroke-width="0.875442"/>
<path fill-rule="evenodd" clip-rule="evenodd" d="M225.53 181.693C236.327 177.655 235.035 177.982 235.035 177.982Z" fill="#502D15"/>
<path d="M225.53 181.693C236.327 177.655 235.035 177.982 235.035 177.982" stroke="#502D15" stroke-width="0.875442"/>
<path fill-rule="evenodd" clip-rule="evenodd" d="M254.138 65.2394C254.138 65.2394 247.309 40.7918 248.416 41.2283C249.524 41.6649 262.074 68.5136 262.074 68.5136L254.138 65.2394Z" fill="#FCE521"/>
<path fill-rule="evenodd" clip-rule="evenodd" d="M256.852 60.1013C256.852 70.7065 250.788 79.3037 243.308 79.3037C235.827 79.3037 229.763 70.7065 229.763 60.1013C229.763 49.4961 235.827 40.8988 243.308 40.8988C249.224 40.8988 254.455 46.3423 256.229 54.3436" fill="url(#paint27_radial_38_422)"/>
<path opacity="0.72327" fill-rule="evenodd" clip-rule="evenodd" d="M242.778 55.1966C242.778 55.1966 238.511 41.3081 239.203 41.5561C239.895 41.8041 247.738 58.5846 247.738 58.5846L242.778 55.1966Z" fill="#FCE521"/>
<path fill-rule="evenodd" clip-rule="evenodd" d="M217.675 319.072C214.037 319.072 212.107 322.389 212.107 326.478C212.107 330.568 214.037 333.885 217.675 333.885C221.313 333.885 224.255 330.568 224.255 326.478C224.255 322.389 221.313 319.072 217.675 319.072ZM217.749 320.264C219.829 320.264 223.026 321.878 222.928 326.687C222.837 331.156 219.768 332.666 217.688 332.666C215.608 332.666 213.178 330.473 213.148 326.482C213.112 321.808 215.669 320.264 217.749 320.264Z" fill="#800000"/>
<path d="M63.7885 341.854L61.1926 334.689L63.1009 333.74L65.6699 340.831C66.0758 341.951 66.5951 342.687 67.228 343.037C67.8583 343.381 68.6022 343.339 69.4595 342.912C70.4897 342.4 71.1808 341.661 71.5329 340.696C71.8919 339.728 71.8621 338.666 71.4435 337.51L69.0122 330.799L70.9205 329.85L75.2087 341.686L73.3004 342.636L72.6419 340.818C72.439 341.767 72.0937 342.571 71.606 343.229C71.1226 343.877 70.4765 344.402 69.6676 344.805C68.3332 345.468 67.1671 345.55 66.1694 345.048C65.1717 344.546 64.3781 343.482 63.7885 341.854Z" fill="#800000"/>
<path d="M87.4685 330.806L85.1641 323.503L87.1083 322.662L89.389 329.89C89.7492 331.032 90.2384 331.796 90.8564 332.181C91.4722 332.56 92.2168 332.56 93.0904 332.183C94.14 331.729 94.8601 331.03 95.2507 330.086C95.6483 329.138 95.6613 328.076 95.2898 326.898L93.1316 320.058L95.0759 319.217L98.8825 331.282L96.9382 332.122L96.3536 330.27C96.1128 331.206 95.7355 331.99 95.2218 332.62C94.7129 333.24 94.0463 333.728 93.2221 334.084C91.8625 334.672 90.6945 334.687 89.7182 334.13C88.7418 333.573 87.9919 332.465 87.4685 330.806Z" fill="#800000"/>
<path d="M110.281 321.656L108.027 314.33L109.977 313.508L112.207 320.758C112.56 321.903 113.044 322.672 113.659 323.063C114.272 323.448 115.017 323.455 115.893 323.086C116.946 322.642 117.671 321.95 118.068 321.01C118.472 320.066 118.492 319.004 118.129 317.823L116.017 310.962L117.968 310.14L121.691 322.241L119.741 323.063L119.169 321.204C118.922 322.139 118.539 322.918 118.021 323.543C117.508 324.158 116.838 324.64 116.012 324.989C114.648 325.563 113.48 325.568 112.507 325.001C111.535 324.435 110.793 323.319 110.281 321.656Z" fill="#800000"/>
<path d="M183.166 314.248L184.661 306.656L186.674 307.227L185.195 314.741C184.961 315.928 185.011 316.884 185.346 317.609C185.682 318.328 186.302 318.815 187.207 319.071C188.294 319.38 189.22 319.268 189.987 318.737C190.761 318.208 191.269 317.331 191.51 316.107L192.91 308.996L194.923 309.567L192.454 322.109L190.441 321.538L190.82 319.612C190.181 320.235 189.501 320.641 188.778 320.83C188.064 321.013 187.281 320.984 186.427 320.742C185.02 320.343 184.039 319.592 183.486 318.489C182.933 317.386 182.827 315.972 183.166 314.248Z" fill="#800000"/>
<path fill-rule="evenodd" clip-rule="evenodd" d="M208.474 81.2257C208.474 81.2257 202.987 73.6559 203.284 74.9908C203.582 76.3258 213.356 126.774 214.561 128.926C217.141 133.53 217.008 127.156 216.571 124.913C215.894 121.439 208.295 81.9899 208.474 81.2257Z" fill="#502D16"/>
<path d="M234.712 61.0375C234.712 61.0375 237.437 60.4639 238.865 57.9816C239.465 56.9447 240.618 57.3267 240.618 57.3267" stroke="#2E1A0C" stroke-width="0.700353"/>
<path d="M234.942 61.2012C234.942 61.2012 233.327 55.635 238.68 57.5996" stroke="#2E1A0C" stroke-width="0.350177"/>
<path fill-rule="evenodd" clip-rule="evenodd" d="M46.682 89.9053C46.682 98.4647 42.1371 105.403 36.5307 105.403C30.9243 105.403 26.3794 98.4647 26.3794 89.9053C26.3794 81.346 30.9243 74.4073 36.5307 74.4073C40.9646 74.4073 44.8855 78.8007 46.2149 85.2584" fill="url(#paint28_radial_38_422)"/>
<path fill-rule="evenodd" clip-rule="evenodd" d="M276.951 94.9841C276.951 101.498 273.867 106.778 270.062 106.778C266.258 106.778 263.174 101.498 263.174 94.9841C263.174 88.4706 266.258 83.1904 270.062 83.1904C273.071 83.1904 275.732 86.5337 276.634 91.4479" fill="url(#paint29_radial_38_422)"/>
<path fill-rule="evenodd" clip-rule="evenodd" d="M280.736 126.163C280.736 135.404 278.587 142.895 275.935 142.895C273.284 142.895 271.135 135.404 271.135 126.163C271.135 116.921 273.284 109.43 275.935 109.43C278.032 109.43 279.886 114.173 280.515 121.145" fill="url(#paint30_radial_38_422)"/>
<path fill-rule="evenodd" clip-rule="evenodd" d="M283.493 121.797C283.22 112.693 284.106 102.77 283.256 96.5032C281.845 86.1044 279.519 87.5466 273.82 86.0208C277.267 91.2195 280.107 107.362 274.492 109.39C280.623 115.74 276.491 123.344 277.571 138.469C277.936 148.344 284.504 159.288 283.493 121.797Z" fill="#2E1A0C"/>
<path fill-rule="evenodd" clip-rule="evenodd" d="M88.4778 216.936C78.5111 223.671 79.872 250.272 61.8986 242.85C49.1117 237.57 23.7046 221.029 23.7046 196.832C23.7046 172.636 43.6099 143.003 48.7516 157.822C57.3206 182.517 55.0835 174.658 70.6251 193.884" fill="url(#paint31_radial_38_422)"/>
<path fill-rule="evenodd" clip-rule="evenodd" d="M236.521 220.315C242.786 226.04 239.315 243.523 248.006 239.763C252.633 207.009 288.986 196.664 295.773 172.467C302.214 149.501 272.774 150.241 259.23 150.241C248.312 150.241 233.354 195.664 230.081 214.272" fill="url(#paint32_radial_38_422)"/>
<path fill-rule="evenodd" clip-rule="evenodd" d="M75.0476 72.0633C75.0476 72.0633 74.493 73.2595 74.1014 73.2209C73.7099 73.1823 72.1112 71.5231 72.0459 70.9057C71.9807 70.2883 71.4586 68.4361 71.8175 68.3589C72.1764 68.2818 76.8422 69.8638 76.7769 70.4041C76.7117 70.9443 75.5371 71.0986 75.5371 71.0986L73.4163 70.0954C73.4163 70.0954 74.3298 71.06 75.0476 72.0633Z" fill="#0F0804"/>
<path fill-rule="evenodd" clip-rule="evenodd" d="M240.751 293.84C241.076 295.971 236.002 298.834 229.42 300.234C222.838 301.634 217.24 301.04 216.916 298.908C216.592 296.776 221.665 293.914 228.247 292.514C233.452 291.407 238.222 291.522 240.027 292.799" fill="url(#paint33_radial_38_422)"/>
<path fill-rule="evenodd" clip-rule="evenodd" d="M243.109 285.105C243.109 285.105 238.594 287.639 238.659 288.488C238.724 289.337 237.68 293.492 237.639 294.494C237.447 299.163 231.032 300.849 226.007 301.158C225.482 301.19 220.461 297.839 221.048 295.331C221.048 295.331 212.257 294.826 215.421 298.376C218.586 301.926 223.273 304.203 223.273 304.203C223.273 304.203 234.11 302.84 235.48 303.226C236.85 303.612 245.778 304.737 247.592 303.075C248.622 300.874 247.878 297.699 247.878 297.699C245.398 293.532 244.286 286.496 244.286 286.496L243.109 285.105ZM242.315 288.037C243.897 289.129 243.149 291.197 241.95 291.511C241.95 293.68 243.435 295.895 242.315 295.895C241.194 295.895 240.28 294.116 240.28 291.947C240.28 289.778 241.194 288.037 242.315 288.037ZM217.106 295.669C217.667 295.669 218.124 295.947 218.124 296.308C218.124 296.67 217.667 296.985 217.106 296.985C216.546 296.985 216.089 296.67 216.089 296.308C216.089 295.947 216.546 295.669 217.106 295.669ZM218.187 297.211C218.289 297.188 218.419 297.211 218.537 297.211C219.008 297.211 219.395 297.383 219.395 297.624C219.395 297.865 219.008 298.075 218.537 298.075C218.066 298.075 217.678 297.865 217.678 297.624C217.678 297.443 217.881 297.277 218.187 297.211ZM219.935 298.564C220.368 298.564 220.73 298.834 220.73 299.165C220.73 299.497 220.368 299.767 219.935 299.767C219.502 299.767 219.141 299.497 219.141 299.165C219.141 298.834 219.502 298.564 219.935 298.564ZM221.875 300.256C222.308 300.256 222.669 300.526 222.669 300.857C222.669 301.189 222.308 301.459 221.875 301.459C221.442 301.459 221.08 301.189 221.08 300.857C221.08 300.526 221.442 300.256 221.875 300.256ZM224.863 301.008C225.296 301.008 225.657 301.278 225.657 301.609C225.657 301.94 225.296 302.211 224.863 302.211C224.43 302.211 224.1 301.94 224.1 301.609C224.1 301.278 224.43 301.008 224.863 301.008Z" fill="#1F1207"/>
<path fill-rule="evenodd" clip-rule="evenodd" d="M94.3676 295.329C94.3676 297.92 91.1114 298.17 85.6519 298.17C80.1925 298.17 75.3701 289.585 75.3701 286.994C75.3701 284.403 78.7569 293.105 84.2163 293.105C88.6173 293.105 92.5929 291.929 93.9125 293.922" fill="url(#paint34_radial_38_422)"/>
<path opacity="0.679245" fill-rule="evenodd" clip-rule="evenodd" d="M30.297 309.886C30.297 310.771 29.704 311.489 28.9726 311.489C28.2411 311.489 27.6482 310.771 27.6482 309.886C27.6482 309 28.2411 308.282 28.9726 308.282C29.704 308.282 30.297 309 30.297 309.886Z" fill="#FF0000"/>
<path opacity="0.679245" fill-rule="evenodd" clip-rule="evenodd" d="M36.0021 314.467C36.0021 315.352 35.4091 316.07 34.6777 316.07C33.9462 316.07 33.3533 315.352 33.3533 314.467C33.3533 313.581 33.9462 312.863 34.6777 312.863C35.4091 312.863 36.0021 313.581 36.0021 314.467Z" fill="#FF0000"/>
<path opacity="0.679245" fill-rule="evenodd" clip-rule="evenodd" d="M31.9266 318.131C31.9266 319.017 31.3337 319.735 30.6022 319.735C29.8708 319.735 29.2778 319.017 29.2778 318.131C29.2778 317.246 29.8708 316.528 30.6022 316.528C31.3337 316.528 31.9266 317.246 31.9266 318.131Z" fill="#FF0000"/>
<path opacity="0.679245" fill-rule="evenodd" clip-rule="evenodd" d="M25.2033 317.902C25.2033 318.788 24.6103 319.506 23.8788 319.506C23.1474 319.506 22.5544 318.788 22.5544 317.902C22.5544 317.017 23.1474 316.299 23.8788 316.299C24.6103 316.299 25.2033 317.017 25.2033 317.902Z" fill="#FF0000"/>
<path opacity="0.679245" fill-rule="evenodd" clip-rule="evenodd" d="M51.0721 301.049C51.0721 301.934 50.4792 302.652 49.7477 302.652C49.0163 302.652 48.4233 301.934 48.4233 301.049C48.4233 300.163 49.0163 299.446 49.7477 299.446C50.4792 299.446 51.0721 300.163 51.0721 301.049Z" fill="#FF0000"/>
<path opacity="0.679245" fill-rule="evenodd" clip-rule="evenodd" d="M53.3693 312.07C53.3693 312.955 52.7763 313.673 52.0449 313.673C51.3134 313.673 50.7205 312.955 50.7205 312.07C50.7205 311.184 51.3134 310.466 52.0449 310.466C52.7763 310.466 53.3693 311.184 53.3693 312.07Z" fill="#FF0000"/>
<path opacity="0.679245" fill-rule="evenodd" clip-rule="evenodd" d="M49.7262 309.886C49.7262 310.771 49.1332 311.489 48.4018 311.489C47.6703 311.489 47.0774 310.771 47.0774 309.886C47.0774 309 47.6703 308.282 48.4018 308.282C49.1332 308.282 49.7262 309 49.7262 309.886Z" fill="#FF0000"/>
<path opacity="0.679245" fill-rule="evenodd" clip-rule="evenodd" d="M49.9694 313.981C49.9694 314.866 49.3764 315.584 48.645 315.584C47.9135 315.584 47.3206 314.866 47.3206 313.981C47.3206 313.095 47.9135 312.378 48.645 312.378C49.3764 312.378 49.9694 313.095 49.9694 313.981Z" fill="#FF0000"/>
<path d="M64.364 85.1629C68.5273 97.973 59.8989 115.279 59.8989 115.279" stroke="black" stroke-width="0.26"/>
<defs>
<filter id="filter0_f_38_422" x="0.440083" y="250.197" width="315.104" height="112.002" filterUnits="userSpaceOnUse" color-interpolation-filters="sRGB">
<feFlood flood-opacity="0" result="BackgroundImageFix"/>
<feBlend mode="normal" in="SourceGraphic" in2="BackgroundImageFix" result="shape"/>
<feGaussianBlur stdDeviation="1.27996" result="effect1_foregroundBlur_38_422"/>
</filter>
<filter id="filter1_f_38_422" x="31.512" y="309.744" width="247.798" height="54.5737" filterUnits="userSpaceOnUse" color-interpolation-filters="sRGB">
<feFlood flood-opacity="0" result="BackgroundImageFix"/>
<feBlend mode="normal" in="SourceGraphic" in2="BackgroundImageFix" result="shape"/>
<feGaussianBlur stdDeviation="2.40501" result="effect1_foregroundBlur_38_422"/>
</filter>
<filter id="filter2_f_38_422" x="129.132" y="238.162" width="61.1238" height="38.6502" filterUnits="userSpaceOnUse" color-interpolation-filters="sRGB">
<feFlood flood-opacity="0" result="BackgroundImageFix"/>
<feBlend mode="normal" in="SourceGraphic" in2="BackgroundImageFix" result="shape"/>
<feGaussianBlur stdDeviation="1.67321" result="effect1_foregroundBlur_38_422"/>
</filter>
<filter id="filter3_f_38_422" x="6.96593" y="289.969" width="93.46" height="48.9533" filterUnits="userSpaceOnUse" color-interpolation-filters="sRGB">
<feFlood flood-opacity="0" result="BackgroundImageFix"/>
<feBlend mode="normal" in="SourceGraphic" in2="BackgroundImageFix" result="shape"/>
<feGaussianBlur stdDeviation="1.55293" result="effect1_foregroundBlur_38_422"/>
</filter>
<filter id="filter4_f_38_422" x="210.101" y="289.208" width="101.512" height="56.448" filterUnits="userSpaceOnUse" color-interpolation-filters="sRGB">
<feFlood flood-opacity="0" result="BackgroundImageFix"/>
<feBlend mode="normal" in="SourceGraphic" in2="BackgroundImageFix" result="shape"/>
<feGaussianBlur stdDeviation="2.36635" result="effect1_foregroundBlur_38_422"/>
</filter>
<filter id="filter5_f_38_422" x="184.686" y="263.897" width="33.5293" height="28.7593" filterUnits="userSpaceOnUse" color-interpolation-filters="sRGB">
<feFlood flood-opacity="0" result="BackgroundImageFix"/>
<feBlend mode="normal" in="SourceGraphic" in2="BackgroundImageFix" result="shape"/>
<feGaussianBlur stdDeviation="2.1308" result="effect1_foregroundBlur_38_422"/>
</filter>
<filter id="filter6_f_38_422" x="92.9668" y="262.459" width="33.7536" height="28.9836" filterUnits="userSpaceOnUse" color-interpolation-filters="sRGB">
<feFlood flood-opacity="0" result="BackgroundImageFix"/>
<feBlend mode="normal" in="SourceGraphic" in2="BackgroundImageFix" result="shape"/>
<feGaussianBlur stdDeviation="2.18687" result="effect1_foregroundBlur_38_422"/>
</filter>
<radialGradient id="paint0_radial_38_422" cx="0" cy="0" r="1" gradientUnits="userSpaceOnUse" gradientTransform="translate(257.448 118.609) rotate(7.24515) scale(7.11918 10.1882)">
<stop stop-color="#A6C3AD"/>
<stop offset="1" stop-color="#A6C3AD" stop-opacity="0"/>
</radialGradient>
<radialGradient id="paint1_radial_38_422" cx="0" cy="0" r="1" gradientUnits="userSpaceOnUse" gradientTransform="translate(74.1656 107.486) rotate(59.4457) scale(15.4542 10.9253)">
<stop stop-color="#D38D5F"/>
<stop offset="1" stop-color="#C87137" stop-opacity="0"/>
</radialGradient>
<radialGradient id="paint2_radial_38_422" cx="0" cy="0" r="1" gradientUnits="userSpaceOnUse" gradientTransform="translate(103.793 79.3949) rotate(18.2949) scale(4.6045 31.8649)">
<stop stop-color="#D38D5F"/>
<stop offset="1" stop-color="#C87137" stop-opacity="0"/>
</radialGradient>
<linearGradient id="paint3_linear_38_422" x1="153.505" y1="166.726" x2="150.816" y2="170.024" gradientUnits="userSpaceOnUse">
<stop stop-color="#D4AA00"/>
<stop offset="1" stop-color="#2B2200"/>
</linearGradient>
<linearGradient id="paint4_linear_38_422" x1="163.2" y1="168.485" x2="160.9" y2="165.675" gradientUnits="userSpaceOnUse">
<stop stop-color="#D4AA00"/>
<stop offset="1" stop-color="#2B2200"/>
</linearGradient>
<linearGradient id="paint5_linear_38_422" x1="153.416" y1="204.526" x2="156.798" y2="204.526" gradientUnits="userSpaceOnUse">
<stop stop-color="#6F5800"/>
<stop offset="1" stop-color="#E6B000"/>
</linearGradient>
<linearGradient id="paint6_linear_38_422" x1="121.769" y1="179.309" x2="128.922" y2="145.898" gradientUnits="userSpaceOnUse">
<stop stop-color="#2B2200"/>
<stop offset="0.214662" stop-color="#F3D559"/>
<stop offset="0.75" stop-color="#DB8F37"/>
<stop offset="1" stop-color="#C6A258"/>
</linearGradient>
<radialGradient id="paint7_radial_38_422" cx="0" cy="0" r="1" gradientUnits="userSpaceOnUse" gradientTransform="translate(183.099 165.758) rotate(-27.1125) scale(9.99077 24.5143)">
<stop stop-color="#C0693C"/>
<stop offset="0.382739" stop-color="#CF914E"/>
<stop offset="0.542169" stop-color="#D6A535"/>
<stop offset="1" stop-color="#E3DD69"/>
</radialGradient>
<linearGradient id="paint8_linear_38_422" x1="151.274" y1="120.005" x2="156.873" y2="120.005" gradientUnits="userSpaceOnUse">
<stop stop-color="#2B2200"/>
<stop offset="0.214662" stop-color="#F3D559"/>
<stop offset="0.64346" stop-color="#DB8F37"/>
<stop offset="1" stop-color="#7E534D"/>
</linearGradient>
<linearGradient id="paint9_linear_38_422" x1="140.38" y1="75.4987" x2="177.388" y2="75.4987" gradientUnits="userSpaceOnUse">
<stop stop-color="#DEC254"/>
<stop offset="0.174855" stop-color="#D6B93B"/>
<stop offset="0.331895" stop-color="#E2C545"/>
<stop offset="0.539416" stop-color="#7C593D"/>
<stop offset="0.787848" stop-color="#CEAE64"/>
<stop offset="1" stop-color="#D7B669"/>
</linearGradient>
<radialGradient id="paint10_radial_38_422" cx="0" cy="0" r="1" gradientUnits="userSpaceOnUse" gradientTransform="translate(151.492 67.3243) rotate(-8.48424) scale(28.1093 44.0581)">
<stop stop-color="#F0DA27"/>
<stop offset="1" stop-color="#B35A32"/>
</radialGradient>
<radialGradient id="paint11_radial_38_422" cx="0" cy="0" r="1" gradientUnits="userSpaceOnUse" gradientTransform="translate(69.2075 50.5316) scale(14.3276 18.8937)">
<stop stop-color="#C87137"/>
<stop offset="1" stop-color="#C87137" stop-opacity="0"/>
</radialGradient>
<radialGradient id="paint12_radial_38_422" cx="0" cy="0" r="1" gradientUnits="userSpaceOnUse" gradientTransform="translate(252.698 113.698) scale(6.49702 22.2648)">
<stop stop-color="#C87137"/>
<stop offset="1" stop-color="#C87137" stop-opacity="0"/>
</radialGradient>
<radialGradient id="paint13_radial_38_422" cx="0" cy="0" r="1" gradientUnits="userSpaceOnUse" gradientTransform="translate(228.909 218.849) rotate(84.1544) scale(62.6686 19.1779)">
<stop stop-color="#C87137"/>
<stop offset="1" stop-color="#C87137" stop-opacity="0"/>
</radialGradient>
<radialGradient id="paint14_radial_38_422" cx="0" cy="0" r="1" gradientUnits="userSpaceOnUse" gradientTransform="translate(255.484 126.507) rotate(-127.468) scale(21.982 55.1144)">
<stop stop-color="#95CFB9"/>
<stop offset="1" stop-color="#95CFB9" stop-opacity="0"/>
</radialGradient>
<radialGradient id="paint15_radial_38_422" cx="0" cy="0" r="1" gradientUnits="userSpaceOnUse" gradientTransform="translate(259.88 84.5376) rotate(-42.8739) scale(37.7499 80.8463)">
<stop stop-color="#FFFF00"/>
<stop offset="0.463942" stop-color="#F9C713"/>
<stop offset="0.534779" stop-color="#F6AB1C"/>
<stop offset="0.875" stop-color="#F49D21"/>
<stop offset="1" stop-color="#F39026"/>
</radialGradient>
<radialGradient id="paint16_radial_38_422" cx="0" cy="0" r="1" gradientUnits="userSpaceOnUse" gradientTransform="translate(254.567 154.583) rotate(-20.9911) scale(20.3838 8.08288)">
<stop stop-color="#C87137"/>
<stop offset="1" stop-color="#C87137" stop-opacity="0"/>
</radialGradient>
<radialGradient id="paint17_radial_38_422" cx="0" cy="0" r="1" gradientUnits="userSpaceOnUse" gradientTransform="translate(69.9903 248.098) rotate(10.1136) scale(5.27387 19.1178)">
<stop stop-color="#C87137"/>
<stop offset="1" stop-color="#C87137" stop-opacity="0"/>
</radialGradient>
<linearGradient id="paint18_linear_38_422" x1="121.293" y1="340.357" x2="186.063" y2="340.357" gradientUnits="userSpaceOnUse">
<stop stop-color="#9E87A3"/>
<stop offset="0.267671" stop-color="white"/>
<stop offset="0.782313" stop-color="#F6F7FA"/>
<stop offset="1" stop-color="#99A2C1"/>
</linearGradient>
<linearGradient id="paint19_linear_38_422" x1="116.791" y1="335.864" x2="148.53" y2="319.645" gradientUnits="userSpaceOnUse">
<stop stop-color="#17280B"/>
<stop offset="0.290121" stop-color="#71C837"/>
<stop offset="0.643666" stop-color="#2D5016"/>
<stop offset="0.863887" stop-color="#71C837"/>
<stop offset="1" stop-color="#E6E6E6" stop-opacity="0"/>
</linearGradient>
<linearGradient id="paint20_linear_38_422" x1="192.755" y1="337.001" x2="161.016" y2="320.782" gradientUnits="userSpaceOnUse">
<stop stop-color="#17280B"/>
<stop offset="0.290121" stop-color="#71C837"/>
<stop offset="0.643666" stop-color="#2D5016"/>
<stop offset="0.863887" stop-color="#71C837"/>
<stop offset="1" stop-color="#E6E6E6" stop-opacity="0"/>
</linearGradient>
<linearGradient id="paint21_linear_38_422" x1="269.657" y1="329.286" x2="169.453" y2="329.286" gradientUnits="userSpaceOnUse">
<stop stop-color="#9E87A3"/>
<stop offset="0.267671" stop-color="white"/>
<stop offset="0.782313" stop-color="#CCD0E0"/>
<stop offset="1" stop-color="#99A2C1"/>
</linearGradient>
<linearGradient id="paint22_linear_38_422" x1="253.187" y1="329.676" x2="274.22" y2="339.172" gradientUnits="userSpaceOnUse">
<stop stop-color="#17280B"/>
<stop offset="0.290121" stop-color="#71C837"/>
<stop offset="0.643666" stop-color="#2D5016"/>
<stop offset="0.863887" stop-color="#71C837"/>
<stop offset="1" stop-color="#E6E6E6" stop-opacity="0"/>
</linearGradient>
<linearGradient id="paint23_linear_38_422" x1="41.5524" y1="329.163" x2="141.757" y2="329.163" gradientUnits="userSpaceOnUse">
<stop stop-color="#9E87A3"/>
<stop offset="0.267671" stop-color="white"/>
<stop offset="0.782313" stop-color="#CCD0E0"/>
<stop offset="1" stop-color="#99A2C1"/>
</linearGradient>
<linearGradient id="paint24_linear_38_422" x1="54.3096" y1="338.45" x2="34.3522" y2="342.095" gradientUnits="userSpaceOnUse">
<stop stop-color="#17280B"/>
<stop offset="0.290121" stop-color="#71C837"/>
<stop offset="0.643666" stop-color="#2D5016"/>
<stop offset="0.863887" stop-color="#71C837"/>
<stop offset="1" stop-color="#E6E6E6" stop-opacity="0"/>
</linearGradient>
<linearGradient id="paint25_linear_38_422" x1="65.3451" y1="69.7349" x2="79.0949" y2="61.9947" gradientUnits="userSpaceOnUse">
<stop/>
<stop offset="1" stop-opacity="0"/>
</linearGradient>
<radialGradient id="paint26_radial_38_422" cx="0" cy="0" r="1" gradientUnits="userSpaceOnUse" gradientTransform="translate(49.1743 153.839) rotate(30.4832) scale(21.0909 10.086)">
<stop stop-color="#C87137"/>
<stop offset="1" stop-color="#C87137" stop-opacity="0"/>
</radialGradient>
<radialGradient id="paint27_radial_38_422" cx="0" cy="0" r="1" gradientUnits="userSpaceOnUse" gradientTransform="translate(243.308 60.1012) scale(13.5446 19.2024)">
<stop stop-color="#C87137"/>
<stop offset="1" stop-color="#C87137" stop-opacity="0"/>
</radialGradient>
<radialGradient id="paint28_radial_38_422" cx="0" cy="0" r="1" gradientUnits="userSpaceOnUse" gradientTransform="translate(36.5307 89.9053) scale(10.1513 15.498)">
<stop stop-color="#C87137"/>
<stop offset="1" stop-color="#C87137" stop-opacity="0"/>
</radialGradient>
<radialGradient id="paint29_radial_38_422" cx="0" cy="0" r="1" gradientUnits="userSpaceOnUse" gradientTransform="translate(267.713 94.9841) scale(6.88856 11.7937)">
<stop stop-color="#C87137"/>
<stop offset="1" stop-color="#C87137" stop-opacity="0"/>
</radialGradient>
<radialGradient id="paint30_radial_38_422" cx="0" cy="0" r="1" gradientUnits="userSpaceOnUse" gradientTransform="translate(274.298 126.163) scale(4.80039 16.7328)">
<stop stop-color="#C87137"/>
<stop offset="1" stop-color="#C87137" stop-opacity="0"/>
</radialGradient>
<radialGradient id="paint31_radial_38_422" cx="0" cy="0" r="1" gradientUnits="userSpaceOnUse" gradientTransform="translate(71.8172 211.477) rotate(-52.5324) scale(21.982 55.1144)">
<stop stop-color="#95CFB9"/>
<stop offset="1" stop-color="#95CFB9" stop-opacity="0"/>
</radialGradient>
<radialGradient id="paint32_radial_38_422" cx="0" cy="0" r="1" gradientUnits="userSpaceOnUse" gradientTransform="translate(259.23 208.39) rotate(-127.468) scale(21.982 55.1144)">
<stop stop-color="#95CFB9"/>
<stop offset="1" stop-color="#95CFB9" stop-opacity="0"/>
</radialGradient>
<radialGradient id="paint33_radial_38_422" cx="0" cy="0" r="1" gradientUnits="userSpaceOnUse" gradientTransform="translate(229.729 296.366) rotate(-22.7389) scale(11.9676 3.83746)">
<stop stop-color="#C87137"/>
<stop offset="1" stop-color="#C87137" stop-opacity="0"/>
</radialGradient>
<radialGradient id="paint34_radial_38_422" cx="0" cy="0" r="1" gradientUnits="userSpaceOnUse" gradientTransform="translate(77.4502 292.341) rotate(18.6221) scale(14.0174 4.6249)">
<stop stop-color="#C87137"/>
<stop offset="1" stop-color="#C87137" stop-opacity="0"/>
</radialGradient>
</defs>
</svg>
